<mxfile host="app.diagrams.net" modified="2024-03-31T19:26:14.004Z" agent="Mozilla/5.0 (Macintosh; Intel Mac OS X 10_15_7) AppleWebKit/537.36 (KHTML, like Gecko) Chrome/123.0.0.0 Safari/537.36" etag="giHWLwgQqZOpU7A041T3" version="24.1.0" type="github" pages="12">
  <diagram name="1" id="YbSXdXzDBc9rrVeTFeQx">
    <mxGraphModel dx="1834" dy="625" grid="1" gridSize="10" guides="1" tooltips="1" connect="1" arrows="1" fold="1" page="1" pageScale="1" pageWidth="850" pageHeight="1100" math="0" shadow="0">
      <root>
        <mxCell id="0" />
        <mxCell id="1" parent="0" />
        <mxCell id="NM03gLeqsq2nDsqdgg85-1" value="&lt;p style=&quot;box-sizing: border-box; margin: 0px 0px 0.5em;&quot; id=&quot;yui_3_17_2_1_1711911896410_1316&quot;&gt;&lt;span style=&quot;box-sizing: border-box; font-size: 0.9375rem;&quot; id=&quot;yui_3_17_2_1_1711911896410_1315&quot;&gt;36,&amp;nbsp;&lt;/span&gt;&lt;span style=&quot;box-sizing: border-box; font-size: 0.9375rem;&quot;&gt;25,&amp;nbsp;&lt;/span&gt;&lt;span style=&quot;box-sizing: border-box; font-size: 0.9375rem;&quot;&gt;2,&amp;nbsp;&lt;/span&gt;&lt;span style=&quot;box-sizing: border-box; font-size: 0.9375rem;&quot;&gt;7,&amp;nbsp;&lt;/span&gt;&lt;span style=&quot;box-sizing: border-box; font-size: 0.9375rem;&quot;&gt;17,&amp;nbsp;&lt;/span&gt;&lt;span style=&quot;box-sizing: border-box; font-size: 0.9375rem;&quot;&gt;19,&amp;nbsp;&lt;/span&gt;&lt;span style=&quot;box-sizing: border-box; font-size: 0.9375rem;&quot;&gt;3,&amp;nbsp;&lt;/span&gt;&lt;span style=&quot;box-sizing: border-box; font-size: 0.9375rem;&quot;&gt;100,&amp;nbsp;&lt;/span&gt;&lt;span style=&quot;box-sizing: border-box; font-size: 0.9375rem;&quot;&gt;29,&amp;nbsp;&lt;/span&gt;&lt;span style=&quot;box-sizing: border-box; font-size: 0.9375rem;&quot;&gt;14,&amp;nbsp;&lt;/span&gt;&lt;span style=&quot;box-sizing: border-box; font-size: 0.9375rem;&quot;&gt;11,&amp;nbsp;&lt;/span&gt;&lt;span style=&quot;box-sizing: border-box; font-size: 0.9375rem;&quot;&gt;31&lt;/span&gt;&lt;/p&gt;" style="rounded=1;whiteSpace=wrap;html=1;" vertex="1" parent="1">
          <mxGeometry x="-45" y="80" width="330" height="40" as="geometry" />
        </mxCell>
        <mxCell id="NM03gLeqsq2nDsqdgg85-2" style="edgeStyle=orthogonalEdgeStyle;rounded=0;orthogonalLoop=1;jettySize=auto;html=1;exitX=0;exitY=1;exitDx=0;exitDy=0;entryX=0.5;entryY=0;entryDx=0;entryDy=0;" edge="1" parent="1" source="NM03gLeqsq2nDsqdgg85-4" target="NM03gLeqsq2nDsqdgg85-7">
          <mxGeometry relative="1" as="geometry" />
        </mxCell>
        <mxCell id="NM03gLeqsq2nDsqdgg85-3" style="edgeStyle=orthogonalEdgeStyle;rounded=0;orthogonalLoop=1;jettySize=auto;html=1;exitX=1;exitY=1;exitDx=0;exitDy=0;entryX=0.5;entryY=0;entryDx=0;entryDy=0;" edge="1" parent="1" source="NM03gLeqsq2nDsqdgg85-4" target="NM03gLeqsq2nDsqdgg85-32">
          <mxGeometry relative="1" as="geometry" />
        </mxCell>
        <mxCell id="NM03gLeqsq2nDsqdgg85-4" value="36" style="ellipse;whiteSpace=wrap;html=1;aspect=fixed;fillColor=#dae8fc;strokeColor=#6c8ebf;" vertex="1" parent="1">
          <mxGeometry x="90" y="160" width="60" height="60" as="geometry" />
        </mxCell>
        <mxCell id="NM03gLeqsq2nDsqdgg85-5" style="edgeStyle=orthogonalEdgeStyle;rounded=0;orthogonalLoop=1;jettySize=auto;html=1;exitX=0;exitY=1;exitDx=0;exitDy=0;entryX=0.5;entryY=0;entryDx=0;entryDy=0;" edge="1" parent="1" source="NM03gLeqsq2nDsqdgg85-7" target="NM03gLeqsq2nDsqdgg85-10">
          <mxGeometry relative="1" as="geometry" />
        </mxCell>
        <mxCell id="NM03gLeqsq2nDsqdgg85-6" style="edgeStyle=orthogonalEdgeStyle;rounded=0;orthogonalLoop=1;jettySize=auto;html=1;exitX=1;exitY=1;exitDx=0;exitDy=0;entryX=0.5;entryY=0;entryDx=0;entryDy=0;" edge="1" parent="1" source="NM03gLeqsq2nDsqdgg85-7" target="NM03gLeqsq2nDsqdgg85-23">
          <mxGeometry relative="1" as="geometry" />
        </mxCell>
        <mxCell id="NM03gLeqsq2nDsqdgg85-7" value="" style="ellipse;whiteSpace=wrap;html=1;aspect=fixed;" vertex="1" parent="1">
          <mxGeometry x="-280" y="320" width="60" height="60" as="geometry" />
        </mxCell>
        <mxCell id="NM03gLeqsq2nDsqdgg85-8" style="edgeStyle=orthogonalEdgeStyle;rounded=0;orthogonalLoop=1;jettySize=auto;html=1;exitX=0;exitY=1;exitDx=0;exitDy=0;entryX=0.5;entryY=0;entryDx=0;entryDy=0;" edge="1" parent="1" source="NM03gLeqsq2nDsqdgg85-10" target="NM03gLeqsq2nDsqdgg85-13">
          <mxGeometry relative="1" as="geometry" />
        </mxCell>
        <mxCell id="NM03gLeqsq2nDsqdgg85-9" style="edgeStyle=orthogonalEdgeStyle;rounded=0;orthogonalLoop=1;jettySize=auto;html=1;exitX=1;exitY=1;exitDx=0;exitDy=0;" edge="1" parent="1" source="NM03gLeqsq2nDsqdgg85-10" target="NM03gLeqsq2nDsqdgg85-17">
          <mxGeometry relative="1" as="geometry" />
        </mxCell>
        <mxCell id="NM03gLeqsq2nDsqdgg85-10" value="" style="ellipse;whiteSpace=wrap;html=1;aspect=fixed;" vertex="1" parent="1">
          <mxGeometry x="-520" y="410" width="60" height="60" as="geometry" />
        </mxCell>
        <mxCell id="NM03gLeqsq2nDsqdgg85-11" style="edgeStyle=orthogonalEdgeStyle;rounded=0;orthogonalLoop=1;jettySize=auto;html=1;exitX=1;exitY=1;exitDx=0;exitDy=0;entryX=0.5;entryY=0;entryDx=0;entryDy=0;" edge="1" parent="1" source="NM03gLeqsq2nDsqdgg85-13" target="NM03gLeqsq2nDsqdgg85-14">
          <mxGeometry relative="1" as="geometry" />
        </mxCell>
        <mxCell id="NM03gLeqsq2nDsqdgg85-12" style="edgeStyle=orthogonalEdgeStyle;rounded=0;orthogonalLoop=1;jettySize=auto;html=1;exitX=0;exitY=1;exitDx=0;exitDy=0;entryX=0.5;entryY=0;entryDx=0;entryDy=0;" edge="1" parent="1" source="NM03gLeqsq2nDsqdgg85-13" target="NM03gLeqsq2nDsqdgg85-20">
          <mxGeometry relative="1" as="geometry" />
        </mxCell>
        <mxCell id="NM03gLeqsq2nDsqdgg85-13" value="" style="ellipse;whiteSpace=wrap;html=1;aspect=fixed;" vertex="1" parent="1">
          <mxGeometry x="-650" y="490" width="60" height="60" as="geometry" />
        </mxCell>
        <mxCell id="NM03gLeqsq2nDsqdgg85-14" value="" style="ellipse;whiteSpace=wrap;html=1;aspect=fixed;" vertex="1" parent="1">
          <mxGeometry x="-560" y="570" width="60" height="60" as="geometry" />
        </mxCell>
        <mxCell id="NM03gLeqsq2nDsqdgg85-15" style="edgeStyle=orthogonalEdgeStyle;rounded=0;orthogonalLoop=1;jettySize=auto;html=1;exitX=1;exitY=1;exitDx=0;exitDy=0;entryX=0.5;entryY=0;entryDx=0;entryDy=0;" edge="1" parent="1" source="NM03gLeqsq2nDsqdgg85-17" target="NM03gLeqsq2nDsqdgg85-18">
          <mxGeometry relative="1" as="geometry" />
        </mxCell>
        <mxCell id="NM03gLeqsq2nDsqdgg85-16" style="edgeStyle=orthogonalEdgeStyle;rounded=0;orthogonalLoop=1;jettySize=auto;html=1;exitX=0;exitY=1;exitDx=0;exitDy=0;entryX=0.5;entryY=0;entryDx=0;entryDy=0;" edge="1" parent="1" source="NM03gLeqsq2nDsqdgg85-17" target="NM03gLeqsq2nDsqdgg85-19">
          <mxGeometry relative="1" as="geometry" />
        </mxCell>
        <mxCell id="NM03gLeqsq2nDsqdgg85-17" value="" style="ellipse;whiteSpace=wrap;html=1;aspect=fixed;" vertex="1" parent="1">
          <mxGeometry x="-385" y="490" width="60" height="60" as="geometry" />
        </mxCell>
        <mxCell id="NM03gLeqsq2nDsqdgg85-18" value="" style="ellipse;whiteSpace=wrap;html=1;aspect=fixed;" vertex="1" parent="1">
          <mxGeometry x="-315" y="570" width="60" height="60" as="geometry" />
        </mxCell>
        <mxCell id="NM03gLeqsq2nDsqdgg85-19" value="" style="ellipse;whiteSpace=wrap;html=1;aspect=fixed;" vertex="1" parent="1">
          <mxGeometry x="-455" y="570" width="60" height="60" as="geometry" />
        </mxCell>
        <mxCell id="NM03gLeqsq2nDsqdgg85-20" value="" style="ellipse;whiteSpace=wrap;html=1;aspect=fixed;" vertex="1" parent="1">
          <mxGeometry x="-740" y="570" width="60" height="60" as="geometry" />
        </mxCell>
        <mxCell id="NM03gLeqsq2nDsqdgg85-21" style="edgeStyle=orthogonalEdgeStyle;rounded=0;orthogonalLoop=1;jettySize=auto;html=1;exitX=0;exitY=1;exitDx=0;exitDy=0;entryX=0.5;entryY=0;entryDx=0;entryDy=0;" edge="1" parent="1" source="NM03gLeqsq2nDsqdgg85-23" target="NM03gLeqsq2nDsqdgg85-26">
          <mxGeometry relative="1" as="geometry" />
        </mxCell>
        <mxCell id="NM03gLeqsq2nDsqdgg85-22" style="edgeStyle=orthogonalEdgeStyle;rounded=0;orthogonalLoop=1;jettySize=auto;html=1;exitX=1;exitY=1;exitDx=0;exitDy=0;" edge="1" parent="1" source="NM03gLeqsq2nDsqdgg85-23" target="NM03gLeqsq2nDsqdgg85-28">
          <mxGeometry relative="1" as="geometry" />
        </mxCell>
        <mxCell id="NM03gLeqsq2nDsqdgg85-23" value="" style="ellipse;whiteSpace=wrap;html=1;aspect=fixed;" vertex="1" parent="1">
          <mxGeometry x="-20" y="410" width="60" height="60" as="geometry" />
        </mxCell>
        <mxCell id="NM03gLeqsq2nDsqdgg85-24" style="edgeStyle=orthogonalEdgeStyle;rounded=0;orthogonalLoop=1;jettySize=auto;html=1;exitX=1;exitY=1;exitDx=0;exitDy=0;entryX=0.5;entryY=0;entryDx=0;entryDy=0;" edge="1" parent="1" source="NM03gLeqsq2nDsqdgg85-26" target="NM03gLeqsq2nDsqdgg85-27">
          <mxGeometry relative="1" as="geometry" />
        </mxCell>
        <mxCell id="NM03gLeqsq2nDsqdgg85-25" style="edgeStyle=orthogonalEdgeStyle;rounded=0;orthogonalLoop=1;jettySize=auto;html=1;exitX=0;exitY=1;exitDx=0;exitDy=0;entryX=0.5;entryY=0;entryDx=0;entryDy=0;" edge="1" parent="1" source="NM03gLeqsq2nDsqdgg85-26" target="NM03gLeqsq2nDsqdgg85-29">
          <mxGeometry relative="1" as="geometry" />
        </mxCell>
        <mxCell id="NM03gLeqsq2nDsqdgg85-26" value="" style="ellipse;whiteSpace=wrap;html=1;aspect=fixed;" vertex="1" parent="1">
          <mxGeometry x="-150" y="490" width="60" height="60" as="geometry" />
        </mxCell>
        <mxCell id="NM03gLeqsq2nDsqdgg85-27" value="" style="ellipse;whiteSpace=wrap;html=1;aspect=fixed;" vertex="1" parent="1">
          <mxGeometry x="-60" y="570" width="60" height="60" as="geometry" />
        </mxCell>
        <mxCell id="NM03gLeqsq2nDsqdgg85-28" value="" style="ellipse;whiteSpace=wrap;html=1;aspect=fixed;" vertex="1" parent="1">
          <mxGeometry x="115" y="490" width="60" height="60" as="geometry" />
        </mxCell>
        <mxCell id="NM03gLeqsq2nDsqdgg85-29" value="" style="ellipse;whiteSpace=wrap;html=1;aspect=fixed;" vertex="1" parent="1">
          <mxGeometry x="-240" y="570" width="60" height="60" as="geometry" />
        </mxCell>
        <mxCell id="NM03gLeqsq2nDsqdgg85-30" style="edgeStyle=orthogonalEdgeStyle;rounded=0;orthogonalLoop=1;jettySize=auto;html=1;exitX=0;exitY=1;exitDx=0;exitDy=0;entryX=0.5;entryY=0;entryDx=0;entryDy=0;" edge="1" parent="1" source="NM03gLeqsq2nDsqdgg85-32" target="NM03gLeqsq2nDsqdgg85-35">
          <mxGeometry relative="1" as="geometry" />
        </mxCell>
        <mxCell id="NM03gLeqsq2nDsqdgg85-31" style="edgeStyle=orthogonalEdgeStyle;rounded=0;orthogonalLoop=1;jettySize=auto;html=1;exitX=1;exitY=1;exitDx=0;exitDy=0;entryX=0.5;entryY=0;entryDx=0;entryDy=0;" edge="1" parent="1" source="NM03gLeqsq2nDsqdgg85-32" target="NM03gLeqsq2nDsqdgg85-40">
          <mxGeometry relative="1" as="geometry" />
        </mxCell>
        <mxCell id="NM03gLeqsq2nDsqdgg85-32" value="" style="ellipse;whiteSpace=wrap;html=1;aspect=fixed;" vertex="1" parent="1">
          <mxGeometry x="430" y="320" width="60" height="60" as="geometry" />
        </mxCell>
        <mxCell id="NM03gLeqsq2nDsqdgg85-33" style="edgeStyle=orthogonalEdgeStyle;rounded=0;orthogonalLoop=1;jettySize=auto;html=1;exitX=0;exitY=1;exitDx=0;exitDy=0;entryX=0.5;entryY=0;entryDx=0;entryDy=0;" edge="1" parent="1" source="NM03gLeqsq2nDsqdgg85-35" target="NM03gLeqsq2nDsqdgg85-36">
          <mxGeometry relative="1" as="geometry" />
        </mxCell>
        <mxCell id="NM03gLeqsq2nDsqdgg85-34" style="edgeStyle=orthogonalEdgeStyle;rounded=0;orthogonalLoop=1;jettySize=auto;html=1;exitX=1;exitY=1;exitDx=0;exitDy=0;" edge="1" parent="1" source="NM03gLeqsq2nDsqdgg85-35" target="NM03gLeqsq2nDsqdgg85-37">
          <mxGeometry relative="1" as="geometry" />
        </mxCell>
        <mxCell id="NM03gLeqsq2nDsqdgg85-35" value="" style="ellipse;whiteSpace=wrap;html=1;aspect=fixed;" vertex="1" parent="1">
          <mxGeometry x="300" y="420" width="60" height="60" as="geometry" />
        </mxCell>
        <mxCell id="NM03gLeqsq2nDsqdgg85-36" value="" style="ellipse;whiteSpace=wrap;html=1;aspect=fixed;" vertex="1" parent="1">
          <mxGeometry x="220" y="490" width="60" height="60" as="geometry" />
        </mxCell>
        <mxCell id="NM03gLeqsq2nDsqdgg85-37" value="" style="ellipse;whiteSpace=wrap;html=1;aspect=fixed;" vertex="1" parent="1">
          <mxGeometry x="380" y="490" width="60" height="60" as="geometry" />
        </mxCell>
        <mxCell id="NM03gLeqsq2nDsqdgg85-38" style="edgeStyle=orthogonalEdgeStyle;rounded=0;orthogonalLoop=1;jettySize=auto;html=1;exitX=0;exitY=1;exitDx=0;exitDy=0;entryX=0.5;entryY=0;entryDx=0;entryDy=0;" edge="1" parent="1" source="NM03gLeqsq2nDsqdgg85-40" target="NM03gLeqsq2nDsqdgg85-41">
          <mxGeometry relative="1" as="geometry" />
        </mxCell>
        <mxCell id="NM03gLeqsq2nDsqdgg85-39" style="edgeStyle=orthogonalEdgeStyle;rounded=0;orthogonalLoop=1;jettySize=auto;html=1;exitX=1;exitY=1;exitDx=0;exitDy=0;" edge="1" parent="1" source="NM03gLeqsq2nDsqdgg85-40" target="NM03gLeqsq2nDsqdgg85-42">
          <mxGeometry relative="1" as="geometry" />
        </mxCell>
        <mxCell id="NM03gLeqsq2nDsqdgg85-40" value="" style="ellipse;whiteSpace=wrap;html=1;aspect=fixed;" vertex="1" parent="1">
          <mxGeometry x="570" y="430" width="60" height="60" as="geometry" />
        </mxCell>
        <mxCell id="NM03gLeqsq2nDsqdgg85-41" value="" style="ellipse;whiteSpace=wrap;html=1;aspect=fixed;" vertex="1" parent="1">
          <mxGeometry x="500" y="500" width="60" height="60" as="geometry" />
        </mxCell>
        <mxCell id="NM03gLeqsq2nDsqdgg85-42" value="" style="ellipse;whiteSpace=wrap;html=1;aspect=fixed;" vertex="1" parent="1">
          <mxGeometry x="650" y="510" width="60" height="60" as="geometry" />
        </mxCell>
        <mxCell id="NM03gLeqsq2nDsqdgg85-43" value="12 Elementos" style="text;html=1;align=center;verticalAlign=middle;resizable=0;points=[];autosize=1;strokeColor=none;fillColor=none;" vertex="1" parent="1">
          <mxGeometry x="190" y="50" width="100" height="30" as="geometry" />
        </mxCell>
      </root>
    </mxGraphModel>
  </diagram>
  <diagram name="2" id="zVsp4AgpXwC0l1NiOIvi">
    <mxGraphModel dx="1834" dy="625" grid="1" gridSize="10" guides="1" tooltips="1" connect="1" arrows="1" fold="1" page="1" pageScale="1" pageWidth="850" pageHeight="1100" math="0" shadow="0">
      <root>
        <mxCell id="Jst2J6v5UMAbVltSD5ZK-0" />
        <mxCell id="Jst2J6v5UMAbVltSD5ZK-1" parent="Jst2J6v5UMAbVltSD5ZK-0" />
        <mxCell id="Jst2J6v5UMAbVltSD5ZK-2" value="&lt;p style=&quot;box-sizing: border-box; margin: 0px 0px 0.5em;&quot; id=&quot;yui_3_17_2_1_1711911896410_1316&quot;&gt;&lt;span style=&quot;box-sizing: border-box; font-size: 0.9375rem;&quot; id=&quot;yui_3_17_2_1_1711911896410_1315&quot;&gt;36,&amp;nbsp;&lt;/span&gt;&lt;span style=&quot;box-sizing: border-box; font-size: 0.9375rem;&quot;&gt;25,&amp;nbsp;&lt;/span&gt;&lt;span style=&quot;box-sizing: border-box; font-size: 0.9375rem;&quot;&gt;2,&amp;nbsp;&lt;/span&gt;&lt;span style=&quot;box-sizing: border-box; font-size: 0.9375rem;&quot;&gt;7,&amp;nbsp;&lt;/span&gt;&lt;span style=&quot;box-sizing: border-box; font-size: 0.9375rem;&quot;&gt;17,&amp;nbsp;&lt;/span&gt;&lt;span style=&quot;box-sizing: border-box; font-size: 0.9375rem;&quot;&gt;19,&amp;nbsp;&lt;/span&gt;&lt;span style=&quot;box-sizing: border-box; font-size: 0.9375rem;&quot;&gt;3,&amp;nbsp;&lt;/span&gt;&lt;span style=&quot;box-sizing: border-box; font-size: 0.9375rem;&quot;&gt;100,&amp;nbsp;&lt;/span&gt;&lt;span style=&quot;box-sizing: border-box; font-size: 0.9375rem;&quot;&gt;29,&amp;nbsp;&lt;/span&gt;&lt;span style=&quot;box-sizing: border-box; font-size: 0.9375rem;&quot;&gt;14,&amp;nbsp;&lt;/span&gt;&lt;span style=&quot;box-sizing: border-box; font-size: 0.9375rem;&quot;&gt;11,&amp;nbsp;&lt;/span&gt;&lt;span style=&quot;box-sizing: border-box; font-size: 0.9375rem;&quot;&gt;31&lt;/span&gt;&lt;/p&gt;" style="rounded=1;whiteSpace=wrap;html=1;" vertex="1" parent="Jst2J6v5UMAbVltSD5ZK-1">
          <mxGeometry x="-45" y="80" width="330" height="40" as="geometry" />
        </mxCell>
        <mxCell id="Jst2J6v5UMAbVltSD5ZK-3" style="edgeStyle=orthogonalEdgeStyle;rounded=0;orthogonalLoop=1;jettySize=auto;html=1;exitX=0;exitY=1;exitDx=0;exitDy=0;entryX=0.5;entryY=0;entryDx=0;entryDy=0;" edge="1" parent="Jst2J6v5UMAbVltSD5ZK-1" source="Jst2J6v5UMAbVltSD5ZK-5" target="Jst2J6v5UMAbVltSD5ZK-8">
          <mxGeometry relative="1" as="geometry" />
        </mxCell>
        <mxCell id="Jst2J6v5UMAbVltSD5ZK-4" style="edgeStyle=orthogonalEdgeStyle;rounded=0;orthogonalLoop=1;jettySize=auto;html=1;exitX=1;exitY=1;exitDx=0;exitDy=0;entryX=0.5;entryY=0;entryDx=0;entryDy=0;" edge="1" parent="Jst2J6v5UMAbVltSD5ZK-1" source="Jst2J6v5UMAbVltSD5ZK-5" target="Jst2J6v5UMAbVltSD5ZK-33">
          <mxGeometry relative="1" as="geometry" />
        </mxCell>
        <mxCell id="Jst2J6v5UMAbVltSD5ZK-5" value="36" style="ellipse;whiteSpace=wrap;html=1;aspect=fixed;" vertex="1" parent="Jst2J6v5UMAbVltSD5ZK-1">
          <mxGeometry x="90" y="160" width="60" height="60" as="geometry" />
        </mxCell>
        <mxCell id="Jst2J6v5UMAbVltSD5ZK-6" style="edgeStyle=orthogonalEdgeStyle;rounded=0;orthogonalLoop=1;jettySize=auto;html=1;exitX=0;exitY=1;exitDx=0;exitDy=0;entryX=0.5;entryY=0;entryDx=0;entryDy=0;" edge="1" parent="Jst2J6v5UMAbVltSD5ZK-1" source="Jst2J6v5UMAbVltSD5ZK-8" target="Jst2J6v5UMAbVltSD5ZK-11">
          <mxGeometry relative="1" as="geometry" />
        </mxCell>
        <mxCell id="Jst2J6v5UMAbVltSD5ZK-7" style="edgeStyle=orthogonalEdgeStyle;rounded=0;orthogonalLoop=1;jettySize=auto;html=1;exitX=1;exitY=1;exitDx=0;exitDy=0;entryX=0.5;entryY=0;entryDx=0;entryDy=0;" edge="1" parent="Jst2J6v5UMAbVltSD5ZK-1" source="Jst2J6v5UMAbVltSD5ZK-8" target="Jst2J6v5UMAbVltSD5ZK-24">
          <mxGeometry relative="1" as="geometry" />
        </mxCell>
        <mxCell id="Jst2J6v5UMAbVltSD5ZK-8" value="25" style="ellipse;whiteSpace=wrap;html=1;aspect=fixed;fillColor=#dae8fc;strokeColor=#6c8ebf;" vertex="1" parent="Jst2J6v5UMAbVltSD5ZK-1">
          <mxGeometry x="-280" y="320" width="60" height="60" as="geometry" />
        </mxCell>
        <mxCell id="Jst2J6v5UMAbVltSD5ZK-9" style="edgeStyle=orthogonalEdgeStyle;rounded=0;orthogonalLoop=1;jettySize=auto;html=1;exitX=0;exitY=1;exitDx=0;exitDy=0;entryX=0.5;entryY=0;entryDx=0;entryDy=0;" edge="1" parent="Jst2J6v5UMAbVltSD5ZK-1" source="Jst2J6v5UMAbVltSD5ZK-11" target="Jst2J6v5UMAbVltSD5ZK-14">
          <mxGeometry relative="1" as="geometry" />
        </mxCell>
        <mxCell id="Jst2J6v5UMAbVltSD5ZK-10" style="edgeStyle=orthogonalEdgeStyle;rounded=0;orthogonalLoop=1;jettySize=auto;html=1;exitX=1;exitY=1;exitDx=0;exitDy=0;" edge="1" parent="Jst2J6v5UMAbVltSD5ZK-1" source="Jst2J6v5UMAbVltSD5ZK-11" target="Jst2J6v5UMAbVltSD5ZK-18">
          <mxGeometry relative="1" as="geometry" />
        </mxCell>
        <mxCell id="Jst2J6v5UMAbVltSD5ZK-11" value="" style="ellipse;whiteSpace=wrap;html=1;aspect=fixed;" vertex="1" parent="Jst2J6v5UMAbVltSD5ZK-1">
          <mxGeometry x="-520" y="410" width="60" height="60" as="geometry" />
        </mxCell>
        <mxCell id="Jst2J6v5UMAbVltSD5ZK-12" style="edgeStyle=orthogonalEdgeStyle;rounded=0;orthogonalLoop=1;jettySize=auto;html=1;exitX=1;exitY=1;exitDx=0;exitDy=0;entryX=0.5;entryY=0;entryDx=0;entryDy=0;" edge="1" parent="Jst2J6v5UMAbVltSD5ZK-1" source="Jst2J6v5UMAbVltSD5ZK-14" target="Jst2J6v5UMAbVltSD5ZK-15">
          <mxGeometry relative="1" as="geometry" />
        </mxCell>
        <mxCell id="Jst2J6v5UMAbVltSD5ZK-13" style="edgeStyle=orthogonalEdgeStyle;rounded=0;orthogonalLoop=1;jettySize=auto;html=1;exitX=0;exitY=1;exitDx=0;exitDy=0;entryX=0.5;entryY=0;entryDx=0;entryDy=0;" edge="1" parent="Jst2J6v5UMAbVltSD5ZK-1" source="Jst2J6v5UMAbVltSD5ZK-14" target="Jst2J6v5UMAbVltSD5ZK-21">
          <mxGeometry relative="1" as="geometry" />
        </mxCell>
        <mxCell id="Jst2J6v5UMAbVltSD5ZK-14" value="" style="ellipse;whiteSpace=wrap;html=1;aspect=fixed;" vertex="1" parent="Jst2J6v5UMAbVltSD5ZK-1">
          <mxGeometry x="-650" y="490" width="60" height="60" as="geometry" />
        </mxCell>
        <mxCell id="Jst2J6v5UMAbVltSD5ZK-15" value="" style="ellipse;whiteSpace=wrap;html=1;aspect=fixed;" vertex="1" parent="Jst2J6v5UMAbVltSD5ZK-1">
          <mxGeometry x="-560" y="570" width="60" height="60" as="geometry" />
        </mxCell>
        <mxCell id="Jst2J6v5UMAbVltSD5ZK-16" style="edgeStyle=orthogonalEdgeStyle;rounded=0;orthogonalLoop=1;jettySize=auto;html=1;exitX=1;exitY=1;exitDx=0;exitDy=0;entryX=0.5;entryY=0;entryDx=0;entryDy=0;" edge="1" parent="Jst2J6v5UMAbVltSD5ZK-1" source="Jst2J6v5UMAbVltSD5ZK-18" target="Jst2J6v5UMAbVltSD5ZK-19">
          <mxGeometry relative="1" as="geometry" />
        </mxCell>
        <mxCell id="Jst2J6v5UMAbVltSD5ZK-17" style="edgeStyle=orthogonalEdgeStyle;rounded=0;orthogonalLoop=1;jettySize=auto;html=1;exitX=0;exitY=1;exitDx=0;exitDy=0;entryX=0.5;entryY=0;entryDx=0;entryDy=0;" edge="1" parent="Jst2J6v5UMAbVltSD5ZK-1" source="Jst2J6v5UMAbVltSD5ZK-18" target="Jst2J6v5UMAbVltSD5ZK-20">
          <mxGeometry relative="1" as="geometry" />
        </mxCell>
        <mxCell id="Jst2J6v5UMAbVltSD5ZK-18" value="" style="ellipse;whiteSpace=wrap;html=1;aspect=fixed;" vertex="1" parent="Jst2J6v5UMAbVltSD5ZK-1">
          <mxGeometry x="-385" y="490" width="60" height="60" as="geometry" />
        </mxCell>
        <mxCell id="Jst2J6v5UMAbVltSD5ZK-19" value="" style="ellipse;whiteSpace=wrap;html=1;aspect=fixed;" vertex="1" parent="Jst2J6v5UMAbVltSD5ZK-1">
          <mxGeometry x="-315" y="570" width="60" height="60" as="geometry" />
        </mxCell>
        <mxCell id="Jst2J6v5UMAbVltSD5ZK-20" value="" style="ellipse;whiteSpace=wrap;html=1;aspect=fixed;" vertex="1" parent="Jst2J6v5UMAbVltSD5ZK-1">
          <mxGeometry x="-455" y="570" width="60" height="60" as="geometry" />
        </mxCell>
        <mxCell id="Jst2J6v5UMAbVltSD5ZK-21" value="" style="ellipse;whiteSpace=wrap;html=1;aspect=fixed;" vertex="1" parent="Jst2J6v5UMAbVltSD5ZK-1">
          <mxGeometry x="-740" y="570" width="60" height="60" as="geometry" />
        </mxCell>
        <mxCell id="Jst2J6v5UMAbVltSD5ZK-22" style="edgeStyle=orthogonalEdgeStyle;rounded=0;orthogonalLoop=1;jettySize=auto;html=1;exitX=0;exitY=1;exitDx=0;exitDy=0;entryX=0.5;entryY=0;entryDx=0;entryDy=0;" edge="1" parent="Jst2J6v5UMAbVltSD5ZK-1" source="Jst2J6v5UMAbVltSD5ZK-24" target="Jst2J6v5UMAbVltSD5ZK-27">
          <mxGeometry relative="1" as="geometry" />
        </mxCell>
        <mxCell id="Jst2J6v5UMAbVltSD5ZK-23" style="edgeStyle=orthogonalEdgeStyle;rounded=0;orthogonalLoop=1;jettySize=auto;html=1;exitX=1;exitY=1;exitDx=0;exitDy=0;" edge="1" parent="Jst2J6v5UMAbVltSD5ZK-1" source="Jst2J6v5UMAbVltSD5ZK-24" target="Jst2J6v5UMAbVltSD5ZK-29">
          <mxGeometry relative="1" as="geometry" />
        </mxCell>
        <mxCell id="Jst2J6v5UMAbVltSD5ZK-24" value="" style="ellipse;whiteSpace=wrap;html=1;aspect=fixed;" vertex="1" parent="Jst2J6v5UMAbVltSD5ZK-1">
          <mxGeometry x="-20" y="410" width="60" height="60" as="geometry" />
        </mxCell>
        <mxCell id="Jst2J6v5UMAbVltSD5ZK-25" style="edgeStyle=orthogonalEdgeStyle;rounded=0;orthogonalLoop=1;jettySize=auto;html=1;exitX=1;exitY=1;exitDx=0;exitDy=0;entryX=0.5;entryY=0;entryDx=0;entryDy=0;" edge="1" parent="Jst2J6v5UMAbVltSD5ZK-1" source="Jst2J6v5UMAbVltSD5ZK-27" target="Jst2J6v5UMAbVltSD5ZK-28">
          <mxGeometry relative="1" as="geometry" />
        </mxCell>
        <mxCell id="Jst2J6v5UMAbVltSD5ZK-26" style="edgeStyle=orthogonalEdgeStyle;rounded=0;orthogonalLoop=1;jettySize=auto;html=1;exitX=0;exitY=1;exitDx=0;exitDy=0;entryX=0.5;entryY=0;entryDx=0;entryDy=0;" edge="1" parent="Jst2J6v5UMAbVltSD5ZK-1" source="Jst2J6v5UMAbVltSD5ZK-27" target="Jst2J6v5UMAbVltSD5ZK-30">
          <mxGeometry relative="1" as="geometry" />
        </mxCell>
        <mxCell id="Jst2J6v5UMAbVltSD5ZK-27" value="" style="ellipse;whiteSpace=wrap;html=1;aspect=fixed;" vertex="1" parent="Jst2J6v5UMAbVltSD5ZK-1">
          <mxGeometry x="-150" y="490" width="60" height="60" as="geometry" />
        </mxCell>
        <mxCell id="Jst2J6v5UMAbVltSD5ZK-28" value="" style="ellipse;whiteSpace=wrap;html=1;aspect=fixed;" vertex="1" parent="Jst2J6v5UMAbVltSD5ZK-1">
          <mxGeometry x="-60" y="570" width="60" height="60" as="geometry" />
        </mxCell>
        <mxCell id="Jst2J6v5UMAbVltSD5ZK-29" value="" style="ellipse;whiteSpace=wrap;html=1;aspect=fixed;" vertex="1" parent="Jst2J6v5UMAbVltSD5ZK-1">
          <mxGeometry x="115" y="490" width="60" height="60" as="geometry" />
        </mxCell>
        <mxCell id="Jst2J6v5UMAbVltSD5ZK-30" value="" style="ellipse;whiteSpace=wrap;html=1;aspect=fixed;" vertex="1" parent="Jst2J6v5UMAbVltSD5ZK-1">
          <mxGeometry x="-240" y="570" width="60" height="60" as="geometry" />
        </mxCell>
        <mxCell id="Jst2J6v5UMAbVltSD5ZK-31" style="edgeStyle=orthogonalEdgeStyle;rounded=0;orthogonalLoop=1;jettySize=auto;html=1;exitX=0;exitY=1;exitDx=0;exitDy=0;entryX=0.5;entryY=0;entryDx=0;entryDy=0;" edge="1" parent="Jst2J6v5UMAbVltSD5ZK-1" source="Jst2J6v5UMAbVltSD5ZK-33" target="Jst2J6v5UMAbVltSD5ZK-36">
          <mxGeometry relative="1" as="geometry" />
        </mxCell>
        <mxCell id="Jst2J6v5UMAbVltSD5ZK-32" style="edgeStyle=orthogonalEdgeStyle;rounded=0;orthogonalLoop=1;jettySize=auto;html=1;exitX=1;exitY=1;exitDx=0;exitDy=0;entryX=0.5;entryY=0;entryDx=0;entryDy=0;" edge="1" parent="Jst2J6v5UMAbVltSD5ZK-1" source="Jst2J6v5UMAbVltSD5ZK-33" target="Jst2J6v5UMAbVltSD5ZK-41">
          <mxGeometry relative="1" as="geometry" />
        </mxCell>
        <mxCell id="Jst2J6v5UMAbVltSD5ZK-33" value="" style="ellipse;whiteSpace=wrap;html=1;aspect=fixed;" vertex="1" parent="Jst2J6v5UMAbVltSD5ZK-1">
          <mxGeometry x="430" y="320" width="60" height="60" as="geometry" />
        </mxCell>
        <mxCell id="Jst2J6v5UMAbVltSD5ZK-34" style="edgeStyle=orthogonalEdgeStyle;rounded=0;orthogonalLoop=1;jettySize=auto;html=1;exitX=0;exitY=1;exitDx=0;exitDy=0;entryX=0.5;entryY=0;entryDx=0;entryDy=0;" edge="1" parent="Jst2J6v5UMAbVltSD5ZK-1" source="Jst2J6v5UMAbVltSD5ZK-36" target="Jst2J6v5UMAbVltSD5ZK-37">
          <mxGeometry relative="1" as="geometry" />
        </mxCell>
        <mxCell id="Jst2J6v5UMAbVltSD5ZK-35" style="edgeStyle=orthogonalEdgeStyle;rounded=0;orthogonalLoop=1;jettySize=auto;html=1;exitX=1;exitY=1;exitDx=0;exitDy=0;" edge="1" parent="Jst2J6v5UMAbVltSD5ZK-1" source="Jst2J6v5UMAbVltSD5ZK-36" target="Jst2J6v5UMAbVltSD5ZK-38">
          <mxGeometry relative="1" as="geometry" />
        </mxCell>
        <mxCell id="Jst2J6v5UMAbVltSD5ZK-36" value="" style="ellipse;whiteSpace=wrap;html=1;aspect=fixed;" vertex="1" parent="Jst2J6v5UMAbVltSD5ZK-1">
          <mxGeometry x="300" y="420" width="60" height="60" as="geometry" />
        </mxCell>
        <mxCell id="Jst2J6v5UMAbVltSD5ZK-37" value="" style="ellipse;whiteSpace=wrap;html=1;aspect=fixed;" vertex="1" parent="Jst2J6v5UMAbVltSD5ZK-1">
          <mxGeometry x="220" y="490" width="60" height="60" as="geometry" />
        </mxCell>
        <mxCell id="Jst2J6v5UMAbVltSD5ZK-38" value="" style="ellipse;whiteSpace=wrap;html=1;aspect=fixed;" vertex="1" parent="Jst2J6v5UMAbVltSD5ZK-1">
          <mxGeometry x="380" y="490" width="60" height="60" as="geometry" />
        </mxCell>
        <mxCell id="Jst2J6v5UMAbVltSD5ZK-39" style="edgeStyle=orthogonalEdgeStyle;rounded=0;orthogonalLoop=1;jettySize=auto;html=1;exitX=0;exitY=1;exitDx=0;exitDy=0;entryX=0.5;entryY=0;entryDx=0;entryDy=0;" edge="1" parent="Jst2J6v5UMAbVltSD5ZK-1" source="Jst2J6v5UMAbVltSD5ZK-41" target="Jst2J6v5UMAbVltSD5ZK-42">
          <mxGeometry relative="1" as="geometry" />
        </mxCell>
        <mxCell id="Jst2J6v5UMAbVltSD5ZK-40" style="edgeStyle=orthogonalEdgeStyle;rounded=0;orthogonalLoop=1;jettySize=auto;html=1;exitX=1;exitY=1;exitDx=0;exitDy=0;" edge="1" parent="Jst2J6v5UMAbVltSD5ZK-1" source="Jst2J6v5UMAbVltSD5ZK-41" target="Jst2J6v5UMAbVltSD5ZK-43">
          <mxGeometry relative="1" as="geometry" />
        </mxCell>
        <mxCell id="Jst2J6v5UMAbVltSD5ZK-41" value="" style="ellipse;whiteSpace=wrap;html=1;aspect=fixed;" vertex="1" parent="Jst2J6v5UMAbVltSD5ZK-1">
          <mxGeometry x="570" y="430" width="60" height="60" as="geometry" />
        </mxCell>
        <mxCell id="Jst2J6v5UMAbVltSD5ZK-42" value="" style="ellipse;whiteSpace=wrap;html=1;aspect=fixed;" vertex="1" parent="Jst2J6v5UMAbVltSD5ZK-1">
          <mxGeometry x="500" y="500" width="60" height="60" as="geometry" />
        </mxCell>
        <mxCell id="Jst2J6v5UMAbVltSD5ZK-43" value="" style="ellipse;whiteSpace=wrap;html=1;aspect=fixed;" vertex="1" parent="Jst2J6v5UMAbVltSD5ZK-1">
          <mxGeometry x="650" y="510" width="60" height="60" as="geometry" />
        </mxCell>
        <mxCell id="Jst2J6v5UMAbVltSD5ZK-44" value="12 Elementos" style="text;html=1;align=center;verticalAlign=middle;resizable=0;points=[];autosize=1;strokeColor=none;fillColor=none;" vertex="1" parent="Jst2J6v5UMAbVltSD5ZK-1">
          <mxGeometry x="190" y="50" width="100" height="30" as="geometry" />
        </mxCell>
      </root>
    </mxGraphModel>
  </diagram>
  <diagram name="3" id="GWLKM_QkWxa-GHO1p-oI">
    <mxGraphModel dx="1834" dy="625" grid="1" gridSize="10" guides="1" tooltips="1" connect="1" arrows="1" fold="1" page="1" pageScale="1" pageWidth="850" pageHeight="1100" math="0" shadow="0">
      <root>
        <mxCell id="Vm6Li9-O6pvOVfCg9Jka-0" />
        <mxCell id="Vm6Li9-O6pvOVfCg9Jka-1" parent="Vm6Li9-O6pvOVfCg9Jka-0" />
        <mxCell id="Vm6Li9-O6pvOVfCg9Jka-2" value="&lt;p style=&quot;box-sizing: border-box; margin: 0px 0px 0.5em;&quot; id=&quot;yui_3_17_2_1_1711911896410_1316&quot;&gt;&lt;span style=&quot;box-sizing: border-box; font-size: 0.9375rem;&quot; id=&quot;yui_3_17_2_1_1711911896410_1315&quot;&gt;36,&amp;nbsp;&lt;/span&gt;&lt;span style=&quot;box-sizing: border-box; font-size: 0.9375rem;&quot;&gt;25,&amp;nbsp;&lt;/span&gt;&lt;span style=&quot;box-sizing: border-box; font-size: 0.9375rem;&quot;&gt;2,&amp;nbsp;&lt;/span&gt;&lt;span style=&quot;box-sizing: border-box; font-size: 0.9375rem;&quot;&gt;7,&amp;nbsp;&lt;/span&gt;&lt;span style=&quot;box-sizing: border-box; font-size: 0.9375rem;&quot;&gt;17,&amp;nbsp;&lt;/span&gt;&lt;span style=&quot;box-sizing: border-box; font-size: 0.9375rem;&quot;&gt;19,&amp;nbsp;&lt;/span&gt;&lt;span style=&quot;box-sizing: border-box; font-size: 0.9375rem;&quot;&gt;3,&amp;nbsp;&lt;/span&gt;&lt;span style=&quot;box-sizing: border-box; font-size: 0.9375rem;&quot;&gt;100,&amp;nbsp;&lt;/span&gt;&lt;span style=&quot;box-sizing: border-box; font-size: 0.9375rem;&quot;&gt;29,&amp;nbsp;&lt;/span&gt;&lt;span style=&quot;box-sizing: border-box; font-size: 0.9375rem;&quot;&gt;14,&amp;nbsp;&lt;/span&gt;&lt;span style=&quot;box-sizing: border-box; font-size: 0.9375rem;&quot;&gt;11,&amp;nbsp;&lt;/span&gt;&lt;span style=&quot;box-sizing: border-box; font-size: 0.9375rem;&quot;&gt;31&lt;/span&gt;&lt;/p&gt;" style="rounded=1;whiteSpace=wrap;html=1;" vertex="1" parent="Vm6Li9-O6pvOVfCg9Jka-1">
          <mxGeometry x="-45" y="80" width="330" height="40" as="geometry" />
        </mxCell>
        <mxCell id="Vm6Li9-O6pvOVfCg9Jka-3" style="edgeStyle=orthogonalEdgeStyle;rounded=0;orthogonalLoop=1;jettySize=auto;html=1;exitX=0;exitY=1;exitDx=0;exitDy=0;entryX=0.5;entryY=0;entryDx=0;entryDy=0;" edge="1" parent="Vm6Li9-O6pvOVfCg9Jka-1" source="Vm6Li9-O6pvOVfCg9Jka-5" target="Vm6Li9-O6pvOVfCg9Jka-8">
          <mxGeometry relative="1" as="geometry" />
        </mxCell>
        <mxCell id="Vm6Li9-O6pvOVfCg9Jka-4" style="edgeStyle=orthogonalEdgeStyle;rounded=0;orthogonalLoop=1;jettySize=auto;html=1;exitX=1;exitY=1;exitDx=0;exitDy=0;entryX=0.5;entryY=0;entryDx=0;entryDy=0;" edge="1" parent="Vm6Li9-O6pvOVfCg9Jka-1" source="Vm6Li9-O6pvOVfCg9Jka-5" target="Vm6Li9-O6pvOVfCg9Jka-33">
          <mxGeometry relative="1" as="geometry" />
        </mxCell>
        <mxCell id="Vm6Li9-O6pvOVfCg9Jka-5" value="36" style="ellipse;whiteSpace=wrap;html=1;aspect=fixed;" vertex="1" parent="Vm6Li9-O6pvOVfCg9Jka-1">
          <mxGeometry x="90" y="160" width="60" height="60" as="geometry" />
        </mxCell>
        <mxCell id="Vm6Li9-O6pvOVfCg9Jka-6" style="edgeStyle=orthogonalEdgeStyle;rounded=0;orthogonalLoop=1;jettySize=auto;html=1;exitX=0;exitY=1;exitDx=0;exitDy=0;entryX=0.5;entryY=0;entryDx=0;entryDy=0;" edge="1" parent="Vm6Li9-O6pvOVfCg9Jka-1" source="Vm6Li9-O6pvOVfCg9Jka-8" target="Vm6Li9-O6pvOVfCg9Jka-11">
          <mxGeometry relative="1" as="geometry" />
        </mxCell>
        <mxCell id="Vm6Li9-O6pvOVfCg9Jka-7" style="edgeStyle=orthogonalEdgeStyle;rounded=0;orthogonalLoop=1;jettySize=auto;html=1;exitX=1;exitY=1;exitDx=0;exitDy=0;entryX=0.5;entryY=0;entryDx=0;entryDy=0;" edge="1" parent="Vm6Li9-O6pvOVfCg9Jka-1" source="Vm6Li9-O6pvOVfCg9Jka-8" target="Vm6Li9-O6pvOVfCg9Jka-24">
          <mxGeometry relative="1" as="geometry" />
        </mxCell>
        <mxCell id="Vm6Li9-O6pvOVfCg9Jka-8" value="25" style="ellipse;whiteSpace=wrap;html=1;aspect=fixed;" vertex="1" parent="Vm6Li9-O6pvOVfCg9Jka-1">
          <mxGeometry x="-280" y="320" width="60" height="60" as="geometry" />
        </mxCell>
        <mxCell id="Vm6Li9-O6pvOVfCg9Jka-9" style="edgeStyle=orthogonalEdgeStyle;rounded=0;orthogonalLoop=1;jettySize=auto;html=1;exitX=0;exitY=1;exitDx=0;exitDy=0;entryX=0.5;entryY=0;entryDx=0;entryDy=0;" edge="1" parent="Vm6Li9-O6pvOVfCg9Jka-1" source="Vm6Li9-O6pvOVfCg9Jka-11" target="Vm6Li9-O6pvOVfCg9Jka-14">
          <mxGeometry relative="1" as="geometry" />
        </mxCell>
        <mxCell id="Vm6Li9-O6pvOVfCg9Jka-10" style="edgeStyle=orthogonalEdgeStyle;rounded=0;orthogonalLoop=1;jettySize=auto;html=1;exitX=1;exitY=1;exitDx=0;exitDy=0;" edge="1" parent="Vm6Li9-O6pvOVfCg9Jka-1" source="Vm6Li9-O6pvOVfCg9Jka-11" target="Vm6Li9-O6pvOVfCg9Jka-18">
          <mxGeometry relative="1" as="geometry" />
        </mxCell>
        <mxCell id="Vm6Li9-O6pvOVfCg9Jka-11" value="" style="ellipse;whiteSpace=wrap;html=1;aspect=fixed;" vertex="1" parent="Vm6Li9-O6pvOVfCg9Jka-1">
          <mxGeometry x="-520" y="410" width="60" height="60" as="geometry" />
        </mxCell>
        <mxCell id="Vm6Li9-O6pvOVfCg9Jka-12" style="edgeStyle=orthogonalEdgeStyle;rounded=0;orthogonalLoop=1;jettySize=auto;html=1;exitX=1;exitY=1;exitDx=0;exitDy=0;entryX=0.5;entryY=0;entryDx=0;entryDy=0;" edge="1" parent="Vm6Li9-O6pvOVfCg9Jka-1" source="Vm6Li9-O6pvOVfCg9Jka-14" target="Vm6Li9-O6pvOVfCg9Jka-15">
          <mxGeometry relative="1" as="geometry" />
        </mxCell>
        <mxCell id="Vm6Li9-O6pvOVfCg9Jka-13" style="edgeStyle=orthogonalEdgeStyle;rounded=0;orthogonalLoop=1;jettySize=auto;html=1;exitX=0;exitY=1;exitDx=0;exitDy=0;entryX=0.5;entryY=0;entryDx=0;entryDy=0;" edge="1" parent="Vm6Li9-O6pvOVfCg9Jka-1" source="Vm6Li9-O6pvOVfCg9Jka-14" target="Vm6Li9-O6pvOVfCg9Jka-21">
          <mxGeometry relative="1" as="geometry" />
        </mxCell>
        <mxCell id="Vm6Li9-O6pvOVfCg9Jka-14" value="" style="ellipse;whiteSpace=wrap;html=1;aspect=fixed;" vertex="1" parent="Vm6Li9-O6pvOVfCg9Jka-1">
          <mxGeometry x="-650" y="490" width="60" height="60" as="geometry" />
        </mxCell>
        <mxCell id="Vm6Li9-O6pvOVfCg9Jka-15" value="" style="ellipse;whiteSpace=wrap;html=1;aspect=fixed;" vertex="1" parent="Vm6Li9-O6pvOVfCg9Jka-1">
          <mxGeometry x="-560" y="570" width="60" height="60" as="geometry" />
        </mxCell>
        <mxCell id="Vm6Li9-O6pvOVfCg9Jka-16" style="edgeStyle=orthogonalEdgeStyle;rounded=0;orthogonalLoop=1;jettySize=auto;html=1;exitX=1;exitY=1;exitDx=0;exitDy=0;entryX=0.5;entryY=0;entryDx=0;entryDy=0;" edge="1" parent="Vm6Li9-O6pvOVfCg9Jka-1" source="Vm6Li9-O6pvOVfCg9Jka-18" target="Vm6Li9-O6pvOVfCg9Jka-19">
          <mxGeometry relative="1" as="geometry" />
        </mxCell>
        <mxCell id="Vm6Li9-O6pvOVfCg9Jka-17" style="edgeStyle=orthogonalEdgeStyle;rounded=0;orthogonalLoop=1;jettySize=auto;html=1;exitX=0;exitY=1;exitDx=0;exitDy=0;entryX=0.5;entryY=0;entryDx=0;entryDy=0;" edge="1" parent="Vm6Li9-O6pvOVfCg9Jka-1" source="Vm6Li9-O6pvOVfCg9Jka-18" target="Vm6Li9-O6pvOVfCg9Jka-20">
          <mxGeometry relative="1" as="geometry" />
        </mxCell>
        <mxCell id="Vm6Li9-O6pvOVfCg9Jka-18" value="" style="ellipse;whiteSpace=wrap;html=1;aspect=fixed;" vertex="1" parent="Vm6Li9-O6pvOVfCg9Jka-1">
          <mxGeometry x="-385" y="490" width="60" height="60" as="geometry" />
        </mxCell>
        <mxCell id="Vm6Li9-O6pvOVfCg9Jka-19" value="" style="ellipse;whiteSpace=wrap;html=1;aspect=fixed;" vertex="1" parent="Vm6Li9-O6pvOVfCg9Jka-1">
          <mxGeometry x="-315" y="570" width="60" height="60" as="geometry" />
        </mxCell>
        <mxCell id="Vm6Li9-O6pvOVfCg9Jka-20" value="" style="ellipse;whiteSpace=wrap;html=1;aspect=fixed;" vertex="1" parent="Vm6Li9-O6pvOVfCg9Jka-1">
          <mxGeometry x="-455" y="570" width="60" height="60" as="geometry" />
        </mxCell>
        <mxCell id="Vm6Li9-O6pvOVfCg9Jka-21" value="" style="ellipse;whiteSpace=wrap;html=1;aspect=fixed;" vertex="1" parent="Vm6Li9-O6pvOVfCg9Jka-1">
          <mxGeometry x="-740" y="570" width="60" height="60" as="geometry" />
        </mxCell>
        <mxCell id="Vm6Li9-O6pvOVfCg9Jka-22" style="edgeStyle=orthogonalEdgeStyle;rounded=0;orthogonalLoop=1;jettySize=auto;html=1;exitX=0;exitY=1;exitDx=0;exitDy=0;entryX=0.5;entryY=0;entryDx=0;entryDy=0;" edge="1" parent="Vm6Li9-O6pvOVfCg9Jka-1" source="Vm6Li9-O6pvOVfCg9Jka-24" target="Vm6Li9-O6pvOVfCg9Jka-27">
          <mxGeometry relative="1" as="geometry" />
        </mxCell>
        <mxCell id="Vm6Li9-O6pvOVfCg9Jka-23" style="edgeStyle=orthogonalEdgeStyle;rounded=0;orthogonalLoop=1;jettySize=auto;html=1;exitX=1;exitY=1;exitDx=0;exitDy=0;" edge="1" parent="Vm6Li9-O6pvOVfCg9Jka-1" source="Vm6Li9-O6pvOVfCg9Jka-24" target="Vm6Li9-O6pvOVfCg9Jka-29">
          <mxGeometry relative="1" as="geometry" />
        </mxCell>
        <mxCell id="Vm6Li9-O6pvOVfCg9Jka-24" value="" style="ellipse;whiteSpace=wrap;html=1;aspect=fixed;" vertex="1" parent="Vm6Li9-O6pvOVfCg9Jka-1">
          <mxGeometry x="-20" y="410" width="60" height="60" as="geometry" />
        </mxCell>
        <mxCell id="Vm6Li9-O6pvOVfCg9Jka-25" style="edgeStyle=orthogonalEdgeStyle;rounded=0;orthogonalLoop=1;jettySize=auto;html=1;exitX=1;exitY=1;exitDx=0;exitDy=0;entryX=0.5;entryY=0;entryDx=0;entryDy=0;" edge="1" parent="Vm6Li9-O6pvOVfCg9Jka-1" source="Vm6Li9-O6pvOVfCg9Jka-27" target="Vm6Li9-O6pvOVfCg9Jka-28">
          <mxGeometry relative="1" as="geometry" />
        </mxCell>
        <mxCell id="Vm6Li9-O6pvOVfCg9Jka-26" style="edgeStyle=orthogonalEdgeStyle;rounded=0;orthogonalLoop=1;jettySize=auto;html=1;exitX=0;exitY=1;exitDx=0;exitDy=0;entryX=0.5;entryY=0;entryDx=0;entryDy=0;" edge="1" parent="Vm6Li9-O6pvOVfCg9Jka-1" source="Vm6Li9-O6pvOVfCg9Jka-27" target="Vm6Li9-O6pvOVfCg9Jka-30">
          <mxGeometry relative="1" as="geometry" />
        </mxCell>
        <mxCell id="Vm6Li9-O6pvOVfCg9Jka-27" value="" style="ellipse;whiteSpace=wrap;html=1;aspect=fixed;" vertex="1" parent="Vm6Li9-O6pvOVfCg9Jka-1">
          <mxGeometry x="-150" y="490" width="60" height="60" as="geometry" />
        </mxCell>
        <mxCell id="Vm6Li9-O6pvOVfCg9Jka-28" value="" style="ellipse;whiteSpace=wrap;html=1;aspect=fixed;" vertex="1" parent="Vm6Li9-O6pvOVfCg9Jka-1">
          <mxGeometry x="-60" y="570" width="60" height="60" as="geometry" />
        </mxCell>
        <mxCell id="Vm6Li9-O6pvOVfCg9Jka-29" value="" style="ellipse;whiteSpace=wrap;html=1;aspect=fixed;" vertex="1" parent="Vm6Li9-O6pvOVfCg9Jka-1">
          <mxGeometry x="115" y="490" width="60" height="60" as="geometry" />
        </mxCell>
        <mxCell id="Vm6Li9-O6pvOVfCg9Jka-30" value="" style="ellipse;whiteSpace=wrap;html=1;aspect=fixed;" vertex="1" parent="Vm6Li9-O6pvOVfCg9Jka-1">
          <mxGeometry x="-240" y="570" width="60" height="60" as="geometry" />
        </mxCell>
        <mxCell id="Vm6Li9-O6pvOVfCg9Jka-31" style="edgeStyle=orthogonalEdgeStyle;rounded=0;orthogonalLoop=1;jettySize=auto;html=1;exitX=0;exitY=1;exitDx=0;exitDy=0;entryX=0.5;entryY=0;entryDx=0;entryDy=0;" edge="1" parent="Vm6Li9-O6pvOVfCg9Jka-1" source="Vm6Li9-O6pvOVfCg9Jka-33" target="Vm6Li9-O6pvOVfCg9Jka-36">
          <mxGeometry relative="1" as="geometry" />
        </mxCell>
        <mxCell id="Vm6Li9-O6pvOVfCg9Jka-32" style="edgeStyle=orthogonalEdgeStyle;rounded=0;orthogonalLoop=1;jettySize=auto;html=1;exitX=1;exitY=1;exitDx=0;exitDy=0;entryX=0.5;entryY=0;entryDx=0;entryDy=0;" edge="1" parent="Vm6Li9-O6pvOVfCg9Jka-1" source="Vm6Li9-O6pvOVfCg9Jka-33" target="Vm6Li9-O6pvOVfCg9Jka-41">
          <mxGeometry relative="1" as="geometry" />
        </mxCell>
        <mxCell id="Vm6Li9-O6pvOVfCg9Jka-33" value="2" style="ellipse;whiteSpace=wrap;html=1;aspect=fixed;fillColor=#dae8fc;strokeColor=#6c8ebf;" vertex="1" parent="Vm6Li9-O6pvOVfCg9Jka-1">
          <mxGeometry x="430" y="320" width="60" height="60" as="geometry" />
        </mxCell>
        <mxCell id="Vm6Li9-O6pvOVfCg9Jka-34" style="edgeStyle=orthogonalEdgeStyle;rounded=0;orthogonalLoop=1;jettySize=auto;html=1;exitX=0;exitY=1;exitDx=0;exitDy=0;entryX=0.5;entryY=0;entryDx=0;entryDy=0;" edge="1" parent="Vm6Li9-O6pvOVfCg9Jka-1" source="Vm6Li9-O6pvOVfCg9Jka-36" target="Vm6Li9-O6pvOVfCg9Jka-37">
          <mxGeometry relative="1" as="geometry" />
        </mxCell>
        <mxCell id="Vm6Li9-O6pvOVfCg9Jka-35" style="edgeStyle=orthogonalEdgeStyle;rounded=0;orthogonalLoop=1;jettySize=auto;html=1;exitX=1;exitY=1;exitDx=0;exitDy=0;" edge="1" parent="Vm6Li9-O6pvOVfCg9Jka-1" source="Vm6Li9-O6pvOVfCg9Jka-36" target="Vm6Li9-O6pvOVfCg9Jka-38">
          <mxGeometry relative="1" as="geometry" />
        </mxCell>
        <mxCell id="Vm6Li9-O6pvOVfCg9Jka-36" value="" style="ellipse;whiteSpace=wrap;html=1;aspect=fixed;" vertex="1" parent="Vm6Li9-O6pvOVfCg9Jka-1">
          <mxGeometry x="300" y="420" width="60" height="60" as="geometry" />
        </mxCell>
        <mxCell id="Vm6Li9-O6pvOVfCg9Jka-37" value="" style="ellipse;whiteSpace=wrap;html=1;aspect=fixed;" vertex="1" parent="Vm6Li9-O6pvOVfCg9Jka-1">
          <mxGeometry x="220" y="490" width="60" height="60" as="geometry" />
        </mxCell>
        <mxCell id="Vm6Li9-O6pvOVfCg9Jka-38" value="" style="ellipse;whiteSpace=wrap;html=1;aspect=fixed;" vertex="1" parent="Vm6Li9-O6pvOVfCg9Jka-1">
          <mxGeometry x="380" y="490" width="60" height="60" as="geometry" />
        </mxCell>
        <mxCell id="Vm6Li9-O6pvOVfCg9Jka-39" style="edgeStyle=orthogonalEdgeStyle;rounded=0;orthogonalLoop=1;jettySize=auto;html=1;exitX=0;exitY=1;exitDx=0;exitDy=0;entryX=0.5;entryY=0;entryDx=0;entryDy=0;" edge="1" parent="Vm6Li9-O6pvOVfCg9Jka-1" source="Vm6Li9-O6pvOVfCg9Jka-41" target="Vm6Li9-O6pvOVfCg9Jka-42">
          <mxGeometry relative="1" as="geometry" />
        </mxCell>
        <mxCell id="Vm6Li9-O6pvOVfCg9Jka-40" style="edgeStyle=orthogonalEdgeStyle;rounded=0;orthogonalLoop=1;jettySize=auto;html=1;exitX=1;exitY=1;exitDx=0;exitDy=0;" edge="1" parent="Vm6Li9-O6pvOVfCg9Jka-1" source="Vm6Li9-O6pvOVfCg9Jka-41" target="Vm6Li9-O6pvOVfCg9Jka-43">
          <mxGeometry relative="1" as="geometry" />
        </mxCell>
        <mxCell id="Vm6Li9-O6pvOVfCg9Jka-41" value="" style="ellipse;whiteSpace=wrap;html=1;aspect=fixed;" vertex="1" parent="Vm6Li9-O6pvOVfCg9Jka-1">
          <mxGeometry x="570" y="430" width="60" height="60" as="geometry" />
        </mxCell>
        <mxCell id="Vm6Li9-O6pvOVfCg9Jka-42" value="" style="ellipse;whiteSpace=wrap;html=1;aspect=fixed;" vertex="1" parent="Vm6Li9-O6pvOVfCg9Jka-1">
          <mxGeometry x="500" y="500" width="60" height="60" as="geometry" />
        </mxCell>
        <mxCell id="Vm6Li9-O6pvOVfCg9Jka-43" value="" style="ellipse;whiteSpace=wrap;html=1;aspect=fixed;" vertex="1" parent="Vm6Li9-O6pvOVfCg9Jka-1">
          <mxGeometry x="650" y="510" width="60" height="60" as="geometry" />
        </mxCell>
        <mxCell id="Vm6Li9-O6pvOVfCg9Jka-44" value="12 Elementos" style="text;html=1;align=center;verticalAlign=middle;resizable=0;points=[];autosize=1;strokeColor=none;fillColor=none;" vertex="1" parent="Vm6Li9-O6pvOVfCg9Jka-1">
          <mxGeometry x="190" y="50" width="100" height="30" as="geometry" />
        </mxCell>
      </root>
    </mxGraphModel>
  </diagram>
  <diagram name="4" id="WoQEMwIx4P3nw4M60WLj">
    <mxGraphModel dx="1834" dy="625" grid="1" gridSize="10" guides="1" tooltips="1" connect="1" arrows="1" fold="1" page="1" pageScale="1" pageWidth="850" pageHeight="1100" math="0" shadow="0">
      <root>
        <mxCell id="z9TPP-KX3KojEv2-6HrE-0" />
        <mxCell id="z9TPP-KX3KojEv2-6HrE-1" parent="z9TPP-KX3KojEv2-6HrE-0" />
        <mxCell id="z9TPP-KX3KojEv2-6HrE-2" value="&lt;p style=&quot;box-sizing: border-box; margin: 0px 0px 0.5em;&quot; id=&quot;yui_3_17_2_1_1711911896410_1316&quot;&gt;&lt;span style=&quot;box-sizing: border-box; font-size: 0.9375rem;&quot; id=&quot;yui_3_17_2_1_1711911896410_1315&quot;&gt;36,&amp;nbsp;&lt;/span&gt;&lt;span style=&quot;box-sizing: border-box; font-size: 0.9375rem;&quot;&gt;25,&amp;nbsp;&lt;/span&gt;&lt;span style=&quot;box-sizing: border-box; font-size: 0.9375rem;&quot;&gt;2,&amp;nbsp;&lt;/span&gt;&lt;span style=&quot;box-sizing: border-box; font-size: 0.9375rem;&quot;&gt;7,&amp;nbsp;&lt;/span&gt;&lt;span style=&quot;box-sizing: border-box; font-size: 0.9375rem;&quot;&gt;17,&amp;nbsp;&lt;/span&gt;&lt;span style=&quot;box-sizing: border-box; font-size: 0.9375rem;&quot;&gt;19,&amp;nbsp;&lt;/span&gt;&lt;span style=&quot;box-sizing: border-box; font-size: 0.9375rem;&quot;&gt;3,&amp;nbsp;&lt;/span&gt;&lt;span style=&quot;box-sizing: border-box; font-size: 0.9375rem;&quot;&gt;100,&amp;nbsp;&lt;/span&gt;&lt;span style=&quot;box-sizing: border-box; font-size: 0.9375rem;&quot;&gt;29,&amp;nbsp;&lt;/span&gt;&lt;span style=&quot;box-sizing: border-box; font-size: 0.9375rem;&quot;&gt;14,&amp;nbsp;&lt;/span&gt;&lt;span style=&quot;box-sizing: border-box; font-size: 0.9375rem;&quot;&gt;11,&amp;nbsp;&lt;/span&gt;&lt;span style=&quot;box-sizing: border-box; font-size: 0.9375rem;&quot;&gt;31&lt;/span&gt;&lt;/p&gt;" style="rounded=1;whiteSpace=wrap;html=1;" vertex="1" parent="z9TPP-KX3KojEv2-6HrE-1">
          <mxGeometry x="-45" y="80" width="330" height="40" as="geometry" />
        </mxCell>
        <mxCell id="z9TPP-KX3KojEv2-6HrE-3" style="edgeStyle=orthogonalEdgeStyle;rounded=0;orthogonalLoop=1;jettySize=auto;html=1;exitX=0;exitY=1;exitDx=0;exitDy=0;entryX=0.5;entryY=0;entryDx=0;entryDy=0;" edge="1" parent="z9TPP-KX3KojEv2-6HrE-1" source="z9TPP-KX3KojEv2-6HrE-5" target="z9TPP-KX3KojEv2-6HrE-8">
          <mxGeometry relative="1" as="geometry" />
        </mxCell>
        <mxCell id="z9TPP-KX3KojEv2-6HrE-4" style="edgeStyle=orthogonalEdgeStyle;rounded=0;orthogonalLoop=1;jettySize=auto;html=1;exitX=1;exitY=1;exitDx=0;exitDy=0;entryX=0.5;entryY=0;entryDx=0;entryDy=0;" edge="1" parent="z9TPP-KX3KojEv2-6HrE-1" source="z9TPP-KX3KojEv2-6HrE-5" target="z9TPP-KX3KojEv2-6HrE-33">
          <mxGeometry relative="1" as="geometry" />
        </mxCell>
        <mxCell id="z9TPP-KX3KojEv2-6HrE-5" value="36" style="ellipse;whiteSpace=wrap;html=1;aspect=fixed;" vertex="1" parent="z9TPP-KX3KojEv2-6HrE-1">
          <mxGeometry x="90" y="160" width="60" height="60" as="geometry" />
        </mxCell>
        <mxCell id="z9TPP-KX3KojEv2-6HrE-6" style="edgeStyle=orthogonalEdgeStyle;rounded=0;orthogonalLoop=1;jettySize=auto;html=1;exitX=0;exitY=1;exitDx=0;exitDy=0;entryX=0.5;entryY=0;entryDx=0;entryDy=0;" edge="1" parent="z9TPP-KX3KojEv2-6HrE-1" source="z9TPP-KX3KojEv2-6HrE-8" target="z9TPP-KX3KojEv2-6HrE-11">
          <mxGeometry relative="1" as="geometry" />
        </mxCell>
        <mxCell id="z9TPP-KX3KojEv2-6HrE-7" style="edgeStyle=orthogonalEdgeStyle;rounded=0;orthogonalLoop=1;jettySize=auto;html=1;exitX=1;exitY=1;exitDx=0;exitDy=0;entryX=0.5;entryY=0;entryDx=0;entryDy=0;" edge="1" parent="z9TPP-KX3KojEv2-6HrE-1" source="z9TPP-KX3KojEv2-6HrE-8" target="z9TPP-KX3KojEv2-6HrE-24">
          <mxGeometry relative="1" as="geometry" />
        </mxCell>
        <mxCell id="z9TPP-KX3KojEv2-6HrE-8" value="25" style="ellipse;whiteSpace=wrap;html=1;aspect=fixed;" vertex="1" parent="z9TPP-KX3KojEv2-6HrE-1">
          <mxGeometry x="-280" y="320" width="60" height="60" as="geometry" />
        </mxCell>
        <mxCell id="z9TPP-KX3KojEv2-6HrE-9" style="edgeStyle=orthogonalEdgeStyle;rounded=0;orthogonalLoop=1;jettySize=auto;html=1;exitX=0;exitY=1;exitDx=0;exitDy=0;entryX=0.5;entryY=0;entryDx=0;entryDy=0;" edge="1" parent="z9TPP-KX3KojEv2-6HrE-1" source="z9TPP-KX3KojEv2-6HrE-11" target="z9TPP-KX3KojEv2-6HrE-14">
          <mxGeometry relative="1" as="geometry" />
        </mxCell>
        <mxCell id="z9TPP-KX3KojEv2-6HrE-10" style="edgeStyle=orthogonalEdgeStyle;rounded=0;orthogonalLoop=1;jettySize=auto;html=1;exitX=1;exitY=1;exitDx=0;exitDy=0;" edge="1" parent="z9TPP-KX3KojEv2-6HrE-1" source="z9TPP-KX3KojEv2-6HrE-11" target="z9TPP-KX3KojEv2-6HrE-18">
          <mxGeometry relative="1" as="geometry" />
        </mxCell>
        <mxCell id="z9TPP-KX3KojEv2-6HrE-11" value="7" style="ellipse;whiteSpace=wrap;html=1;aspect=fixed;fillColor=#dae8fc;strokeColor=#6c8ebf;" vertex="1" parent="z9TPP-KX3KojEv2-6HrE-1">
          <mxGeometry x="-520" y="410" width="60" height="60" as="geometry" />
        </mxCell>
        <mxCell id="z9TPP-KX3KojEv2-6HrE-12" style="edgeStyle=orthogonalEdgeStyle;rounded=0;orthogonalLoop=1;jettySize=auto;html=1;exitX=1;exitY=1;exitDx=0;exitDy=0;entryX=0.5;entryY=0;entryDx=0;entryDy=0;" edge="1" parent="z9TPP-KX3KojEv2-6HrE-1" source="z9TPP-KX3KojEv2-6HrE-14" target="z9TPP-KX3KojEv2-6HrE-15">
          <mxGeometry relative="1" as="geometry" />
        </mxCell>
        <mxCell id="z9TPP-KX3KojEv2-6HrE-13" style="edgeStyle=orthogonalEdgeStyle;rounded=0;orthogonalLoop=1;jettySize=auto;html=1;exitX=0;exitY=1;exitDx=0;exitDy=0;entryX=0.5;entryY=0;entryDx=0;entryDy=0;" edge="1" parent="z9TPP-KX3KojEv2-6HrE-1" source="z9TPP-KX3KojEv2-6HrE-14" target="z9TPP-KX3KojEv2-6HrE-21">
          <mxGeometry relative="1" as="geometry" />
        </mxCell>
        <mxCell id="z9TPP-KX3KojEv2-6HrE-14" value="" style="ellipse;whiteSpace=wrap;html=1;aspect=fixed;" vertex="1" parent="z9TPP-KX3KojEv2-6HrE-1">
          <mxGeometry x="-650" y="490" width="60" height="60" as="geometry" />
        </mxCell>
        <mxCell id="z9TPP-KX3KojEv2-6HrE-15" value="" style="ellipse;whiteSpace=wrap;html=1;aspect=fixed;" vertex="1" parent="z9TPP-KX3KojEv2-6HrE-1">
          <mxGeometry x="-560" y="570" width="60" height="60" as="geometry" />
        </mxCell>
        <mxCell id="z9TPP-KX3KojEv2-6HrE-16" style="edgeStyle=orthogonalEdgeStyle;rounded=0;orthogonalLoop=1;jettySize=auto;html=1;exitX=1;exitY=1;exitDx=0;exitDy=0;entryX=0.5;entryY=0;entryDx=0;entryDy=0;" edge="1" parent="z9TPP-KX3KojEv2-6HrE-1" source="z9TPP-KX3KojEv2-6HrE-18" target="z9TPP-KX3KojEv2-6HrE-19">
          <mxGeometry relative="1" as="geometry" />
        </mxCell>
        <mxCell id="z9TPP-KX3KojEv2-6HrE-17" style="edgeStyle=orthogonalEdgeStyle;rounded=0;orthogonalLoop=1;jettySize=auto;html=1;exitX=0;exitY=1;exitDx=0;exitDy=0;entryX=0.5;entryY=0;entryDx=0;entryDy=0;" edge="1" parent="z9TPP-KX3KojEv2-6HrE-1" source="z9TPP-KX3KojEv2-6HrE-18" target="z9TPP-KX3KojEv2-6HrE-20">
          <mxGeometry relative="1" as="geometry" />
        </mxCell>
        <mxCell id="z9TPP-KX3KojEv2-6HrE-18" value="" style="ellipse;whiteSpace=wrap;html=1;aspect=fixed;" vertex="1" parent="z9TPP-KX3KojEv2-6HrE-1">
          <mxGeometry x="-385" y="490" width="60" height="60" as="geometry" />
        </mxCell>
        <mxCell id="z9TPP-KX3KojEv2-6HrE-19" value="" style="ellipse;whiteSpace=wrap;html=1;aspect=fixed;" vertex="1" parent="z9TPP-KX3KojEv2-6HrE-1">
          <mxGeometry x="-315" y="570" width="60" height="60" as="geometry" />
        </mxCell>
        <mxCell id="z9TPP-KX3KojEv2-6HrE-20" value="" style="ellipse;whiteSpace=wrap;html=1;aspect=fixed;" vertex="1" parent="z9TPP-KX3KojEv2-6HrE-1">
          <mxGeometry x="-455" y="570" width="60" height="60" as="geometry" />
        </mxCell>
        <mxCell id="z9TPP-KX3KojEv2-6HrE-21" value="" style="ellipse;whiteSpace=wrap;html=1;aspect=fixed;" vertex="1" parent="z9TPP-KX3KojEv2-6HrE-1">
          <mxGeometry x="-740" y="570" width="60" height="60" as="geometry" />
        </mxCell>
        <mxCell id="z9TPP-KX3KojEv2-6HrE-22" style="edgeStyle=orthogonalEdgeStyle;rounded=0;orthogonalLoop=1;jettySize=auto;html=1;exitX=0;exitY=1;exitDx=0;exitDy=0;entryX=0.5;entryY=0;entryDx=0;entryDy=0;" edge="1" parent="z9TPP-KX3KojEv2-6HrE-1" source="z9TPP-KX3KojEv2-6HrE-24" target="z9TPP-KX3KojEv2-6HrE-27">
          <mxGeometry relative="1" as="geometry" />
        </mxCell>
        <mxCell id="z9TPP-KX3KojEv2-6HrE-23" style="edgeStyle=orthogonalEdgeStyle;rounded=0;orthogonalLoop=1;jettySize=auto;html=1;exitX=1;exitY=1;exitDx=0;exitDy=0;" edge="1" parent="z9TPP-KX3KojEv2-6HrE-1" source="z9TPP-KX3KojEv2-6HrE-24" target="z9TPP-KX3KojEv2-6HrE-29">
          <mxGeometry relative="1" as="geometry" />
        </mxCell>
        <mxCell id="z9TPP-KX3KojEv2-6HrE-24" value="" style="ellipse;whiteSpace=wrap;html=1;aspect=fixed;" vertex="1" parent="z9TPP-KX3KojEv2-6HrE-1">
          <mxGeometry x="-20" y="410" width="60" height="60" as="geometry" />
        </mxCell>
        <mxCell id="z9TPP-KX3KojEv2-6HrE-25" style="edgeStyle=orthogonalEdgeStyle;rounded=0;orthogonalLoop=1;jettySize=auto;html=1;exitX=1;exitY=1;exitDx=0;exitDy=0;entryX=0.5;entryY=0;entryDx=0;entryDy=0;" edge="1" parent="z9TPP-KX3KojEv2-6HrE-1" source="z9TPP-KX3KojEv2-6HrE-27" target="z9TPP-KX3KojEv2-6HrE-28">
          <mxGeometry relative="1" as="geometry" />
        </mxCell>
        <mxCell id="z9TPP-KX3KojEv2-6HrE-26" style="edgeStyle=orthogonalEdgeStyle;rounded=0;orthogonalLoop=1;jettySize=auto;html=1;exitX=0;exitY=1;exitDx=0;exitDy=0;entryX=0.5;entryY=0;entryDx=0;entryDy=0;" edge="1" parent="z9TPP-KX3KojEv2-6HrE-1" source="z9TPP-KX3KojEv2-6HrE-27" target="z9TPP-KX3KojEv2-6HrE-30">
          <mxGeometry relative="1" as="geometry" />
        </mxCell>
        <mxCell id="z9TPP-KX3KojEv2-6HrE-27" value="" style="ellipse;whiteSpace=wrap;html=1;aspect=fixed;" vertex="1" parent="z9TPP-KX3KojEv2-6HrE-1">
          <mxGeometry x="-150" y="490" width="60" height="60" as="geometry" />
        </mxCell>
        <mxCell id="z9TPP-KX3KojEv2-6HrE-28" value="" style="ellipse;whiteSpace=wrap;html=1;aspect=fixed;" vertex="1" parent="z9TPP-KX3KojEv2-6HrE-1">
          <mxGeometry x="-60" y="570" width="60" height="60" as="geometry" />
        </mxCell>
        <mxCell id="z9TPP-KX3KojEv2-6HrE-29" value="" style="ellipse;whiteSpace=wrap;html=1;aspect=fixed;" vertex="1" parent="z9TPP-KX3KojEv2-6HrE-1">
          <mxGeometry x="115" y="490" width="60" height="60" as="geometry" />
        </mxCell>
        <mxCell id="z9TPP-KX3KojEv2-6HrE-30" value="" style="ellipse;whiteSpace=wrap;html=1;aspect=fixed;" vertex="1" parent="z9TPP-KX3KojEv2-6HrE-1">
          <mxGeometry x="-240" y="570" width="60" height="60" as="geometry" />
        </mxCell>
        <mxCell id="z9TPP-KX3KojEv2-6HrE-31" style="edgeStyle=orthogonalEdgeStyle;rounded=0;orthogonalLoop=1;jettySize=auto;html=1;exitX=0;exitY=1;exitDx=0;exitDy=0;entryX=0.5;entryY=0;entryDx=0;entryDy=0;" edge="1" parent="z9TPP-KX3KojEv2-6HrE-1" source="z9TPP-KX3KojEv2-6HrE-33" target="z9TPP-KX3KojEv2-6HrE-36">
          <mxGeometry relative="1" as="geometry" />
        </mxCell>
        <mxCell id="z9TPP-KX3KojEv2-6HrE-32" style="edgeStyle=orthogonalEdgeStyle;rounded=0;orthogonalLoop=1;jettySize=auto;html=1;exitX=1;exitY=1;exitDx=0;exitDy=0;entryX=0.5;entryY=0;entryDx=0;entryDy=0;" edge="1" parent="z9TPP-KX3KojEv2-6HrE-1" source="z9TPP-KX3KojEv2-6HrE-33" target="z9TPP-KX3KojEv2-6HrE-41">
          <mxGeometry relative="1" as="geometry" />
        </mxCell>
        <mxCell id="z9TPP-KX3KojEv2-6HrE-33" value="2" style="ellipse;whiteSpace=wrap;html=1;aspect=fixed;" vertex="1" parent="z9TPP-KX3KojEv2-6HrE-1">
          <mxGeometry x="430" y="320" width="60" height="60" as="geometry" />
        </mxCell>
        <mxCell id="z9TPP-KX3KojEv2-6HrE-34" style="edgeStyle=orthogonalEdgeStyle;rounded=0;orthogonalLoop=1;jettySize=auto;html=1;exitX=0;exitY=1;exitDx=0;exitDy=0;entryX=0.5;entryY=0;entryDx=0;entryDy=0;" edge="1" parent="z9TPP-KX3KojEv2-6HrE-1" source="z9TPP-KX3KojEv2-6HrE-36" target="z9TPP-KX3KojEv2-6HrE-37">
          <mxGeometry relative="1" as="geometry" />
        </mxCell>
        <mxCell id="z9TPP-KX3KojEv2-6HrE-35" style="edgeStyle=orthogonalEdgeStyle;rounded=0;orthogonalLoop=1;jettySize=auto;html=1;exitX=1;exitY=1;exitDx=0;exitDy=0;" edge="1" parent="z9TPP-KX3KojEv2-6HrE-1" source="z9TPP-KX3KojEv2-6HrE-36" target="z9TPP-KX3KojEv2-6HrE-38">
          <mxGeometry relative="1" as="geometry" />
        </mxCell>
        <mxCell id="z9TPP-KX3KojEv2-6HrE-36" value="" style="ellipse;whiteSpace=wrap;html=1;aspect=fixed;" vertex="1" parent="z9TPP-KX3KojEv2-6HrE-1">
          <mxGeometry x="300" y="420" width="60" height="60" as="geometry" />
        </mxCell>
        <mxCell id="z9TPP-KX3KojEv2-6HrE-37" value="" style="ellipse;whiteSpace=wrap;html=1;aspect=fixed;" vertex="1" parent="z9TPP-KX3KojEv2-6HrE-1">
          <mxGeometry x="220" y="490" width="60" height="60" as="geometry" />
        </mxCell>
        <mxCell id="z9TPP-KX3KojEv2-6HrE-38" value="" style="ellipse;whiteSpace=wrap;html=1;aspect=fixed;" vertex="1" parent="z9TPP-KX3KojEv2-6HrE-1">
          <mxGeometry x="380" y="490" width="60" height="60" as="geometry" />
        </mxCell>
        <mxCell id="z9TPP-KX3KojEv2-6HrE-39" style="edgeStyle=orthogonalEdgeStyle;rounded=0;orthogonalLoop=1;jettySize=auto;html=1;exitX=0;exitY=1;exitDx=0;exitDy=0;entryX=0.5;entryY=0;entryDx=0;entryDy=0;" edge="1" parent="z9TPP-KX3KojEv2-6HrE-1" source="z9TPP-KX3KojEv2-6HrE-41" target="z9TPP-KX3KojEv2-6HrE-42">
          <mxGeometry relative="1" as="geometry" />
        </mxCell>
        <mxCell id="z9TPP-KX3KojEv2-6HrE-40" style="edgeStyle=orthogonalEdgeStyle;rounded=0;orthogonalLoop=1;jettySize=auto;html=1;exitX=1;exitY=1;exitDx=0;exitDy=0;" edge="1" parent="z9TPP-KX3KojEv2-6HrE-1" source="z9TPP-KX3KojEv2-6HrE-41" target="z9TPP-KX3KojEv2-6HrE-43">
          <mxGeometry relative="1" as="geometry" />
        </mxCell>
        <mxCell id="z9TPP-KX3KojEv2-6HrE-41" value="" style="ellipse;whiteSpace=wrap;html=1;aspect=fixed;" vertex="1" parent="z9TPP-KX3KojEv2-6HrE-1">
          <mxGeometry x="570" y="430" width="60" height="60" as="geometry" />
        </mxCell>
        <mxCell id="z9TPP-KX3KojEv2-6HrE-42" value="" style="ellipse;whiteSpace=wrap;html=1;aspect=fixed;" vertex="1" parent="z9TPP-KX3KojEv2-6HrE-1">
          <mxGeometry x="500" y="500" width="60" height="60" as="geometry" />
        </mxCell>
        <mxCell id="z9TPP-KX3KojEv2-6HrE-43" value="" style="ellipse;whiteSpace=wrap;html=1;aspect=fixed;" vertex="1" parent="z9TPP-KX3KojEv2-6HrE-1">
          <mxGeometry x="650" y="510" width="60" height="60" as="geometry" />
        </mxCell>
        <mxCell id="z9TPP-KX3KojEv2-6HrE-44" value="12 Elementos" style="text;html=1;align=center;verticalAlign=middle;resizable=0;points=[];autosize=1;strokeColor=none;fillColor=none;" vertex="1" parent="z9TPP-KX3KojEv2-6HrE-1">
          <mxGeometry x="190" y="50" width="100" height="30" as="geometry" />
        </mxCell>
      </root>
    </mxGraphModel>
  </diagram>
  <diagram name="5" id="fPo1Bq0zoCUfZ8phG2lh">
    <mxGraphModel dx="1834" dy="625" grid="1" gridSize="10" guides="1" tooltips="1" connect="1" arrows="1" fold="1" page="1" pageScale="1" pageWidth="850" pageHeight="1100" math="0" shadow="0">
      <root>
        <mxCell id="ExsYysWzziIN-_BFvT7J-0" />
        <mxCell id="ExsYysWzziIN-_BFvT7J-1" parent="ExsYysWzziIN-_BFvT7J-0" />
        <mxCell id="ExsYysWzziIN-_BFvT7J-2" value="&lt;p style=&quot;box-sizing: border-box; margin: 0px 0px 0.5em;&quot; id=&quot;yui_3_17_2_1_1711911896410_1316&quot;&gt;&lt;span style=&quot;box-sizing: border-box; font-size: 0.9375rem;&quot; id=&quot;yui_3_17_2_1_1711911896410_1315&quot;&gt;36,&amp;nbsp;&lt;/span&gt;&lt;span style=&quot;box-sizing: border-box; font-size: 0.9375rem;&quot;&gt;25,&amp;nbsp;&lt;/span&gt;&lt;span style=&quot;box-sizing: border-box; font-size: 0.9375rem;&quot;&gt;2,&amp;nbsp;&lt;/span&gt;&lt;span style=&quot;box-sizing: border-box; font-size: 0.9375rem;&quot;&gt;7,&amp;nbsp;&lt;/span&gt;&lt;span style=&quot;box-sizing: border-box; font-size: 0.9375rem;&quot;&gt;17,&amp;nbsp;&lt;/span&gt;&lt;span style=&quot;box-sizing: border-box; font-size: 0.9375rem;&quot;&gt;19,&amp;nbsp;&lt;/span&gt;&lt;span style=&quot;box-sizing: border-box; font-size: 0.9375rem;&quot;&gt;3,&amp;nbsp;&lt;/span&gt;&lt;span style=&quot;box-sizing: border-box; font-size: 0.9375rem;&quot;&gt;100,&amp;nbsp;&lt;/span&gt;&lt;span style=&quot;box-sizing: border-box; font-size: 0.9375rem;&quot;&gt;29,&amp;nbsp;&lt;/span&gt;&lt;span style=&quot;box-sizing: border-box; font-size: 0.9375rem;&quot;&gt;14,&amp;nbsp;&lt;/span&gt;&lt;span style=&quot;box-sizing: border-box; font-size: 0.9375rem;&quot;&gt;11,&amp;nbsp;&lt;/span&gt;&lt;span style=&quot;box-sizing: border-box; font-size: 0.9375rem;&quot;&gt;31&lt;/span&gt;&lt;/p&gt;" style="rounded=1;whiteSpace=wrap;html=1;" vertex="1" parent="ExsYysWzziIN-_BFvT7J-1">
          <mxGeometry x="-45" y="80" width="330" height="40" as="geometry" />
        </mxCell>
        <mxCell id="ExsYysWzziIN-_BFvT7J-3" style="edgeStyle=orthogonalEdgeStyle;rounded=0;orthogonalLoop=1;jettySize=auto;html=1;exitX=0;exitY=1;exitDx=0;exitDy=0;entryX=0.5;entryY=0;entryDx=0;entryDy=0;" edge="1" parent="ExsYysWzziIN-_BFvT7J-1" source="ExsYysWzziIN-_BFvT7J-5" target="ExsYysWzziIN-_BFvT7J-8">
          <mxGeometry relative="1" as="geometry" />
        </mxCell>
        <mxCell id="ExsYysWzziIN-_BFvT7J-4" style="edgeStyle=orthogonalEdgeStyle;rounded=0;orthogonalLoop=1;jettySize=auto;html=1;exitX=1;exitY=1;exitDx=0;exitDy=0;entryX=0.5;entryY=0;entryDx=0;entryDy=0;" edge="1" parent="ExsYysWzziIN-_BFvT7J-1" source="ExsYysWzziIN-_BFvT7J-5" target="ExsYysWzziIN-_BFvT7J-33">
          <mxGeometry relative="1" as="geometry" />
        </mxCell>
        <mxCell id="ExsYysWzziIN-_BFvT7J-5" value="36" style="ellipse;whiteSpace=wrap;html=1;aspect=fixed;" vertex="1" parent="ExsYysWzziIN-_BFvT7J-1">
          <mxGeometry x="90" y="160" width="60" height="60" as="geometry" />
        </mxCell>
        <mxCell id="ExsYysWzziIN-_BFvT7J-6" style="edgeStyle=orthogonalEdgeStyle;rounded=0;orthogonalLoop=1;jettySize=auto;html=1;exitX=0;exitY=1;exitDx=0;exitDy=0;entryX=0.5;entryY=0;entryDx=0;entryDy=0;" edge="1" parent="ExsYysWzziIN-_BFvT7J-1" source="ExsYysWzziIN-_BFvT7J-8" target="ExsYysWzziIN-_BFvT7J-11">
          <mxGeometry relative="1" as="geometry" />
        </mxCell>
        <mxCell id="ExsYysWzziIN-_BFvT7J-7" style="edgeStyle=orthogonalEdgeStyle;rounded=0;orthogonalLoop=1;jettySize=auto;html=1;exitX=1;exitY=1;exitDx=0;exitDy=0;entryX=0.5;entryY=0;entryDx=0;entryDy=0;" edge="1" parent="ExsYysWzziIN-_BFvT7J-1" source="ExsYysWzziIN-_BFvT7J-8" target="ExsYysWzziIN-_BFvT7J-24">
          <mxGeometry relative="1" as="geometry" />
        </mxCell>
        <mxCell id="ExsYysWzziIN-_BFvT7J-8" value="25" style="ellipse;whiteSpace=wrap;html=1;aspect=fixed;" vertex="1" parent="ExsYysWzziIN-_BFvT7J-1">
          <mxGeometry x="-280" y="320" width="60" height="60" as="geometry" />
        </mxCell>
        <mxCell id="ExsYysWzziIN-_BFvT7J-9" style="edgeStyle=orthogonalEdgeStyle;rounded=0;orthogonalLoop=1;jettySize=auto;html=1;exitX=0;exitY=1;exitDx=0;exitDy=0;entryX=0.5;entryY=0;entryDx=0;entryDy=0;" edge="1" parent="ExsYysWzziIN-_BFvT7J-1" source="ExsYysWzziIN-_BFvT7J-11" target="ExsYysWzziIN-_BFvT7J-14">
          <mxGeometry relative="1" as="geometry" />
        </mxCell>
        <mxCell id="ExsYysWzziIN-_BFvT7J-10" style="edgeStyle=orthogonalEdgeStyle;rounded=0;orthogonalLoop=1;jettySize=auto;html=1;exitX=1;exitY=1;exitDx=0;exitDy=0;" edge="1" parent="ExsYysWzziIN-_BFvT7J-1" source="ExsYysWzziIN-_BFvT7J-11" target="ExsYysWzziIN-_BFvT7J-18">
          <mxGeometry relative="1" as="geometry" />
        </mxCell>
        <mxCell id="ExsYysWzziIN-_BFvT7J-11" value="7" style="ellipse;whiteSpace=wrap;html=1;aspect=fixed;" vertex="1" parent="ExsYysWzziIN-_BFvT7J-1">
          <mxGeometry x="-520" y="410" width="60" height="60" as="geometry" />
        </mxCell>
        <mxCell id="ExsYysWzziIN-_BFvT7J-12" style="edgeStyle=orthogonalEdgeStyle;rounded=0;orthogonalLoop=1;jettySize=auto;html=1;exitX=1;exitY=1;exitDx=0;exitDy=0;entryX=0.5;entryY=0;entryDx=0;entryDy=0;" edge="1" parent="ExsYysWzziIN-_BFvT7J-1" source="ExsYysWzziIN-_BFvT7J-14" target="ExsYysWzziIN-_BFvT7J-15">
          <mxGeometry relative="1" as="geometry" />
        </mxCell>
        <mxCell id="ExsYysWzziIN-_BFvT7J-13" style="edgeStyle=orthogonalEdgeStyle;rounded=0;orthogonalLoop=1;jettySize=auto;html=1;exitX=0;exitY=1;exitDx=0;exitDy=0;entryX=0.5;entryY=0;entryDx=0;entryDy=0;" edge="1" parent="ExsYysWzziIN-_BFvT7J-1" source="ExsYysWzziIN-_BFvT7J-14" target="ExsYysWzziIN-_BFvT7J-21">
          <mxGeometry relative="1" as="geometry" />
        </mxCell>
        <mxCell id="ExsYysWzziIN-_BFvT7J-14" value="" style="ellipse;whiteSpace=wrap;html=1;aspect=fixed;" vertex="1" parent="ExsYysWzziIN-_BFvT7J-1">
          <mxGeometry x="-650" y="490" width="60" height="60" as="geometry" />
        </mxCell>
        <mxCell id="ExsYysWzziIN-_BFvT7J-15" value="" style="ellipse;whiteSpace=wrap;html=1;aspect=fixed;" vertex="1" parent="ExsYysWzziIN-_BFvT7J-1">
          <mxGeometry x="-560" y="570" width="60" height="60" as="geometry" />
        </mxCell>
        <mxCell id="ExsYysWzziIN-_BFvT7J-16" style="edgeStyle=orthogonalEdgeStyle;rounded=0;orthogonalLoop=1;jettySize=auto;html=1;exitX=1;exitY=1;exitDx=0;exitDy=0;entryX=0.5;entryY=0;entryDx=0;entryDy=0;" edge="1" parent="ExsYysWzziIN-_BFvT7J-1" source="ExsYysWzziIN-_BFvT7J-18" target="ExsYysWzziIN-_BFvT7J-19">
          <mxGeometry relative="1" as="geometry" />
        </mxCell>
        <mxCell id="ExsYysWzziIN-_BFvT7J-17" style="edgeStyle=orthogonalEdgeStyle;rounded=0;orthogonalLoop=1;jettySize=auto;html=1;exitX=0;exitY=1;exitDx=0;exitDy=0;entryX=0.5;entryY=0;entryDx=0;entryDy=0;" edge="1" parent="ExsYysWzziIN-_BFvT7J-1" source="ExsYysWzziIN-_BFvT7J-18" target="ExsYysWzziIN-_BFvT7J-20">
          <mxGeometry relative="1" as="geometry" />
        </mxCell>
        <mxCell id="ExsYysWzziIN-_BFvT7J-18" value="" style="ellipse;whiteSpace=wrap;html=1;aspect=fixed;" vertex="1" parent="ExsYysWzziIN-_BFvT7J-1">
          <mxGeometry x="-385" y="490" width="60" height="60" as="geometry" />
        </mxCell>
        <mxCell id="ExsYysWzziIN-_BFvT7J-19" value="" style="ellipse;whiteSpace=wrap;html=1;aspect=fixed;" vertex="1" parent="ExsYysWzziIN-_BFvT7J-1">
          <mxGeometry x="-315" y="570" width="60" height="60" as="geometry" />
        </mxCell>
        <mxCell id="ExsYysWzziIN-_BFvT7J-20" value="" style="ellipse;whiteSpace=wrap;html=1;aspect=fixed;" vertex="1" parent="ExsYysWzziIN-_BFvT7J-1">
          <mxGeometry x="-455" y="570" width="60" height="60" as="geometry" />
        </mxCell>
        <mxCell id="ExsYysWzziIN-_BFvT7J-21" value="" style="ellipse;whiteSpace=wrap;html=1;aspect=fixed;" vertex="1" parent="ExsYysWzziIN-_BFvT7J-1">
          <mxGeometry x="-740" y="570" width="60" height="60" as="geometry" />
        </mxCell>
        <mxCell id="ExsYysWzziIN-_BFvT7J-22" style="edgeStyle=orthogonalEdgeStyle;rounded=0;orthogonalLoop=1;jettySize=auto;html=1;exitX=0;exitY=1;exitDx=0;exitDy=0;entryX=0.5;entryY=0;entryDx=0;entryDy=0;" edge="1" parent="ExsYysWzziIN-_BFvT7J-1" source="ExsYysWzziIN-_BFvT7J-24" target="ExsYysWzziIN-_BFvT7J-27">
          <mxGeometry relative="1" as="geometry" />
        </mxCell>
        <mxCell id="ExsYysWzziIN-_BFvT7J-23" style="edgeStyle=orthogonalEdgeStyle;rounded=0;orthogonalLoop=1;jettySize=auto;html=1;exitX=1;exitY=1;exitDx=0;exitDy=0;" edge="1" parent="ExsYysWzziIN-_BFvT7J-1" source="ExsYysWzziIN-_BFvT7J-24" target="ExsYysWzziIN-_BFvT7J-29">
          <mxGeometry relative="1" as="geometry" />
        </mxCell>
        <mxCell id="ExsYysWzziIN-_BFvT7J-24" value="17" style="ellipse;whiteSpace=wrap;html=1;aspect=fixed;fillColor=#dae8fc;strokeColor=#6c8ebf;" vertex="1" parent="ExsYysWzziIN-_BFvT7J-1">
          <mxGeometry x="-20" y="410" width="60" height="60" as="geometry" />
        </mxCell>
        <mxCell id="ExsYysWzziIN-_BFvT7J-25" style="edgeStyle=orthogonalEdgeStyle;rounded=0;orthogonalLoop=1;jettySize=auto;html=1;exitX=1;exitY=1;exitDx=0;exitDy=0;entryX=0.5;entryY=0;entryDx=0;entryDy=0;" edge="1" parent="ExsYysWzziIN-_BFvT7J-1" source="ExsYysWzziIN-_BFvT7J-27" target="ExsYysWzziIN-_BFvT7J-28">
          <mxGeometry relative="1" as="geometry" />
        </mxCell>
        <mxCell id="ExsYysWzziIN-_BFvT7J-26" style="edgeStyle=orthogonalEdgeStyle;rounded=0;orthogonalLoop=1;jettySize=auto;html=1;exitX=0;exitY=1;exitDx=0;exitDy=0;entryX=0.5;entryY=0;entryDx=0;entryDy=0;" edge="1" parent="ExsYysWzziIN-_BFvT7J-1" source="ExsYysWzziIN-_BFvT7J-27" target="ExsYysWzziIN-_BFvT7J-30">
          <mxGeometry relative="1" as="geometry" />
        </mxCell>
        <mxCell id="ExsYysWzziIN-_BFvT7J-27" value="" style="ellipse;whiteSpace=wrap;html=1;aspect=fixed;" vertex="1" parent="ExsYysWzziIN-_BFvT7J-1">
          <mxGeometry x="-150" y="490" width="60" height="60" as="geometry" />
        </mxCell>
        <mxCell id="ExsYysWzziIN-_BFvT7J-28" value="" style="ellipse;whiteSpace=wrap;html=1;aspect=fixed;" vertex="1" parent="ExsYysWzziIN-_BFvT7J-1">
          <mxGeometry x="-60" y="570" width="60" height="60" as="geometry" />
        </mxCell>
        <mxCell id="ExsYysWzziIN-_BFvT7J-29" value="" style="ellipse;whiteSpace=wrap;html=1;aspect=fixed;" vertex="1" parent="ExsYysWzziIN-_BFvT7J-1">
          <mxGeometry x="115" y="490" width="60" height="60" as="geometry" />
        </mxCell>
        <mxCell id="ExsYysWzziIN-_BFvT7J-30" value="" style="ellipse;whiteSpace=wrap;html=1;aspect=fixed;" vertex="1" parent="ExsYysWzziIN-_BFvT7J-1">
          <mxGeometry x="-240" y="570" width="60" height="60" as="geometry" />
        </mxCell>
        <mxCell id="ExsYysWzziIN-_BFvT7J-31" style="edgeStyle=orthogonalEdgeStyle;rounded=0;orthogonalLoop=1;jettySize=auto;html=1;exitX=0;exitY=1;exitDx=0;exitDy=0;entryX=0.5;entryY=0;entryDx=0;entryDy=0;" edge="1" parent="ExsYysWzziIN-_BFvT7J-1" source="ExsYysWzziIN-_BFvT7J-33" target="ExsYysWzziIN-_BFvT7J-36">
          <mxGeometry relative="1" as="geometry" />
        </mxCell>
        <mxCell id="ExsYysWzziIN-_BFvT7J-32" style="edgeStyle=orthogonalEdgeStyle;rounded=0;orthogonalLoop=1;jettySize=auto;html=1;exitX=1;exitY=1;exitDx=0;exitDy=0;entryX=0.5;entryY=0;entryDx=0;entryDy=0;" edge="1" parent="ExsYysWzziIN-_BFvT7J-1" source="ExsYysWzziIN-_BFvT7J-33" target="ExsYysWzziIN-_BFvT7J-41">
          <mxGeometry relative="1" as="geometry" />
        </mxCell>
        <mxCell id="ExsYysWzziIN-_BFvT7J-33" value="2" style="ellipse;whiteSpace=wrap;html=1;aspect=fixed;" vertex="1" parent="ExsYysWzziIN-_BFvT7J-1">
          <mxGeometry x="430" y="320" width="60" height="60" as="geometry" />
        </mxCell>
        <mxCell id="ExsYysWzziIN-_BFvT7J-34" style="edgeStyle=orthogonalEdgeStyle;rounded=0;orthogonalLoop=1;jettySize=auto;html=1;exitX=0;exitY=1;exitDx=0;exitDy=0;entryX=0.5;entryY=0;entryDx=0;entryDy=0;" edge="1" parent="ExsYysWzziIN-_BFvT7J-1" source="ExsYysWzziIN-_BFvT7J-36" target="ExsYysWzziIN-_BFvT7J-37">
          <mxGeometry relative="1" as="geometry" />
        </mxCell>
        <mxCell id="ExsYysWzziIN-_BFvT7J-35" style="edgeStyle=orthogonalEdgeStyle;rounded=0;orthogonalLoop=1;jettySize=auto;html=1;exitX=1;exitY=1;exitDx=0;exitDy=0;" edge="1" parent="ExsYysWzziIN-_BFvT7J-1" source="ExsYysWzziIN-_BFvT7J-36" target="ExsYysWzziIN-_BFvT7J-38">
          <mxGeometry relative="1" as="geometry" />
        </mxCell>
        <mxCell id="ExsYysWzziIN-_BFvT7J-36" value="" style="ellipse;whiteSpace=wrap;html=1;aspect=fixed;" vertex="1" parent="ExsYysWzziIN-_BFvT7J-1">
          <mxGeometry x="300" y="420" width="60" height="60" as="geometry" />
        </mxCell>
        <mxCell id="ExsYysWzziIN-_BFvT7J-37" value="" style="ellipse;whiteSpace=wrap;html=1;aspect=fixed;" vertex="1" parent="ExsYysWzziIN-_BFvT7J-1">
          <mxGeometry x="220" y="490" width="60" height="60" as="geometry" />
        </mxCell>
        <mxCell id="ExsYysWzziIN-_BFvT7J-38" value="" style="ellipse;whiteSpace=wrap;html=1;aspect=fixed;" vertex="1" parent="ExsYysWzziIN-_BFvT7J-1">
          <mxGeometry x="380" y="490" width="60" height="60" as="geometry" />
        </mxCell>
        <mxCell id="ExsYysWzziIN-_BFvT7J-39" style="edgeStyle=orthogonalEdgeStyle;rounded=0;orthogonalLoop=1;jettySize=auto;html=1;exitX=0;exitY=1;exitDx=0;exitDy=0;entryX=0.5;entryY=0;entryDx=0;entryDy=0;" edge="1" parent="ExsYysWzziIN-_BFvT7J-1" source="ExsYysWzziIN-_BFvT7J-41" target="ExsYysWzziIN-_BFvT7J-42">
          <mxGeometry relative="1" as="geometry" />
        </mxCell>
        <mxCell id="ExsYysWzziIN-_BFvT7J-40" style="edgeStyle=orthogonalEdgeStyle;rounded=0;orthogonalLoop=1;jettySize=auto;html=1;exitX=1;exitY=1;exitDx=0;exitDy=0;" edge="1" parent="ExsYysWzziIN-_BFvT7J-1" source="ExsYysWzziIN-_BFvT7J-41" target="ExsYysWzziIN-_BFvT7J-43">
          <mxGeometry relative="1" as="geometry" />
        </mxCell>
        <mxCell id="ExsYysWzziIN-_BFvT7J-41" value="" style="ellipse;whiteSpace=wrap;html=1;aspect=fixed;" vertex="1" parent="ExsYysWzziIN-_BFvT7J-1">
          <mxGeometry x="570" y="430" width="60" height="60" as="geometry" />
        </mxCell>
        <mxCell id="ExsYysWzziIN-_BFvT7J-42" value="" style="ellipse;whiteSpace=wrap;html=1;aspect=fixed;" vertex="1" parent="ExsYysWzziIN-_BFvT7J-1">
          <mxGeometry x="500" y="500" width="60" height="60" as="geometry" />
        </mxCell>
        <mxCell id="ExsYysWzziIN-_BFvT7J-43" value="" style="ellipse;whiteSpace=wrap;html=1;aspect=fixed;" vertex="1" parent="ExsYysWzziIN-_BFvT7J-1">
          <mxGeometry x="650" y="510" width="60" height="60" as="geometry" />
        </mxCell>
        <mxCell id="ExsYysWzziIN-_BFvT7J-44" value="12 Elementos" style="text;html=1;align=center;verticalAlign=middle;resizable=0;points=[];autosize=1;strokeColor=none;fillColor=none;" vertex="1" parent="ExsYysWzziIN-_BFvT7J-1">
          <mxGeometry x="190" y="50" width="100" height="30" as="geometry" />
        </mxCell>
      </root>
    </mxGraphModel>
  </diagram>
  <diagram name="6" id="--wMTNXV6BtIb_4k9Woo">
    <mxGraphModel dx="1793" dy="579" grid="1" gridSize="10" guides="1" tooltips="1" connect="1" arrows="1" fold="1" page="1" pageScale="1" pageWidth="850" pageHeight="1100" math="0" shadow="0">
      <root>
        <mxCell id="WNQPfLpNuPYUzKWRvsH8-0" />
        <mxCell id="WNQPfLpNuPYUzKWRvsH8-1" parent="WNQPfLpNuPYUzKWRvsH8-0" />
        <mxCell id="WNQPfLpNuPYUzKWRvsH8-2" value="&lt;p style=&quot;box-sizing: border-box; margin: 0px 0px 0.5em;&quot; id=&quot;yui_3_17_2_1_1711911896410_1316&quot;&gt;&lt;span style=&quot;box-sizing: border-box; font-size: 0.9375rem;&quot; id=&quot;yui_3_17_2_1_1711911896410_1315&quot;&gt;36,&amp;nbsp;&lt;/span&gt;&lt;span style=&quot;box-sizing: border-box; font-size: 0.9375rem;&quot;&gt;25,&amp;nbsp;&lt;/span&gt;&lt;span style=&quot;box-sizing: border-box; font-size: 0.9375rem;&quot;&gt;2,&amp;nbsp;&lt;/span&gt;&lt;span style=&quot;box-sizing: border-box; font-size: 0.9375rem;&quot;&gt;7,&amp;nbsp;&lt;/span&gt;&lt;span style=&quot;box-sizing: border-box; font-size: 0.9375rem;&quot;&gt;17,&amp;nbsp;&lt;/span&gt;&lt;span style=&quot;box-sizing: border-box; font-size: 0.9375rem;&quot;&gt;19,&amp;nbsp;&lt;/span&gt;&lt;span style=&quot;box-sizing: border-box; font-size: 0.9375rem;&quot;&gt;3,&amp;nbsp;&lt;/span&gt;&lt;span style=&quot;box-sizing: border-box; font-size: 0.9375rem;&quot;&gt;100,&amp;nbsp;&lt;/span&gt;&lt;span style=&quot;box-sizing: border-box; font-size: 0.9375rem;&quot;&gt;29,&amp;nbsp;&lt;/span&gt;&lt;span style=&quot;box-sizing: border-box; font-size: 0.9375rem;&quot;&gt;14,&amp;nbsp;&lt;/span&gt;&lt;span style=&quot;box-sizing: border-box; font-size: 0.9375rem;&quot;&gt;11,&amp;nbsp;&lt;/span&gt;&lt;span style=&quot;box-sizing: border-box; font-size: 0.9375rem;&quot;&gt;31&lt;/span&gt;&lt;/p&gt;" style="rounded=1;whiteSpace=wrap;html=1;" vertex="1" parent="WNQPfLpNuPYUzKWRvsH8-1">
          <mxGeometry x="-45" y="80" width="330" height="40" as="geometry" />
        </mxCell>
        <mxCell id="WNQPfLpNuPYUzKWRvsH8-3" style="edgeStyle=orthogonalEdgeStyle;rounded=0;orthogonalLoop=1;jettySize=auto;html=1;exitX=0;exitY=1;exitDx=0;exitDy=0;entryX=0.5;entryY=0;entryDx=0;entryDy=0;" edge="1" parent="WNQPfLpNuPYUzKWRvsH8-1" source="WNQPfLpNuPYUzKWRvsH8-5" target="WNQPfLpNuPYUzKWRvsH8-8">
          <mxGeometry relative="1" as="geometry" />
        </mxCell>
        <mxCell id="WNQPfLpNuPYUzKWRvsH8-4" style="edgeStyle=orthogonalEdgeStyle;rounded=0;orthogonalLoop=1;jettySize=auto;html=1;exitX=1;exitY=1;exitDx=0;exitDy=0;entryX=0.5;entryY=0;entryDx=0;entryDy=0;" edge="1" parent="WNQPfLpNuPYUzKWRvsH8-1" source="WNQPfLpNuPYUzKWRvsH8-5" target="WNQPfLpNuPYUzKWRvsH8-33">
          <mxGeometry relative="1" as="geometry" />
        </mxCell>
        <mxCell id="WNQPfLpNuPYUzKWRvsH8-5" value="36" style="ellipse;whiteSpace=wrap;html=1;aspect=fixed;" vertex="1" parent="WNQPfLpNuPYUzKWRvsH8-1">
          <mxGeometry x="90" y="160" width="60" height="60" as="geometry" />
        </mxCell>
        <mxCell id="WNQPfLpNuPYUzKWRvsH8-6" style="edgeStyle=orthogonalEdgeStyle;rounded=0;orthogonalLoop=1;jettySize=auto;html=1;exitX=0;exitY=1;exitDx=0;exitDy=0;entryX=0.5;entryY=0;entryDx=0;entryDy=0;" edge="1" parent="WNQPfLpNuPYUzKWRvsH8-1" source="WNQPfLpNuPYUzKWRvsH8-8" target="WNQPfLpNuPYUzKWRvsH8-11">
          <mxGeometry relative="1" as="geometry" />
        </mxCell>
        <mxCell id="WNQPfLpNuPYUzKWRvsH8-7" style="edgeStyle=orthogonalEdgeStyle;rounded=0;orthogonalLoop=1;jettySize=auto;html=1;exitX=1;exitY=1;exitDx=0;exitDy=0;entryX=0.5;entryY=0;entryDx=0;entryDy=0;" edge="1" parent="WNQPfLpNuPYUzKWRvsH8-1" source="WNQPfLpNuPYUzKWRvsH8-8" target="WNQPfLpNuPYUzKWRvsH8-24">
          <mxGeometry relative="1" as="geometry" />
        </mxCell>
        <mxCell id="WNQPfLpNuPYUzKWRvsH8-8" value="25" style="ellipse;whiteSpace=wrap;html=1;aspect=fixed;" vertex="1" parent="WNQPfLpNuPYUzKWRvsH8-1">
          <mxGeometry x="-280" y="320" width="60" height="60" as="geometry" />
        </mxCell>
        <mxCell id="WNQPfLpNuPYUzKWRvsH8-9" style="edgeStyle=orthogonalEdgeStyle;rounded=0;orthogonalLoop=1;jettySize=auto;html=1;exitX=0;exitY=1;exitDx=0;exitDy=0;entryX=0.5;entryY=0;entryDx=0;entryDy=0;" edge="1" parent="WNQPfLpNuPYUzKWRvsH8-1" source="WNQPfLpNuPYUzKWRvsH8-11" target="WNQPfLpNuPYUzKWRvsH8-14">
          <mxGeometry relative="1" as="geometry" />
        </mxCell>
        <mxCell id="WNQPfLpNuPYUzKWRvsH8-10" style="edgeStyle=orthogonalEdgeStyle;rounded=0;orthogonalLoop=1;jettySize=auto;html=1;exitX=1;exitY=1;exitDx=0;exitDy=0;" edge="1" parent="WNQPfLpNuPYUzKWRvsH8-1" source="WNQPfLpNuPYUzKWRvsH8-11" target="WNQPfLpNuPYUzKWRvsH8-18">
          <mxGeometry relative="1" as="geometry" />
        </mxCell>
        <mxCell id="WNQPfLpNuPYUzKWRvsH8-11" value="7" style="ellipse;whiteSpace=wrap;html=1;aspect=fixed;" vertex="1" parent="WNQPfLpNuPYUzKWRvsH8-1">
          <mxGeometry x="-520" y="410" width="60" height="60" as="geometry" />
        </mxCell>
        <mxCell id="WNQPfLpNuPYUzKWRvsH8-12" style="edgeStyle=orthogonalEdgeStyle;rounded=0;orthogonalLoop=1;jettySize=auto;html=1;exitX=1;exitY=1;exitDx=0;exitDy=0;entryX=0.5;entryY=0;entryDx=0;entryDy=0;" edge="1" parent="WNQPfLpNuPYUzKWRvsH8-1" source="WNQPfLpNuPYUzKWRvsH8-14" target="WNQPfLpNuPYUzKWRvsH8-15">
          <mxGeometry relative="1" as="geometry" />
        </mxCell>
        <mxCell id="WNQPfLpNuPYUzKWRvsH8-13" style="edgeStyle=orthogonalEdgeStyle;rounded=0;orthogonalLoop=1;jettySize=auto;html=1;exitX=0;exitY=1;exitDx=0;exitDy=0;entryX=0.5;entryY=0;entryDx=0;entryDy=0;" edge="1" parent="WNQPfLpNuPYUzKWRvsH8-1" source="WNQPfLpNuPYUzKWRvsH8-14" target="WNQPfLpNuPYUzKWRvsH8-21">
          <mxGeometry relative="1" as="geometry" />
        </mxCell>
        <mxCell id="WNQPfLpNuPYUzKWRvsH8-14" value="" style="ellipse;whiteSpace=wrap;html=1;aspect=fixed;" vertex="1" parent="WNQPfLpNuPYUzKWRvsH8-1">
          <mxGeometry x="-650" y="490" width="60" height="60" as="geometry" />
        </mxCell>
        <mxCell id="WNQPfLpNuPYUzKWRvsH8-15" value="" style="ellipse;whiteSpace=wrap;html=1;aspect=fixed;" vertex="1" parent="WNQPfLpNuPYUzKWRvsH8-1">
          <mxGeometry x="-560" y="570" width="60" height="60" as="geometry" />
        </mxCell>
        <mxCell id="WNQPfLpNuPYUzKWRvsH8-16" style="edgeStyle=orthogonalEdgeStyle;rounded=0;orthogonalLoop=1;jettySize=auto;html=1;exitX=1;exitY=1;exitDx=0;exitDy=0;entryX=0.5;entryY=0;entryDx=0;entryDy=0;" edge="1" parent="WNQPfLpNuPYUzKWRvsH8-1" source="WNQPfLpNuPYUzKWRvsH8-18" target="WNQPfLpNuPYUzKWRvsH8-19">
          <mxGeometry relative="1" as="geometry" />
        </mxCell>
        <mxCell id="WNQPfLpNuPYUzKWRvsH8-17" style="edgeStyle=orthogonalEdgeStyle;rounded=0;orthogonalLoop=1;jettySize=auto;html=1;exitX=0;exitY=1;exitDx=0;exitDy=0;entryX=0.5;entryY=0;entryDx=0;entryDy=0;" edge="1" parent="WNQPfLpNuPYUzKWRvsH8-1" source="WNQPfLpNuPYUzKWRvsH8-18" target="WNQPfLpNuPYUzKWRvsH8-20">
          <mxGeometry relative="1" as="geometry" />
        </mxCell>
        <mxCell id="WNQPfLpNuPYUzKWRvsH8-18" value="" style="ellipse;whiteSpace=wrap;html=1;aspect=fixed;" vertex="1" parent="WNQPfLpNuPYUzKWRvsH8-1">
          <mxGeometry x="-385" y="490" width="60" height="60" as="geometry" />
        </mxCell>
        <mxCell id="WNQPfLpNuPYUzKWRvsH8-19" value="" style="ellipse;whiteSpace=wrap;html=1;aspect=fixed;" vertex="1" parent="WNQPfLpNuPYUzKWRvsH8-1">
          <mxGeometry x="-315" y="570" width="60" height="60" as="geometry" />
        </mxCell>
        <mxCell id="WNQPfLpNuPYUzKWRvsH8-20" value="" style="ellipse;whiteSpace=wrap;html=1;aspect=fixed;" vertex="1" parent="WNQPfLpNuPYUzKWRvsH8-1">
          <mxGeometry x="-455" y="570" width="60" height="60" as="geometry" />
        </mxCell>
        <mxCell id="WNQPfLpNuPYUzKWRvsH8-21" value="" style="ellipse;whiteSpace=wrap;html=1;aspect=fixed;" vertex="1" parent="WNQPfLpNuPYUzKWRvsH8-1">
          <mxGeometry x="-740" y="570" width="60" height="60" as="geometry" />
        </mxCell>
        <mxCell id="WNQPfLpNuPYUzKWRvsH8-22" style="edgeStyle=orthogonalEdgeStyle;rounded=0;orthogonalLoop=1;jettySize=auto;html=1;exitX=0;exitY=1;exitDx=0;exitDy=0;entryX=0.5;entryY=0;entryDx=0;entryDy=0;" edge="1" parent="WNQPfLpNuPYUzKWRvsH8-1" source="WNQPfLpNuPYUzKWRvsH8-24" target="WNQPfLpNuPYUzKWRvsH8-27">
          <mxGeometry relative="1" as="geometry" />
        </mxCell>
        <mxCell id="WNQPfLpNuPYUzKWRvsH8-23" style="edgeStyle=orthogonalEdgeStyle;rounded=0;orthogonalLoop=1;jettySize=auto;html=1;exitX=1;exitY=1;exitDx=0;exitDy=0;" edge="1" parent="WNQPfLpNuPYUzKWRvsH8-1" source="WNQPfLpNuPYUzKWRvsH8-24" target="WNQPfLpNuPYUzKWRvsH8-29">
          <mxGeometry relative="1" as="geometry" />
        </mxCell>
        <mxCell id="WNQPfLpNuPYUzKWRvsH8-24" value="17" style="ellipse;whiteSpace=wrap;html=1;aspect=fixed;" vertex="1" parent="WNQPfLpNuPYUzKWRvsH8-1">
          <mxGeometry x="-20" y="410" width="60" height="60" as="geometry" />
        </mxCell>
        <mxCell id="WNQPfLpNuPYUzKWRvsH8-25" style="edgeStyle=orthogonalEdgeStyle;rounded=0;orthogonalLoop=1;jettySize=auto;html=1;exitX=1;exitY=1;exitDx=0;exitDy=0;entryX=0.5;entryY=0;entryDx=0;entryDy=0;" edge="1" parent="WNQPfLpNuPYUzKWRvsH8-1" source="WNQPfLpNuPYUzKWRvsH8-27" target="WNQPfLpNuPYUzKWRvsH8-28">
          <mxGeometry relative="1" as="geometry" />
        </mxCell>
        <mxCell id="WNQPfLpNuPYUzKWRvsH8-26" style="edgeStyle=orthogonalEdgeStyle;rounded=0;orthogonalLoop=1;jettySize=auto;html=1;exitX=0;exitY=1;exitDx=0;exitDy=0;entryX=0.5;entryY=0;entryDx=0;entryDy=0;" edge="1" parent="WNQPfLpNuPYUzKWRvsH8-1" source="WNQPfLpNuPYUzKWRvsH8-27" target="WNQPfLpNuPYUzKWRvsH8-30">
          <mxGeometry relative="1" as="geometry" />
        </mxCell>
        <mxCell id="WNQPfLpNuPYUzKWRvsH8-27" value="" style="ellipse;whiteSpace=wrap;html=1;aspect=fixed;" vertex="1" parent="WNQPfLpNuPYUzKWRvsH8-1">
          <mxGeometry x="-150" y="490" width="60" height="60" as="geometry" />
        </mxCell>
        <mxCell id="WNQPfLpNuPYUzKWRvsH8-28" value="" style="ellipse;whiteSpace=wrap;html=1;aspect=fixed;" vertex="1" parent="WNQPfLpNuPYUzKWRvsH8-1">
          <mxGeometry x="-60" y="570" width="60" height="60" as="geometry" />
        </mxCell>
        <mxCell id="WNQPfLpNuPYUzKWRvsH8-29" value="" style="ellipse;whiteSpace=wrap;html=1;aspect=fixed;" vertex="1" parent="WNQPfLpNuPYUzKWRvsH8-1">
          <mxGeometry x="115" y="490" width="60" height="60" as="geometry" />
        </mxCell>
        <mxCell id="WNQPfLpNuPYUzKWRvsH8-30" value="" style="ellipse;whiteSpace=wrap;html=1;aspect=fixed;" vertex="1" parent="WNQPfLpNuPYUzKWRvsH8-1">
          <mxGeometry x="-240" y="570" width="60" height="60" as="geometry" />
        </mxCell>
        <mxCell id="WNQPfLpNuPYUzKWRvsH8-31" style="edgeStyle=orthogonalEdgeStyle;rounded=0;orthogonalLoop=1;jettySize=auto;html=1;exitX=0;exitY=1;exitDx=0;exitDy=0;entryX=0.5;entryY=0;entryDx=0;entryDy=0;" edge="1" parent="WNQPfLpNuPYUzKWRvsH8-1" source="WNQPfLpNuPYUzKWRvsH8-33" target="WNQPfLpNuPYUzKWRvsH8-36">
          <mxGeometry relative="1" as="geometry" />
        </mxCell>
        <mxCell id="WNQPfLpNuPYUzKWRvsH8-32" style="edgeStyle=orthogonalEdgeStyle;rounded=0;orthogonalLoop=1;jettySize=auto;html=1;exitX=1;exitY=1;exitDx=0;exitDy=0;entryX=0.5;entryY=0;entryDx=0;entryDy=0;" edge="1" parent="WNQPfLpNuPYUzKWRvsH8-1" source="WNQPfLpNuPYUzKWRvsH8-33" target="WNQPfLpNuPYUzKWRvsH8-41">
          <mxGeometry relative="1" as="geometry" />
        </mxCell>
        <mxCell id="WNQPfLpNuPYUzKWRvsH8-33" value="19" style="ellipse;whiteSpace=wrap;html=1;aspect=fixed;fillColor=#dae8fc;strokeColor=#6c8ebf;" vertex="1" parent="WNQPfLpNuPYUzKWRvsH8-1">
          <mxGeometry x="430" y="320" width="60" height="60" as="geometry" />
        </mxCell>
        <mxCell id="WNQPfLpNuPYUzKWRvsH8-34" style="edgeStyle=orthogonalEdgeStyle;rounded=0;orthogonalLoop=1;jettySize=auto;html=1;exitX=0;exitY=1;exitDx=0;exitDy=0;entryX=0.5;entryY=0;entryDx=0;entryDy=0;" edge="1" parent="WNQPfLpNuPYUzKWRvsH8-1" source="WNQPfLpNuPYUzKWRvsH8-36" target="WNQPfLpNuPYUzKWRvsH8-37">
          <mxGeometry relative="1" as="geometry" />
        </mxCell>
        <mxCell id="WNQPfLpNuPYUzKWRvsH8-35" style="edgeStyle=orthogonalEdgeStyle;rounded=0;orthogonalLoop=1;jettySize=auto;html=1;exitX=1;exitY=1;exitDx=0;exitDy=0;" edge="1" parent="WNQPfLpNuPYUzKWRvsH8-1" source="WNQPfLpNuPYUzKWRvsH8-36" target="WNQPfLpNuPYUzKWRvsH8-38">
          <mxGeometry relative="1" as="geometry" />
        </mxCell>
        <mxCell id="WNQPfLpNuPYUzKWRvsH8-36" value="2" style="ellipse;whiteSpace=wrap;html=1;aspect=fixed;fillColor=#dae8fc;strokeColor=#6c8ebf;" vertex="1" parent="WNQPfLpNuPYUzKWRvsH8-1">
          <mxGeometry x="300" y="420" width="60" height="60" as="geometry" />
        </mxCell>
        <mxCell id="WNQPfLpNuPYUzKWRvsH8-37" value="" style="ellipse;whiteSpace=wrap;html=1;aspect=fixed;" vertex="1" parent="WNQPfLpNuPYUzKWRvsH8-1">
          <mxGeometry x="220" y="490" width="60" height="60" as="geometry" />
        </mxCell>
        <mxCell id="WNQPfLpNuPYUzKWRvsH8-38" value="" style="ellipse;whiteSpace=wrap;html=1;aspect=fixed;" vertex="1" parent="WNQPfLpNuPYUzKWRvsH8-1">
          <mxGeometry x="380" y="490" width="60" height="60" as="geometry" />
        </mxCell>
        <mxCell id="WNQPfLpNuPYUzKWRvsH8-39" style="edgeStyle=orthogonalEdgeStyle;rounded=0;orthogonalLoop=1;jettySize=auto;html=1;exitX=0;exitY=1;exitDx=0;exitDy=0;entryX=0.5;entryY=0;entryDx=0;entryDy=0;" edge="1" parent="WNQPfLpNuPYUzKWRvsH8-1" source="WNQPfLpNuPYUzKWRvsH8-41" target="WNQPfLpNuPYUzKWRvsH8-42">
          <mxGeometry relative="1" as="geometry" />
        </mxCell>
        <mxCell id="WNQPfLpNuPYUzKWRvsH8-40" style="edgeStyle=orthogonalEdgeStyle;rounded=0;orthogonalLoop=1;jettySize=auto;html=1;exitX=1;exitY=1;exitDx=0;exitDy=0;" edge="1" parent="WNQPfLpNuPYUzKWRvsH8-1" source="WNQPfLpNuPYUzKWRvsH8-41" target="WNQPfLpNuPYUzKWRvsH8-43">
          <mxGeometry relative="1" as="geometry" />
        </mxCell>
        <mxCell id="WNQPfLpNuPYUzKWRvsH8-41" value="" style="ellipse;whiteSpace=wrap;html=1;aspect=fixed;" vertex="1" parent="WNQPfLpNuPYUzKWRvsH8-1">
          <mxGeometry x="570" y="430" width="60" height="60" as="geometry" />
        </mxCell>
        <mxCell id="WNQPfLpNuPYUzKWRvsH8-42" value="" style="ellipse;whiteSpace=wrap;html=1;aspect=fixed;" vertex="1" parent="WNQPfLpNuPYUzKWRvsH8-1">
          <mxGeometry x="500" y="500" width="60" height="60" as="geometry" />
        </mxCell>
        <mxCell id="WNQPfLpNuPYUzKWRvsH8-43" value="" style="ellipse;whiteSpace=wrap;html=1;aspect=fixed;" vertex="1" parent="WNQPfLpNuPYUzKWRvsH8-1">
          <mxGeometry x="650" y="510" width="60" height="60" as="geometry" />
        </mxCell>
        <mxCell id="WNQPfLpNuPYUzKWRvsH8-44" value="12 Elementos" style="text;html=1;align=center;verticalAlign=middle;resizable=0;points=[];autosize=1;strokeColor=none;fillColor=none;" vertex="1" parent="WNQPfLpNuPYUzKWRvsH8-1">
          <mxGeometry x="190" y="50" width="100" height="30" as="geometry" />
        </mxCell>
      </root>
    </mxGraphModel>
  </diagram>
  <diagram name="7" id="yZyt7d415boqduuQ2fGg">
    <mxGraphModel dx="1793" dy="579" grid="1" gridSize="10" guides="1" tooltips="1" connect="1" arrows="1" fold="1" page="1" pageScale="1" pageWidth="850" pageHeight="1100" math="0" shadow="0">
      <root>
        <mxCell id="umCYHwA5h0XAsU5GqvSi-0" />
        <mxCell id="umCYHwA5h0XAsU5GqvSi-1" parent="umCYHwA5h0XAsU5GqvSi-0" />
        <mxCell id="umCYHwA5h0XAsU5GqvSi-2" value="&lt;p style=&quot;box-sizing: border-box; margin: 0px 0px 0.5em;&quot; id=&quot;yui_3_17_2_1_1711911896410_1316&quot;&gt;&lt;span style=&quot;box-sizing: border-box; font-size: 0.9375rem;&quot; id=&quot;yui_3_17_2_1_1711911896410_1315&quot;&gt;36,&amp;nbsp;&lt;/span&gt;&lt;span style=&quot;box-sizing: border-box; font-size: 0.9375rem;&quot;&gt;25,&amp;nbsp;&lt;/span&gt;&lt;span style=&quot;box-sizing: border-box; font-size: 0.9375rem;&quot;&gt;2,&amp;nbsp;&lt;/span&gt;&lt;span style=&quot;box-sizing: border-box; font-size: 0.9375rem;&quot;&gt;7,&amp;nbsp;&lt;/span&gt;&lt;span style=&quot;box-sizing: border-box; font-size: 0.9375rem;&quot;&gt;17,&amp;nbsp;&lt;/span&gt;&lt;span style=&quot;box-sizing: border-box; font-size: 0.9375rem;&quot;&gt;19,&amp;nbsp;&lt;/span&gt;&lt;span style=&quot;box-sizing: border-box; font-size: 0.9375rem;&quot;&gt;3,&amp;nbsp;&lt;/span&gt;&lt;span style=&quot;box-sizing: border-box; font-size: 0.9375rem;&quot;&gt;100,&amp;nbsp;&lt;/span&gt;&lt;span style=&quot;box-sizing: border-box; font-size: 0.9375rem;&quot;&gt;29,&amp;nbsp;&lt;/span&gt;&lt;span style=&quot;box-sizing: border-box; font-size: 0.9375rem;&quot;&gt;14,&amp;nbsp;&lt;/span&gt;&lt;span style=&quot;box-sizing: border-box; font-size: 0.9375rem;&quot;&gt;11,&amp;nbsp;&lt;/span&gt;&lt;span style=&quot;box-sizing: border-box; font-size: 0.9375rem;&quot;&gt;31&lt;/span&gt;&lt;/p&gt;" style="rounded=1;whiteSpace=wrap;html=1;" vertex="1" parent="umCYHwA5h0XAsU5GqvSi-1">
          <mxGeometry x="-45" y="80" width="330" height="40" as="geometry" />
        </mxCell>
        <mxCell id="umCYHwA5h0XAsU5GqvSi-3" style="edgeStyle=orthogonalEdgeStyle;rounded=0;orthogonalLoop=1;jettySize=auto;html=1;exitX=0;exitY=1;exitDx=0;exitDy=0;entryX=0.5;entryY=0;entryDx=0;entryDy=0;" edge="1" parent="umCYHwA5h0XAsU5GqvSi-1" source="umCYHwA5h0XAsU5GqvSi-5" target="umCYHwA5h0XAsU5GqvSi-8">
          <mxGeometry relative="1" as="geometry" />
        </mxCell>
        <mxCell id="umCYHwA5h0XAsU5GqvSi-4" style="edgeStyle=orthogonalEdgeStyle;rounded=0;orthogonalLoop=1;jettySize=auto;html=1;exitX=1;exitY=1;exitDx=0;exitDy=0;entryX=0.5;entryY=0;entryDx=0;entryDy=0;" edge="1" parent="umCYHwA5h0XAsU5GqvSi-1" source="umCYHwA5h0XAsU5GqvSi-5" target="umCYHwA5h0XAsU5GqvSi-33">
          <mxGeometry relative="1" as="geometry" />
        </mxCell>
        <mxCell id="umCYHwA5h0XAsU5GqvSi-5" value="36" style="ellipse;whiteSpace=wrap;html=1;aspect=fixed;" vertex="1" parent="umCYHwA5h0XAsU5GqvSi-1">
          <mxGeometry x="90" y="160" width="60" height="60" as="geometry" />
        </mxCell>
        <mxCell id="umCYHwA5h0XAsU5GqvSi-6" style="edgeStyle=orthogonalEdgeStyle;rounded=0;orthogonalLoop=1;jettySize=auto;html=1;exitX=0;exitY=1;exitDx=0;exitDy=0;entryX=0.5;entryY=0;entryDx=0;entryDy=0;" edge="1" parent="umCYHwA5h0XAsU5GqvSi-1" source="umCYHwA5h0XAsU5GqvSi-8" target="umCYHwA5h0XAsU5GqvSi-11">
          <mxGeometry relative="1" as="geometry" />
        </mxCell>
        <mxCell id="umCYHwA5h0XAsU5GqvSi-7" style="edgeStyle=orthogonalEdgeStyle;rounded=0;orthogonalLoop=1;jettySize=auto;html=1;exitX=1;exitY=1;exitDx=0;exitDy=0;entryX=0.5;entryY=0;entryDx=0;entryDy=0;" edge="1" parent="umCYHwA5h0XAsU5GqvSi-1" source="umCYHwA5h0XAsU5GqvSi-8" target="umCYHwA5h0XAsU5GqvSi-24">
          <mxGeometry relative="1" as="geometry" />
        </mxCell>
        <mxCell id="umCYHwA5h0XAsU5GqvSi-8" value="25" style="ellipse;whiteSpace=wrap;html=1;aspect=fixed;" vertex="1" parent="umCYHwA5h0XAsU5GqvSi-1">
          <mxGeometry x="-280" y="320" width="60" height="60" as="geometry" />
        </mxCell>
        <mxCell id="umCYHwA5h0XAsU5GqvSi-9" style="edgeStyle=orthogonalEdgeStyle;rounded=0;orthogonalLoop=1;jettySize=auto;html=1;exitX=0;exitY=1;exitDx=0;exitDy=0;entryX=0.5;entryY=0;entryDx=0;entryDy=0;" edge="1" parent="umCYHwA5h0XAsU5GqvSi-1" source="umCYHwA5h0XAsU5GqvSi-11" target="umCYHwA5h0XAsU5GqvSi-14">
          <mxGeometry relative="1" as="geometry" />
        </mxCell>
        <mxCell id="umCYHwA5h0XAsU5GqvSi-10" style="edgeStyle=orthogonalEdgeStyle;rounded=0;orthogonalLoop=1;jettySize=auto;html=1;exitX=1;exitY=1;exitDx=0;exitDy=0;" edge="1" parent="umCYHwA5h0XAsU5GqvSi-1" source="umCYHwA5h0XAsU5GqvSi-11" target="umCYHwA5h0XAsU5GqvSi-18">
          <mxGeometry relative="1" as="geometry" />
        </mxCell>
        <mxCell id="umCYHwA5h0XAsU5GqvSi-11" value="7" style="ellipse;whiteSpace=wrap;html=1;aspect=fixed;" vertex="1" parent="umCYHwA5h0XAsU5GqvSi-1">
          <mxGeometry x="-520" y="410" width="60" height="60" as="geometry" />
        </mxCell>
        <mxCell id="umCYHwA5h0XAsU5GqvSi-12" style="edgeStyle=orthogonalEdgeStyle;rounded=0;orthogonalLoop=1;jettySize=auto;html=1;exitX=1;exitY=1;exitDx=0;exitDy=0;entryX=0.5;entryY=0;entryDx=0;entryDy=0;" edge="1" parent="umCYHwA5h0XAsU5GqvSi-1" source="umCYHwA5h0XAsU5GqvSi-14" target="umCYHwA5h0XAsU5GqvSi-15">
          <mxGeometry relative="1" as="geometry" />
        </mxCell>
        <mxCell id="umCYHwA5h0XAsU5GqvSi-13" style="edgeStyle=orthogonalEdgeStyle;rounded=0;orthogonalLoop=1;jettySize=auto;html=1;exitX=0;exitY=1;exitDx=0;exitDy=0;entryX=0.5;entryY=0;entryDx=0;entryDy=0;" edge="1" parent="umCYHwA5h0XAsU5GqvSi-1" source="umCYHwA5h0XAsU5GqvSi-14" target="umCYHwA5h0XAsU5GqvSi-21">
          <mxGeometry relative="1" as="geometry" />
        </mxCell>
        <mxCell id="umCYHwA5h0XAsU5GqvSi-14" value="" style="ellipse;whiteSpace=wrap;html=1;aspect=fixed;" vertex="1" parent="umCYHwA5h0XAsU5GqvSi-1">
          <mxGeometry x="-650" y="490" width="60" height="60" as="geometry" />
        </mxCell>
        <mxCell id="umCYHwA5h0XAsU5GqvSi-15" value="" style="ellipse;whiteSpace=wrap;html=1;aspect=fixed;" vertex="1" parent="umCYHwA5h0XAsU5GqvSi-1">
          <mxGeometry x="-560" y="570" width="60" height="60" as="geometry" />
        </mxCell>
        <mxCell id="umCYHwA5h0XAsU5GqvSi-16" style="edgeStyle=orthogonalEdgeStyle;rounded=0;orthogonalLoop=1;jettySize=auto;html=1;exitX=1;exitY=1;exitDx=0;exitDy=0;entryX=0.5;entryY=0;entryDx=0;entryDy=0;" edge="1" parent="umCYHwA5h0XAsU5GqvSi-1" source="umCYHwA5h0XAsU5GqvSi-18" target="umCYHwA5h0XAsU5GqvSi-19">
          <mxGeometry relative="1" as="geometry" />
        </mxCell>
        <mxCell id="umCYHwA5h0XAsU5GqvSi-17" style="edgeStyle=orthogonalEdgeStyle;rounded=0;orthogonalLoop=1;jettySize=auto;html=1;exitX=0;exitY=1;exitDx=0;exitDy=0;entryX=0.5;entryY=0;entryDx=0;entryDy=0;" edge="1" parent="umCYHwA5h0XAsU5GqvSi-1" source="umCYHwA5h0XAsU5GqvSi-18" target="umCYHwA5h0XAsU5GqvSi-20">
          <mxGeometry relative="1" as="geometry" />
        </mxCell>
        <mxCell id="umCYHwA5h0XAsU5GqvSi-18" value="" style="ellipse;whiteSpace=wrap;html=1;aspect=fixed;" vertex="1" parent="umCYHwA5h0XAsU5GqvSi-1">
          <mxGeometry x="-385" y="490" width="60" height="60" as="geometry" />
        </mxCell>
        <mxCell id="umCYHwA5h0XAsU5GqvSi-19" value="" style="ellipse;whiteSpace=wrap;html=1;aspect=fixed;" vertex="1" parent="umCYHwA5h0XAsU5GqvSi-1">
          <mxGeometry x="-315" y="570" width="60" height="60" as="geometry" />
        </mxCell>
        <mxCell id="umCYHwA5h0XAsU5GqvSi-20" value="" style="ellipse;whiteSpace=wrap;html=1;aspect=fixed;" vertex="1" parent="umCYHwA5h0XAsU5GqvSi-1">
          <mxGeometry x="-455" y="570" width="60" height="60" as="geometry" />
        </mxCell>
        <mxCell id="umCYHwA5h0XAsU5GqvSi-21" value="" style="ellipse;whiteSpace=wrap;html=1;aspect=fixed;" vertex="1" parent="umCYHwA5h0XAsU5GqvSi-1">
          <mxGeometry x="-740" y="570" width="60" height="60" as="geometry" />
        </mxCell>
        <mxCell id="umCYHwA5h0XAsU5GqvSi-22" style="edgeStyle=orthogonalEdgeStyle;rounded=0;orthogonalLoop=1;jettySize=auto;html=1;exitX=0;exitY=1;exitDx=0;exitDy=0;entryX=0.5;entryY=0;entryDx=0;entryDy=0;" edge="1" parent="umCYHwA5h0XAsU5GqvSi-1" source="umCYHwA5h0XAsU5GqvSi-24" target="umCYHwA5h0XAsU5GqvSi-27">
          <mxGeometry relative="1" as="geometry" />
        </mxCell>
        <mxCell id="umCYHwA5h0XAsU5GqvSi-23" style="edgeStyle=orthogonalEdgeStyle;rounded=0;orthogonalLoop=1;jettySize=auto;html=1;exitX=1;exitY=1;exitDx=0;exitDy=0;" edge="1" parent="umCYHwA5h0XAsU5GqvSi-1" source="umCYHwA5h0XAsU5GqvSi-24" target="umCYHwA5h0XAsU5GqvSi-29">
          <mxGeometry relative="1" as="geometry" />
        </mxCell>
        <mxCell id="umCYHwA5h0XAsU5GqvSi-24" value="17" style="ellipse;whiteSpace=wrap;html=1;aspect=fixed;" vertex="1" parent="umCYHwA5h0XAsU5GqvSi-1">
          <mxGeometry x="-20" y="410" width="60" height="60" as="geometry" />
        </mxCell>
        <mxCell id="umCYHwA5h0XAsU5GqvSi-25" style="edgeStyle=orthogonalEdgeStyle;rounded=0;orthogonalLoop=1;jettySize=auto;html=1;exitX=1;exitY=1;exitDx=0;exitDy=0;entryX=0.5;entryY=0;entryDx=0;entryDy=0;" edge="1" parent="umCYHwA5h0XAsU5GqvSi-1" source="umCYHwA5h0XAsU5GqvSi-27" target="umCYHwA5h0XAsU5GqvSi-28">
          <mxGeometry relative="1" as="geometry" />
        </mxCell>
        <mxCell id="umCYHwA5h0XAsU5GqvSi-26" style="edgeStyle=orthogonalEdgeStyle;rounded=0;orthogonalLoop=1;jettySize=auto;html=1;exitX=0;exitY=1;exitDx=0;exitDy=0;entryX=0.5;entryY=0;entryDx=0;entryDy=0;" edge="1" parent="umCYHwA5h0XAsU5GqvSi-1" source="umCYHwA5h0XAsU5GqvSi-27" target="umCYHwA5h0XAsU5GqvSi-30">
          <mxGeometry relative="1" as="geometry" />
        </mxCell>
        <mxCell id="umCYHwA5h0XAsU5GqvSi-27" value="" style="ellipse;whiteSpace=wrap;html=1;aspect=fixed;" vertex="1" parent="umCYHwA5h0XAsU5GqvSi-1">
          <mxGeometry x="-150" y="490" width="60" height="60" as="geometry" />
        </mxCell>
        <mxCell id="umCYHwA5h0XAsU5GqvSi-28" value="" style="ellipse;whiteSpace=wrap;html=1;aspect=fixed;" vertex="1" parent="umCYHwA5h0XAsU5GqvSi-1">
          <mxGeometry x="-60" y="570" width="60" height="60" as="geometry" />
        </mxCell>
        <mxCell id="umCYHwA5h0XAsU5GqvSi-29" value="" style="ellipse;whiteSpace=wrap;html=1;aspect=fixed;" vertex="1" parent="umCYHwA5h0XAsU5GqvSi-1">
          <mxGeometry x="115" y="490" width="60" height="60" as="geometry" />
        </mxCell>
        <mxCell id="umCYHwA5h0XAsU5GqvSi-30" value="" style="ellipse;whiteSpace=wrap;html=1;aspect=fixed;" vertex="1" parent="umCYHwA5h0XAsU5GqvSi-1">
          <mxGeometry x="-240" y="570" width="60" height="60" as="geometry" />
        </mxCell>
        <mxCell id="umCYHwA5h0XAsU5GqvSi-31" style="edgeStyle=orthogonalEdgeStyle;rounded=0;orthogonalLoop=1;jettySize=auto;html=1;exitX=0;exitY=1;exitDx=0;exitDy=0;entryX=0.5;entryY=0;entryDx=0;entryDy=0;" edge="1" parent="umCYHwA5h0XAsU5GqvSi-1" source="umCYHwA5h0XAsU5GqvSi-33" target="umCYHwA5h0XAsU5GqvSi-36">
          <mxGeometry relative="1" as="geometry" />
        </mxCell>
        <mxCell id="umCYHwA5h0XAsU5GqvSi-32" style="edgeStyle=orthogonalEdgeStyle;rounded=0;orthogonalLoop=1;jettySize=auto;html=1;exitX=1;exitY=1;exitDx=0;exitDy=0;entryX=0.5;entryY=0;entryDx=0;entryDy=0;" edge="1" parent="umCYHwA5h0XAsU5GqvSi-1" source="umCYHwA5h0XAsU5GqvSi-33" target="umCYHwA5h0XAsU5GqvSi-41">
          <mxGeometry relative="1" as="geometry" />
        </mxCell>
        <mxCell id="umCYHwA5h0XAsU5GqvSi-33" value="19" style="ellipse;whiteSpace=wrap;html=1;aspect=fixed;" vertex="1" parent="umCYHwA5h0XAsU5GqvSi-1">
          <mxGeometry x="430" y="320" width="60" height="60" as="geometry" />
        </mxCell>
        <mxCell id="umCYHwA5h0XAsU5GqvSi-34" style="edgeStyle=orthogonalEdgeStyle;rounded=0;orthogonalLoop=1;jettySize=auto;html=1;exitX=0;exitY=1;exitDx=0;exitDy=0;entryX=0.5;entryY=0;entryDx=0;entryDy=0;" edge="1" parent="umCYHwA5h0XAsU5GqvSi-1" source="umCYHwA5h0XAsU5GqvSi-36" target="umCYHwA5h0XAsU5GqvSi-37">
          <mxGeometry relative="1" as="geometry" />
        </mxCell>
        <mxCell id="umCYHwA5h0XAsU5GqvSi-35" style="edgeStyle=orthogonalEdgeStyle;rounded=0;orthogonalLoop=1;jettySize=auto;html=1;exitX=1;exitY=1;exitDx=0;exitDy=0;" edge="1" parent="umCYHwA5h0XAsU5GqvSi-1" source="umCYHwA5h0XAsU5GqvSi-36" target="umCYHwA5h0XAsU5GqvSi-38">
          <mxGeometry relative="1" as="geometry" />
        </mxCell>
        <mxCell id="umCYHwA5h0XAsU5GqvSi-36" value="2" style="ellipse;whiteSpace=wrap;html=1;aspect=fixed;" vertex="1" parent="umCYHwA5h0XAsU5GqvSi-1">
          <mxGeometry x="300" y="420" width="60" height="60" as="geometry" />
        </mxCell>
        <mxCell id="umCYHwA5h0XAsU5GqvSi-37" value="" style="ellipse;whiteSpace=wrap;html=1;aspect=fixed;" vertex="1" parent="umCYHwA5h0XAsU5GqvSi-1">
          <mxGeometry x="220" y="490" width="60" height="60" as="geometry" />
        </mxCell>
        <mxCell id="umCYHwA5h0XAsU5GqvSi-38" value="" style="ellipse;whiteSpace=wrap;html=1;aspect=fixed;" vertex="1" parent="umCYHwA5h0XAsU5GqvSi-1">
          <mxGeometry x="380" y="490" width="60" height="60" as="geometry" />
        </mxCell>
        <mxCell id="umCYHwA5h0XAsU5GqvSi-39" style="edgeStyle=orthogonalEdgeStyle;rounded=0;orthogonalLoop=1;jettySize=auto;html=1;exitX=0;exitY=1;exitDx=0;exitDy=0;entryX=0.5;entryY=0;entryDx=0;entryDy=0;" edge="1" parent="umCYHwA5h0XAsU5GqvSi-1" source="umCYHwA5h0XAsU5GqvSi-41" target="umCYHwA5h0XAsU5GqvSi-42">
          <mxGeometry relative="1" as="geometry" />
        </mxCell>
        <mxCell id="umCYHwA5h0XAsU5GqvSi-40" style="edgeStyle=orthogonalEdgeStyle;rounded=0;orthogonalLoop=1;jettySize=auto;html=1;exitX=1;exitY=1;exitDx=0;exitDy=0;" edge="1" parent="umCYHwA5h0XAsU5GqvSi-1" source="umCYHwA5h0XAsU5GqvSi-41" target="umCYHwA5h0XAsU5GqvSi-43">
          <mxGeometry relative="1" as="geometry" />
        </mxCell>
        <mxCell id="umCYHwA5h0XAsU5GqvSi-41" value="3" style="ellipse;whiteSpace=wrap;html=1;aspect=fixed;fillColor=#dae8fc;strokeColor=#6c8ebf;" vertex="1" parent="umCYHwA5h0XAsU5GqvSi-1">
          <mxGeometry x="570" y="430" width="60" height="60" as="geometry" />
        </mxCell>
        <mxCell id="umCYHwA5h0XAsU5GqvSi-42" value="" style="ellipse;whiteSpace=wrap;html=1;aspect=fixed;" vertex="1" parent="umCYHwA5h0XAsU5GqvSi-1">
          <mxGeometry x="500" y="500" width="60" height="60" as="geometry" />
        </mxCell>
        <mxCell id="umCYHwA5h0XAsU5GqvSi-43" value="" style="ellipse;whiteSpace=wrap;html=1;aspect=fixed;" vertex="1" parent="umCYHwA5h0XAsU5GqvSi-1">
          <mxGeometry x="650" y="510" width="60" height="60" as="geometry" />
        </mxCell>
        <mxCell id="umCYHwA5h0XAsU5GqvSi-44" value="12 Elementos" style="text;html=1;align=center;verticalAlign=middle;resizable=0;points=[];autosize=1;strokeColor=none;fillColor=none;" vertex="1" parent="umCYHwA5h0XAsU5GqvSi-1">
          <mxGeometry x="190" y="50" width="100" height="30" as="geometry" />
        </mxCell>
      </root>
    </mxGraphModel>
  </diagram>
  <diagram name="8" id="cf0M96vtCeJ7b2qYJEO0">
    <mxGraphModel dx="1793" dy="579" grid="1" gridSize="10" guides="1" tooltips="1" connect="1" arrows="1" fold="1" page="1" pageScale="1" pageWidth="850" pageHeight="1100" math="0" shadow="0">
      <root>
        <mxCell id="ytx8MNs7-8FgI2jNtGQY-0" />
        <mxCell id="ytx8MNs7-8FgI2jNtGQY-1" parent="ytx8MNs7-8FgI2jNtGQY-0" />
        <mxCell id="ytx8MNs7-8FgI2jNtGQY-2" value="&lt;p style=&quot;box-sizing: border-box; margin: 0px 0px 0.5em;&quot; id=&quot;yui_3_17_2_1_1711911896410_1316&quot;&gt;&lt;span style=&quot;box-sizing: border-box; font-size: 0.9375rem;&quot; id=&quot;yui_3_17_2_1_1711911896410_1315&quot;&gt;36,&amp;nbsp;&lt;/span&gt;&lt;span style=&quot;box-sizing: border-box; font-size: 0.9375rem;&quot;&gt;25,&amp;nbsp;&lt;/span&gt;&lt;span style=&quot;box-sizing: border-box; font-size: 0.9375rem;&quot;&gt;2,&amp;nbsp;&lt;/span&gt;&lt;span style=&quot;box-sizing: border-box; font-size: 0.9375rem;&quot;&gt;7,&amp;nbsp;&lt;/span&gt;&lt;span style=&quot;box-sizing: border-box; font-size: 0.9375rem;&quot;&gt;17,&amp;nbsp;&lt;/span&gt;&lt;span style=&quot;box-sizing: border-box; font-size: 0.9375rem;&quot;&gt;19,&amp;nbsp;&lt;/span&gt;&lt;span style=&quot;box-sizing: border-box; font-size: 0.9375rem;&quot;&gt;3,&amp;nbsp;&lt;/span&gt;&lt;span style=&quot;box-sizing: border-box; font-size: 0.9375rem;&quot;&gt;100,&amp;nbsp;&lt;/span&gt;&lt;span style=&quot;box-sizing: border-box; font-size: 0.9375rem;&quot;&gt;29,&amp;nbsp;&lt;/span&gt;&lt;span style=&quot;box-sizing: border-box; font-size: 0.9375rem;&quot;&gt;14,&amp;nbsp;&lt;/span&gt;&lt;span style=&quot;box-sizing: border-box; font-size: 0.9375rem;&quot;&gt;11,&amp;nbsp;&lt;/span&gt;&lt;span style=&quot;box-sizing: border-box; font-size: 0.9375rem;&quot;&gt;31&lt;/span&gt;&lt;/p&gt;" style="rounded=1;whiteSpace=wrap;html=1;" vertex="1" parent="ytx8MNs7-8FgI2jNtGQY-1">
          <mxGeometry x="-45" y="80" width="330" height="40" as="geometry" />
        </mxCell>
        <mxCell id="ytx8MNs7-8FgI2jNtGQY-3" style="edgeStyle=orthogonalEdgeStyle;rounded=0;orthogonalLoop=1;jettySize=auto;html=1;exitX=0;exitY=1;exitDx=0;exitDy=0;entryX=0.5;entryY=0;entryDx=0;entryDy=0;" edge="1" parent="ytx8MNs7-8FgI2jNtGQY-1" source="ytx8MNs7-8FgI2jNtGQY-5" target="ytx8MNs7-8FgI2jNtGQY-8">
          <mxGeometry relative="1" as="geometry" />
        </mxCell>
        <mxCell id="ytx8MNs7-8FgI2jNtGQY-4" style="edgeStyle=orthogonalEdgeStyle;rounded=0;orthogonalLoop=1;jettySize=auto;html=1;exitX=1;exitY=1;exitDx=0;exitDy=0;entryX=0.5;entryY=0;entryDx=0;entryDy=0;" edge="1" parent="ytx8MNs7-8FgI2jNtGQY-1" source="ytx8MNs7-8FgI2jNtGQY-5" target="ytx8MNs7-8FgI2jNtGQY-33">
          <mxGeometry relative="1" as="geometry" />
        </mxCell>
        <mxCell id="ytx8MNs7-8FgI2jNtGQY-5" value="100" style="ellipse;whiteSpace=wrap;html=1;aspect=fixed;fillColor=#dae8fc;strokeColor=#6c8ebf;" vertex="1" parent="ytx8MNs7-8FgI2jNtGQY-1">
          <mxGeometry x="90" y="160" width="60" height="60" as="geometry" />
        </mxCell>
        <mxCell id="ytx8MNs7-8FgI2jNtGQY-6" style="edgeStyle=orthogonalEdgeStyle;rounded=0;orthogonalLoop=1;jettySize=auto;html=1;exitX=0;exitY=1;exitDx=0;exitDy=0;entryX=0.5;entryY=0;entryDx=0;entryDy=0;" edge="1" parent="ytx8MNs7-8FgI2jNtGQY-1" source="ytx8MNs7-8FgI2jNtGQY-8" target="ytx8MNs7-8FgI2jNtGQY-11">
          <mxGeometry relative="1" as="geometry" />
        </mxCell>
        <mxCell id="ytx8MNs7-8FgI2jNtGQY-7" style="edgeStyle=orthogonalEdgeStyle;rounded=0;orthogonalLoop=1;jettySize=auto;html=1;exitX=1;exitY=1;exitDx=0;exitDy=0;entryX=0.5;entryY=0;entryDx=0;entryDy=0;" edge="1" parent="ytx8MNs7-8FgI2jNtGQY-1" source="ytx8MNs7-8FgI2jNtGQY-8" target="ytx8MNs7-8FgI2jNtGQY-24">
          <mxGeometry relative="1" as="geometry" />
        </mxCell>
        <mxCell id="ytx8MNs7-8FgI2jNtGQY-8" value="36" style="ellipse;whiteSpace=wrap;html=1;aspect=fixed;fillColor=#dae8fc;strokeColor=#6c8ebf;" vertex="1" parent="ytx8MNs7-8FgI2jNtGQY-1">
          <mxGeometry x="-280" y="320" width="60" height="60" as="geometry" />
        </mxCell>
        <mxCell id="ytx8MNs7-8FgI2jNtGQY-9" style="edgeStyle=orthogonalEdgeStyle;rounded=0;orthogonalLoop=1;jettySize=auto;html=1;exitX=0;exitY=1;exitDx=0;exitDy=0;entryX=0.5;entryY=0;entryDx=0;entryDy=0;" edge="1" parent="ytx8MNs7-8FgI2jNtGQY-1" source="ytx8MNs7-8FgI2jNtGQY-11" target="ytx8MNs7-8FgI2jNtGQY-14">
          <mxGeometry relative="1" as="geometry" />
        </mxCell>
        <mxCell id="ytx8MNs7-8FgI2jNtGQY-10" style="edgeStyle=orthogonalEdgeStyle;rounded=0;orthogonalLoop=1;jettySize=auto;html=1;exitX=1;exitY=1;exitDx=0;exitDy=0;" edge="1" parent="ytx8MNs7-8FgI2jNtGQY-1" source="ytx8MNs7-8FgI2jNtGQY-11" target="ytx8MNs7-8FgI2jNtGQY-18">
          <mxGeometry relative="1" as="geometry" />
        </mxCell>
        <mxCell id="ytx8MNs7-8FgI2jNtGQY-11" value="25" style="ellipse;whiteSpace=wrap;html=1;aspect=fixed;fillColor=#dae8fc;strokeColor=#6c8ebf;" vertex="1" parent="ytx8MNs7-8FgI2jNtGQY-1">
          <mxGeometry x="-520" y="410" width="60" height="60" as="geometry" />
        </mxCell>
        <mxCell id="ytx8MNs7-8FgI2jNtGQY-12" style="edgeStyle=orthogonalEdgeStyle;rounded=0;orthogonalLoop=1;jettySize=auto;html=1;exitX=1;exitY=1;exitDx=0;exitDy=0;entryX=0.5;entryY=0;entryDx=0;entryDy=0;" edge="1" parent="ytx8MNs7-8FgI2jNtGQY-1" source="ytx8MNs7-8FgI2jNtGQY-14" target="ytx8MNs7-8FgI2jNtGQY-15">
          <mxGeometry relative="1" as="geometry" />
        </mxCell>
        <mxCell id="ytx8MNs7-8FgI2jNtGQY-13" style="edgeStyle=orthogonalEdgeStyle;rounded=0;orthogonalLoop=1;jettySize=auto;html=1;exitX=0;exitY=1;exitDx=0;exitDy=0;entryX=0.5;entryY=0;entryDx=0;entryDy=0;" edge="1" parent="ytx8MNs7-8FgI2jNtGQY-1" source="ytx8MNs7-8FgI2jNtGQY-14" target="ytx8MNs7-8FgI2jNtGQY-21">
          <mxGeometry relative="1" as="geometry" />
        </mxCell>
        <mxCell id="ytx8MNs7-8FgI2jNtGQY-14" value="7" style="ellipse;whiteSpace=wrap;html=1;aspect=fixed;fillColor=#dae8fc;strokeColor=#6c8ebf;" vertex="1" parent="ytx8MNs7-8FgI2jNtGQY-1">
          <mxGeometry x="-650" y="490" width="60" height="60" as="geometry" />
        </mxCell>
        <mxCell id="ytx8MNs7-8FgI2jNtGQY-15" value="" style="ellipse;whiteSpace=wrap;html=1;aspect=fixed;" vertex="1" parent="ytx8MNs7-8FgI2jNtGQY-1">
          <mxGeometry x="-560" y="570" width="60" height="60" as="geometry" />
        </mxCell>
        <mxCell id="ytx8MNs7-8FgI2jNtGQY-16" style="edgeStyle=orthogonalEdgeStyle;rounded=0;orthogonalLoop=1;jettySize=auto;html=1;exitX=1;exitY=1;exitDx=0;exitDy=0;entryX=0.5;entryY=0;entryDx=0;entryDy=0;" edge="1" parent="ytx8MNs7-8FgI2jNtGQY-1" source="ytx8MNs7-8FgI2jNtGQY-18" target="ytx8MNs7-8FgI2jNtGQY-19">
          <mxGeometry relative="1" as="geometry" />
        </mxCell>
        <mxCell id="ytx8MNs7-8FgI2jNtGQY-17" style="edgeStyle=orthogonalEdgeStyle;rounded=0;orthogonalLoop=1;jettySize=auto;html=1;exitX=0;exitY=1;exitDx=0;exitDy=0;entryX=0.5;entryY=0;entryDx=0;entryDy=0;" edge="1" parent="ytx8MNs7-8FgI2jNtGQY-1" source="ytx8MNs7-8FgI2jNtGQY-18" target="ytx8MNs7-8FgI2jNtGQY-20">
          <mxGeometry relative="1" as="geometry" />
        </mxCell>
        <mxCell id="ytx8MNs7-8FgI2jNtGQY-18" value="" style="ellipse;whiteSpace=wrap;html=1;aspect=fixed;" vertex="1" parent="ytx8MNs7-8FgI2jNtGQY-1">
          <mxGeometry x="-385" y="490" width="60" height="60" as="geometry" />
        </mxCell>
        <mxCell id="ytx8MNs7-8FgI2jNtGQY-19" value="" style="ellipse;whiteSpace=wrap;html=1;aspect=fixed;" vertex="1" parent="ytx8MNs7-8FgI2jNtGQY-1">
          <mxGeometry x="-315" y="570" width="60" height="60" as="geometry" />
        </mxCell>
        <mxCell id="ytx8MNs7-8FgI2jNtGQY-20" value="" style="ellipse;whiteSpace=wrap;html=1;aspect=fixed;" vertex="1" parent="ytx8MNs7-8FgI2jNtGQY-1">
          <mxGeometry x="-455" y="570" width="60" height="60" as="geometry" />
        </mxCell>
        <mxCell id="ytx8MNs7-8FgI2jNtGQY-21" value="" style="ellipse;whiteSpace=wrap;html=1;aspect=fixed;" vertex="1" parent="ytx8MNs7-8FgI2jNtGQY-1">
          <mxGeometry x="-740" y="570" width="60" height="60" as="geometry" />
        </mxCell>
        <mxCell id="ytx8MNs7-8FgI2jNtGQY-22" style="edgeStyle=orthogonalEdgeStyle;rounded=0;orthogonalLoop=1;jettySize=auto;html=1;exitX=0;exitY=1;exitDx=0;exitDy=0;entryX=0.5;entryY=0;entryDx=0;entryDy=0;" edge="1" parent="ytx8MNs7-8FgI2jNtGQY-1" source="ytx8MNs7-8FgI2jNtGQY-24" target="ytx8MNs7-8FgI2jNtGQY-27">
          <mxGeometry relative="1" as="geometry" />
        </mxCell>
        <mxCell id="ytx8MNs7-8FgI2jNtGQY-23" style="edgeStyle=orthogonalEdgeStyle;rounded=0;orthogonalLoop=1;jettySize=auto;html=1;exitX=1;exitY=1;exitDx=0;exitDy=0;" edge="1" parent="ytx8MNs7-8FgI2jNtGQY-1" source="ytx8MNs7-8FgI2jNtGQY-24" target="ytx8MNs7-8FgI2jNtGQY-29">
          <mxGeometry relative="1" as="geometry" />
        </mxCell>
        <mxCell id="ytx8MNs7-8FgI2jNtGQY-24" value="17" style="ellipse;whiteSpace=wrap;html=1;aspect=fixed;" vertex="1" parent="ytx8MNs7-8FgI2jNtGQY-1">
          <mxGeometry x="-20" y="410" width="60" height="60" as="geometry" />
        </mxCell>
        <mxCell id="ytx8MNs7-8FgI2jNtGQY-25" style="edgeStyle=orthogonalEdgeStyle;rounded=0;orthogonalLoop=1;jettySize=auto;html=1;exitX=1;exitY=1;exitDx=0;exitDy=0;entryX=0.5;entryY=0;entryDx=0;entryDy=0;" edge="1" parent="ytx8MNs7-8FgI2jNtGQY-1" source="ytx8MNs7-8FgI2jNtGQY-27" target="ytx8MNs7-8FgI2jNtGQY-28">
          <mxGeometry relative="1" as="geometry" />
        </mxCell>
        <mxCell id="ytx8MNs7-8FgI2jNtGQY-26" style="edgeStyle=orthogonalEdgeStyle;rounded=0;orthogonalLoop=1;jettySize=auto;html=1;exitX=0;exitY=1;exitDx=0;exitDy=0;entryX=0.5;entryY=0;entryDx=0;entryDy=0;" edge="1" parent="ytx8MNs7-8FgI2jNtGQY-1" source="ytx8MNs7-8FgI2jNtGQY-27" target="ytx8MNs7-8FgI2jNtGQY-30">
          <mxGeometry relative="1" as="geometry" />
        </mxCell>
        <mxCell id="ytx8MNs7-8FgI2jNtGQY-27" value="" style="ellipse;whiteSpace=wrap;html=1;aspect=fixed;" vertex="1" parent="ytx8MNs7-8FgI2jNtGQY-1">
          <mxGeometry x="-150" y="490" width="60" height="60" as="geometry" />
        </mxCell>
        <mxCell id="ytx8MNs7-8FgI2jNtGQY-28" value="" style="ellipse;whiteSpace=wrap;html=1;aspect=fixed;" vertex="1" parent="ytx8MNs7-8FgI2jNtGQY-1">
          <mxGeometry x="-60" y="570" width="60" height="60" as="geometry" />
        </mxCell>
        <mxCell id="ytx8MNs7-8FgI2jNtGQY-29" value="" style="ellipse;whiteSpace=wrap;html=1;aspect=fixed;" vertex="1" parent="ytx8MNs7-8FgI2jNtGQY-1">
          <mxGeometry x="115" y="490" width="60" height="60" as="geometry" />
        </mxCell>
        <mxCell id="ytx8MNs7-8FgI2jNtGQY-30" value="" style="ellipse;whiteSpace=wrap;html=1;aspect=fixed;" vertex="1" parent="ytx8MNs7-8FgI2jNtGQY-1">
          <mxGeometry x="-240" y="570" width="60" height="60" as="geometry" />
        </mxCell>
        <mxCell id="ytx8MNs7-8FgI2jNtGQY-31" style="edgeStyle=orthogonalEdgeStyle;rounded=0;orthogonalLoop=1;jettySize=auto;html=1;exitX=0;exitY=1;exitDx=0;exitDy=0;entryX=0.5;entryY=0;entryDx=0;entryDy=0;" edge="1" parent="ytx8MNs7-8FgI2jNtGQY-1" source="ytx8MNs7-8FgI2jNtGQY-33" target="ytx8MNs7-8FgI2jNtGQY-36">
          <mxGeometry relative="1" as="geometry" />
        </mxCell>
        <mxCell id="ytx8MNs7-8FgI2jNtGQY-32" style="edgeStyle=orthogonalEdgeStyle;rounded=0;orthogonalLoop=1;jettySize=auto;html=1;exitX=1;exitY=1;exitDx=0;exitDy=0;entryX=0.5;entryY=0;entryDx=0;entryDy=0;" edge="1" parent="ytx8MNs7-8FgI2jNtGQY-1" source="ytx8MNs7-8FgI2jNtGQY-33" target="ytx8MNs7-8FgI2jNtGQY-41">
          <mxGeometry relative="1" as="geometry" />
        </mxCell>
        <mxCell id="ytx8MNs7-8FgI2jNtGQY-33" value="19" style="ellipse;whiteSpace=wrap;html=1;aspect=fixed;" vertex="1" parent="ytx8MNs7-8FgI2jNtGQY-1">
          <mxGeometry x="430" y="320" width="60" height="60" as="geometry" />
        </mxCell>
        <mxCell id="ytx8MNs7-8FgI2jNtGQY-34" style="edgeStyle=orthogonalEdgeStyle;rounded=0;orthogonalLoop=1;jettySize=auto;html=1;exitX=0;exitY=1;exitDx=0;exitDy=0;entryX=0.5;entryY=0;entryDx=0;entryDy=0;" edge="1" parent="ytx8MNs7-8FgI2jNtGQY-1" source="ytx8MNs7-8FgI2jNtGQY-36" target="ytx8MNs7-8FgI2jNtGQY-37">
          <mxGeometry relative="1" as="geometry" />
        </mxCell>
        <mxCell id="ytx8MNs7-8FgI2jNtGQY-35" style="edgeStyle=orthogonalEdgeStyle;rounded=0;orthogonalLoop=1;jettySize=auto;html=1;exitX=1;exitY=1;exitDx=0;exitDy=0;" edge="1" parent="ytx8MNs7-8FgI2jNtGQY-1" source="ytx8MNs7-8FgI2jNtGQY-36" target="ytx8MNs7-8FgI2jNtGQY-38">
          <mxGeometry relative="1" as="geometry" />
        </mxCell>
        <mxCell id="ytx8MNs7-8FgI2jNtGQY-36" value="2" style="ellipse;whiteSpace=wrap;html=1;aspect=fixed;" vertex="1" parent="ytx8MNs7-8FgI2jNtGQY-1">
          <mxGeometry x="300" y="420" width="60" height="60" as="geometry" />
        </mxCell>
        <mxCell id="ytx8MNs7-8FgI2jNtGQY-37" value="" style="ellipse;whiteSpace=wrap;html=1;aspect=fixed;" vertex="1" parent="ytx8MNs7-8FgI2jNtGQY-1">
          <mxGeometry x="220" y="490" width="60" height="60" as="geometry" />
        </mxCell>
        <mxCell id="ytx8MNs7-8FgI2jNtGQY-38" value="" style="ellipse;whiteSpace=wrap;html=1;aspect=fixed;" vertex="1" parent="ytx8MNs7-8FgI2jNtGQY-1">
          <mxGeometry x="380" y="490" width="60" height="60" as="geometry" />
        </mxCell>
        <mxCell id="ytx8MNs7-8FgI2jNtGQY-39" style="edgeStyle=orthogonalEdgeStyle;rounded=0;orthogonalLoop=1;jettySize=auto;html=1;exitX=0;exitY=1;exitDx=0;exitDy=0;entryX=0.5;entryY=0;entryDx=0;entryDy=0;" edge="1" parent="ytx8MNs7-8FgI2jNtGQY-1" source="ytx8MNs7-8FgI2jNtGQY-41" target="ytx8MNs7-8FgI2jNtGQY-42">
          <mxGeometry relative="1" as="geometry" />
        </mxCell>
        <mxCell id="ytx8MNs7-8FgI2jNtGQY-40" style="edgeStyle=orthogonalEdgeStyle;rounded=0;orthogonalLoop=1;jettySize=auto;html=1;exitX=1;exitY=1;exitDx=0;exitDy=0;" edge="1" parent="ytx8MNs7-8FgI2jNtGQY-1" source="ytx8MNs7-8FgI2jNtGQY-41" target="ytx8MNs7-8FgI2jNtGQY-43">
          <mxGeometry relative="1" as="geometry" />
        </mxCell>
        <mxCell id="ytx8MNs7-8FgI2jNtGQY-41" value="3" style="ellipse;whiteSpace=wrap;html=1;aspect=fixed;" vertex="1" parent="ytx8MNs7-8FgI2jNtGQY-1">
          <mxGeometry x="570" y="430" width="60" height="60" as="geometry" />
        </mxCell>
        <mxCell id="ytx8MNs7-8FgI2jNtGQY-42" value="" style="ellipse;whiteSpace=wrap;html=1;aspect=fixed;" vertex="1" parent="ytx8MNs7-8FgI2jNtGQY-1">
          <mxGeometry x="500" y="500" width="60" height="60" as="geometry" />
        </mxCell>
        <mxCell id="ytx8MNs7-8FgI2jNtGQY-43" value="" style="ellipse;whiteSpace=wrap;html=1;aspect=fixed;" vertex="1" parent="ytx8MNs7-8FgI2jNtGQY-1">
          <mxGeometry x="650" y="510" width="60" height="60" as="geometry" />
        </mxCell>
        <mxCell id="ytx8MNs7-8FgI2jNtGQY-44" value="12 Elementos" style="text;html=1;align=center;verticalAlign=middle;resizable=0;points=[];autosize=1;strokeColor=none;fillColor=none;" vertex="1" parent="ytx8MNs7-8FgI2jNtGQY-1">
          <mxGeometry x="190" y="50" width="100" height="30" as="geometry" />
        </mxCell>
      </root>
    </mxGraphModel>
  </diagram>
  <diagram name="9" id="S4kA4NjEm7TjrJ0dA7CS">
    <mxGraphModel dx="1793" dy="579" grid="1" gridSize="10" guides="1" tooltips="1" connect="1" arrows="1" fold="1" page="1" pageScale="1" pageWidth="850" pageHeight="1100" math="0" shadow="0">
      <root>
        <mxCell id="D2F5_4zxf1cYFN1Xnbmk-0" />
        <mxCell id="D2F5_4zxf1cYFN1Xnbmk-1" parent="D2F5_4zxf1cYFN1Xnbmk-0" />
        <mxCell id="D2F5_4zxf1cYFN1Xnbmk-2" value="&lt;p style=&quot;box-sizing: border-box; margin: 0px 0px 0.5em;&quot; id=&quot;yui_3_17_2_1_1711911896410_1316&quot;&gt;&lt;span style=&quot;box-sizing: border-box; font-size: 0.9375rem;&quot; id=&quot;yui_3_17_2_1_1711911896410_1315&quot;&gt;36,&amp;nbsp;&lt;/span&gt;&lt;span style=&quot;box-sizing: border-box; font-size: 0.9375rem;&quot;&gt;25,&amp;nbsp;&lt;/span&gt;&lt;span style=&quot;box-sizing: border-box; font-size: 0.9375rem;&quot;&gt;2,&amp;nbsp;&lt;/span&gt;&lt;span style=&quot;box-sizing: border-box; font-size: 0.9375rem;&quot;&gt;7,&amp;nbsp;&lt;/span&gt;&lt;span style=&quot;box-sizing: border-box; font-size: 0.9375rem;&quot;&gt;17,&amp;nbsp;&lt;/span&gt;&lt;span style=&quot;box-sizing: border-box; font-size: 0.9375rem;&quot;&gt;19,&amp;nbsp;&lt;/span&gt;&lt;span style=&quot;box-sizing: border-box; font-size: 0.9375rem;&quot;&gt;3,&amp;nbsp;&lt;/span&gt;&lt;span style=&quot;box-sizing: border-box; font-size: 0.9375rem;&quot;&gt;100,&amp;nbsp;&lt;/span&gt;&lt;span style=&quot;box-sizing: border-box; font-size: 0.9375rem;&quot;&gt;29,&amp;nbsp;&lt;/span&gt;&lt;span style=&quot;box-sizing: border-box; font-size: 0.9375rem;&quot;&gt;14,&amp;nbsp;&lt;/span&gt;&lt;span style=&quot;box-sizing: border-box; font-size: 0.9375rem;&quot;&gt;11,&amp;nbsp;&lt;/span&gt;&lt;span style=&quot;box-sizing: border-box; font-size: 0.9375rem;&quot;&gt;31&lt;/span&gt;&lt;/p&gt;" style="rounded=1;whiteSpace=wrap;html=1;" vertex="1" parent="D2F5_4zxf1cYFN1Xnbmk-1">
          <mxGeometry x="-45" y="80" width="330" height="40" as="geometry" />
        </mxCell>
        <mxCell id="D2F5_4zxf1cYFN1Xnbmk-3" style="edgeStyle=orthogonalEdgeStyle;rounded=0;orthogonalLoop=1;jettySize=auto;html=1;exitX=0;exitY=1;exitDx=0;exitDy=0;entryX=0.5;entryY=0;entryDx=0;entryDy=0;" edge="1" parent="D2F5_4zxf1cYFN1Xnbmk-1" source="D2F5_4zxf1cYFN1Xnbmk-5" target="D2F5_4zxf1cYFN1Xnbmk-8">
          <mxGeometry relative="1" as="geometry" />
        </mxCell>
        <mxCell id="D2F5_4zxf1cYFN1Xnbmk-4" style="edgeStyle=orthogonalEdgeStyle;rounded=0;orthogonalLoop=1;jettySize=auto;html=1;exitX=1;exitY=1;exitDx=0;exitDy=0;entryX=0.5;entryY=0;entryDx=0;entryDy=0;" edge="1" parent="D2F5_4zxf1cYFN1Xnbmk-1" source="D2F5_4zxf1cYFN1Xnbmk-5" target="D2F5_4zxf1cYFN1Xnbmk-33">
          <mxGeometry relative="1" as="geometry" />
        </mxCell>
        <mxCell id="D2F5_4zxf1cYFN1Xnbmk-5" value="100" style="ellipse;whiteSpace=wrap;html=1;aspect=fixed;" vertex="1" parent="D2F5_4zxf1cYFN1Xnbmk-1">
          <mxGeometry x="90" y="160" width="60" height="60" as="geometry" />
        </mxCell>
        <mxCell id="D2F5_4zxf1cYFN1Xnbmk-6" style="edgeStyle=orthogonalEdgeStyle;rounded=0;orthogonalLoop=1;jettySize=auto;html=1;exitX=0;exitY=1;exitDx=0;exitDy=0;entryX=0.5;entryY=0;entryDx=0;entryDy=0;" edge="1" parent="D2F5_4zxf1cYFN1Xnbmk-1" source="D2F5_4zxf1cYFN1Xnbmk-8" target="D2F5_4zxf1cYFN1Xnbmk-11">
          <mxGeometry relative="1" as="geometry" />
        </mxCell>
        <mxCell id="D2F5_4zxf1cYFN1Xnbmk-7" style="edgeStyle=orthogonalEdgeStyle;rounded=0;orthogonalLoop=1;jettySize=auto;html=1;exitX=1;exitY=1;exitDx=0;exitDy=0;entryX=0.5;entryY=0;entryDx=0;entryDy=0;" edge="1" parent="D2F5_4zxf1cYFN1Xnbmk-1" source="D2F5_4zxf1cYFN1Xnbmk-8" target="D2F5_4zxf1cYFN1Xnbmk-24">
          <mxGeometry relative="1" as="geometry" />
        </mxCell>
        <mxCell id="D2F5_4zxf1cYFN1Xnbmk-8" value="36" style="ellipse;whiteSpace=wrap;html=1;aspect=fixed;" vertex="1" parent="D2F5_4zxf1cYFN1Xnbmk-1">
          <mxGeometry x="-280" y="320" width="60" height="60" as="geometry" />
        </mxCell>
        <mxCell id="D2F5_4zxf1cYFN1Xnbmk-9" style="edgeStyle=orthogonalEdgeStyle;rounded=0;orthogonalLoop=1;jettySize=auto;html=1;exitX=0;exitY=1;exitDx=0;exitDy=0;entryX=0.5;entryY=0;entryDx=0;entryDy=0;" edge="1" parent="D2F5_4zxf1cYFN1Xnbmk-1" source="D2F5_4zxf1cYFN1Xnbmk-11" target="D2F5_4zxf1cYFN1Xnbmk-14">
          <mxGeometry relative="1" as="geometry" />
        </mxCell>
        <mxCell id="D2F5_4zxf1cYFN1Xnbmk-10" style="edgeStyle=orthogonalEdgeStyle;rounded=0;orthogonalLoop=1;jettySize=auto;html=1;exitX=1;exitY=1;exitDx=0;exitDy=0;" edge="1" parent="D2F5_4zxf1cYFN1Xnbmk-1" source="D2F5_4zxf1cYFN1Xnbmk-11" target="D2F5_4zxf1cYFN1Xnbmk-18">
          <mxGeometry relative="1" as="geometry" />
        </mxCell>
        <mxCell id="D2F5_4zxf1cYFN1Xnbmk-11" value="29" style="ellipse;whiteSpace=wrap;html=1;aspect=fixed;fillColor=#dae8fc;strokeColor=#6c8ebf;" vertex="1" parent="D2F5_4zxf1cYFN1Xnbmk-1">
          <mxGeometry x="-520" y="410" width="60" height="60" as="geometry" />
        </mxCell>
        <mxCell id="D2F5_4zxf1cYFN1Xnbmk-12" style="edgeStyle=orthogonalEdgeStyle;rounded=0;orthogonalLoop=1;jettySize=auto;html=1;exitX=1;exitY=1;exitDx=0;exitDy=0;entryX=0.5;entryY=0;entryDx=0;entryDy=0;" edge="1" parent="D2F5_4zxf1cYFN1Xnbmk-1" source="D2F5_4zxf1cYFN1Xnbmk-14" target="D2F5_4zxf1cYFN1Xnbmk-15">
          <mxGeometry relative="1" as="geometry" />
        </mxCell>
        <mxCell id="D2F5_4zxf1cYFN1Xnbmk-13" style="edgeStyle=orthogonalEdgeStyle;rounded=0;orthogonalLoop=1;jettySize=auto;html=1;exitX=0;exitY=1;exitDx=0;exitDy=0;entryX=0.5;entryY=0;entryDx=0;entryDy=0;" edge="1" parent="D2F5_4zxf1cYFN1Xnbmk-1" source="D2F5_4zxf1cYFN1Xnbmk-14" target="D2F5_4zxf1cYFN1Xnbmk-21">
          <mxGeometry relative="1" as="geometry" />
        </mxCell>
        <mxCell id="D2F5_4zxf1cYFN1Xnbmk-14" value="7" style="ellipse;whiteSpace=wrap;html=1;aspect=fixed;" vertex="1" parent="D2F5_4zxf1cYFN1Xnbmk-1">
          <mxGeometry x="-650" y="490" width="60" height="60" as="geometry" />
        </mxCell>
        <mxCell id="D2F5_4zxf1cYFN1Xnbmk-15" value="" style="ellipse;whiteSpace=wrap;html=1;aspect=fixed;" vertex="1" parent="D2F5_4zxf1cYFN1Xnbmk-1">
          <mxGeometry x="-560" y="570" width="60" height="60" as="geometry" />
        </mxCell>
        <mxCell id="D2F5_4zxf1cYFN1Xnbmk-16" style="edgeStyle=orthogonalEdgeStyle;rounded=0;orthogonalLoop=1;jettySize=auto;html=1;exitX=1;exitY=1;exitDx=0;exitDy=0;entryX=0.5;entryY=0;entryDx=0;entryDy=0;" edge="1" parent="D2F5_4zxf1cYFN1Xnbmk-1" source="D2F5_4zxf1cYFN1Xnbmk-18" target="D2F5_4zxf1cYFN1Xnbmk-19">
          <mxGeometry relative="1" as="geometry" />
        </mxCell>
        <mxCell id="D2F5_4zxf1cYFN1Xnbmk-17" style="edgeStyle=orthogonalEdgeStyle;rounded=0;orthogonalLoop=1;jettySize=auto;html=1;exitX=0;exitY=1;exitDx=0;exitDy=0;entryX=0.5;entryY=0;entryDx=0;entryDy=0;" edge="1" parent="D2F5_4zxf1cYFN1Xnbmk-1" source="D2F5_4zxf1cYFN1Xnbmk-18" target="D2F5_4zxf1cYFN1Xnbmk-20">
          <mxGeometry relative="1" as="geometry" />
        </mxCell>
        <mxCell id="D2F5_4zxf1cYFN1Xnbmk-18" value="25" style="ellipse;whiteSpace=wrap;html=1;aspect=fixed;fillColor=#dae8fc;strokeColor=#6c8ebf;" vertex="1" parent="D2F5_4zxf1cYFN1Xnbmk-1">
          <mxGeometry x="-385" y="490" width="60" height="60" as="geometry" />
        </mxCell>
        <mxCell id="D2F5_4zxf1cYFN1Xnbmk-19" value="" style="ellipse;whiteSpace=wrap;html=1;aspect=fixed;" vertex="1" parent="D2F5_4zxf1cYFN1Xnbmk-1">
          <mxGeometry x="-315" y="570" width="60" height="60" as="geometry" />
        </mxCell>
        <mxCell id="D2F5_4zxf1cYFN1Xnbmk-20" value="" style="ellipse;whiteSpace=wrap;html=1;aspect=fixed;" vertex="1" parent="D2F5_4zxf1cYFN1Xnbmk-1">
          <mxGeometry x="-455" y="570" width="60" height="60" as="geometry" />
        </mxCell>
        <mxCell id="D2F5_4zxf1cYFN1Xnbmk-21" value="" style="ellipse;whiteSpace=wrap;html=1;aspect=fixed;" vertex="1" parent="D2F5_4zxf1cYFN1Xnbmk-1">
          <mxGeometry x="-740" y="570" width="60" height="60" as="geometry" />
        </mxCell>
        <mxCell id="D2F5_4zxf1cYFN1Xnbmk-22" style="edgeStyle=orthogonalEdgeStyle;rounded=0;orthogonalLoop=1;jettySize=auto;html=1;exitX=0;exitY=1;exitDx=0;exitDy=0;entryX=0.5;entryY=0;entryDx=0;entryDy=0;" edge="1" parent="D2F5_4zxf1cYFN1Xnbmk-1" source="D2F5_4zxf1cYFN1Xnbmk-24" target="D2F5_4zxf1cYFN1Xnbmk-27">
          <mxGeometry relative="1" as="geometry" />
        </mxCell>
        <mxCell id="D2F5_4zxf1cYFN1Xnbmk-23" style="edgeStyle=orthogonalEdgeStyle;rounded=0;orthogonalLoop=1;jettySize=auto;html=1;exitX=1;exitY=1;exitDx=0;exitDy=0;" edge="1" parent="D2F5_4zxf1cYFN1Xnbmk-1" source="D2F5_4zxf1cYFN1Xnbmk-24" target="D2F5_4zxf1cYFN1Xnbmk-29">
          <mxGeometry relative="1" as="geometry" />
        </mxCell>
        <mxCell id="D2F5_4zxf1cYFN1Xnbmk-24" value="17" style="ellipse;whiteSpace=wrap;html=1;aspect=fixed;" vertex="1" parent="D2F5_4zxf1cYFN1Xnbmk-1">
          <mxGeometry x="-20" y="410" width="60" height="60" as="geometry" />
        </mxCell>
        <mxCell id="D2F5_4zxf1cYFN1Xnbmk-25" style="edgeStyle=orthogonalEdgeStyle;rounded=0;orthogonalLoop=1;jettySize=auto;html=1;exitX=1;exitY=1;exitDx=0;exitDy=0;entryX=0.5;entryY=0;entryDx=0;entryDy=0;" edge="1" parent="D2F5_4zxf1cYFN1Xnbmk-1" source="D2F5_4zxf1cYFN1Xnbmk-27" target="D2F5_4zxf1cYFN1Xnbmk-28">
          <mxGeometry relative="1" as="geometry" />
        </mxCell>
        <mxCell id="D2F5_4zxf1cYFN1Xnbmk-26" style="edgeStyle=orthogonalEdgeStyle;rounded=0;orthogonalLoop=1;jettySize=auto;html=1;exitX=0;exitY=1;exitDx=0;exitDy=0;entryX=0.5;entryY=0;entryDx=0;entryDy=0;" edge="1" parent="D2F5_4zxf1cYFN1Xnbmk-1" source="D2F5_4zxf1cYFN1Xnbmk-27" target="D2F5_4zxf1cYFN1Xnbmk-30">
          <mxGeometry relative="1" as="geometry" />
        </mxCell>
        <mxCell id="D2F5_4zxf1cYFN1Xnbmk-27" value="" style="ellipse;whiteSpace=wrap;html=1;aspect=fixed;" vertex="1" parent="D2F5_4zxf1cYFN1Xnbmk-1">
          <mxGeometry x="-150" y="490" width="60" height="60" as="geometry" />
        </mxCell>
        <mxCell id="D2F5_4zxf1cYFN1Xnbmk-28" value="" style="ellipse;whiteSpace=wrap;html=1;aspect=fixed;" vertex="1" parent="D2F5_4zxf1cYFN1Xnbmk-1">
          <mxGeometry x="-60" y="570" width="60" height="60" as="geometry" />
        </mxCell>
        <mxCell id="D2F5_4zxf1cYFN1Xnbmk-29" value="" style="ellipse;whiteSpace=wrap;html=1;aspect=fixed;" vertex="1" parent="D2F5_4zxf1cYFN1Xnbmk-1">
          <mxGeometry x="115" y="490" width="60" height="60" as="geometry" />
        </mxCell>
        <mxCell id="D2F5_4zxf1cYFN1Xnbmk-30" value="" style="ellipse;whiteSpace=wrap;html=1;aspect=fixed;" vertex="1" parent="D2F5_4zxf1cYFN1Xnbmk-1">
          <mxGeometry x="-240" y="570" width="60" height="60" as="geometry" />
        </mxCell>
        <mxCell id="D2F5_4zxf1cYFN1Xnbmk-31" style="edgeStyle=orthogonalEdgeStyle;rounded=0;orthogonalLoop=1;jettySize=auto;html=1;exitX=0;exitY=1;exitDx=0;exitDy=0;entryX=0.5;entryY=0;entryDx=0;entryDy=0;" edge="1" parent="D2F5_4zxf1cYFN1Xnbmk-1" source="D2F5_4zxf1cYFN1Xnbmk-33" target="D2F5_4zxf1cYFN1Xnbmk-36">
          <mxGeometry relative="1" as="geometry" />
        </mxCell>
        <mxCell id="D2F5_4zxf1cYFN1Xnbmk-32" style="edgeStyle=orthogonalEdgeStyle;rounded=0;orthogonalLoop=1;jettySize=auto;html=1;exitX=1;exitY=1;exitDx=0;exitDy=0;entryX=0.5;entryY=0;entryDx=0;entryDy=0;" edge="1" parent="D2F5_4zxf1cYFN1Xnbmk-1" source="D2F5_4zxf1cYFN1Xnbmk-33" target="D2F5_4zxf1cYFN1Xnbmk-41">
          <mxGeometry relative="1" as="geometry" />
        </mxCell>
        <mxCell id="D2F5_4zxf1cYFN1Xnbmk-33" value="19" style="ellipse;whiteSpace=wrap;html=1;aspect=fixed;" vertex="1" parent="D2F5_4zxf1cYFN1Xnbmk-1">
          <mxGeometry x="430" y="320" width="60" height="60" as="geometry" />
        </mxCell>
        <mxCell id="D2F5_4zxf1cYFN1Xnbmk-34" style="edgeStyle=orthogonalEdgeStyle;rounded=0;orthogonalLoop=1;jettySize=auto;html=1;exitX=0;exitY=1;exitDx=0;exitDy=0;entryX=0.5;entryY=0;entryDx=0;entryDy=0;" edge="1" parent="D2F5_4zxf1cYFN1Xnbmk-1" source="D2F5_4zxf1cYFN1Xnbmk-36" target="D2F5_4zxf1cYFN1Xnbmk-37">
          <mxGeometry relative="1" as="geometry" />
        </mxCell>
        <mxCell id="D2F5_4zxf1cYFN1Xnbmk-35" style="edgeStyle=orthogonalEdgeStyle;rounded=0;orthogonalLoop=1;jettySize=auto;html=1;exitX=1;exitY=1;exitDx=0;exitDy=0;" edge="1" parent="D2F5_4zxf1cYFN1Xnbmk-1" source="D2F5_4zxf1cYFN1Xnbmk-36" target="D2F5_4zxf1cYFN1Xnbmk-38">
          <mxGeometry relative="1" as="geometry" />
        </mxCell>
        <mxCell id="D2F5_4zxf1cYFN1Xnbmk-36" value="2" style="ellipse;whiteSpace=wrap;html=1;aspect=fixed;" vertex="1" parent="D2F5_4zxf1cYFN1Xnbmk-1">
          <mxGeometry x="300" y="420" width="60" height="60" as="geometry" />
        </mxCell>
        <mxCell id="D2F5_4zxf1cYFN1Xnbmk-37" value="" style="ellipse;whiteSpace=wrap;html=1;aspect=fixed;" vertex="1" parent="D2F5_4zxf1cYFN1Xnbmk-1">
          <mxGeometry x="220" y="490" width="60" height="60" as="geometry" />
        </mxCell>
        <mxCell id="D2F5_4zxf1cYFN1Xnbmk-38" value="" style="ellipse;whiteSpace=wrap;html=1;aspect=fixed;" vertex="1" parent="D2F5_4zxf1cYFN1Xnbmk-1">
          <mxGeometry x="380" y="490" width="60" height="60" as="geometry" />
        </mxCell>
        <mxCell id="D2F5_4zxf1cYFN1Xnbmk-39" style="edgeStyle=orthogonalEdgeStyle;rounded=0;orthogonalLoop=1;jettySize=auto;html=1;exitX=0;exitY=1;exitDx=0;exitDy=0;entryX=0.5;entryY=0;entryDx=0;entryDy=0;" edge="1" parent="D2F5_4zxf1cYFN1Xnbmk-1" source="D2F5_4zxf1cYFN1Xnbmk-41" target="D2F5_4zxf1cYFN1Xnbmk-42">
          <mxGeometry relative="1" as="geometry" />
        </mxCell>
        <mxCell id="D2F5_4zxf1cYFN1Xnbmk-40" style="edgeStyle=orthogonalEdgeStyle;rounded=0;orthogonalLoop=1;jettySize=auto;html=1;exitX=1;exitY=1;exitDx=0;exitDy=0;" edge="1" parent="D2F5_4zxf1cYFN1Xnbmk-1" source="D2F5_4zxf1cYFN1Xnbmk-41" target="D2F5_4zxf1cYFN1Xnbmk-43">
          <mxGeometry relative="1" as="geometry" />
        </mxCell>
        <mxCell id="D2F5_4zxf1cYFN1Xnbmk-41" value="3" style="ellipse;whiteSpace=wrap;html=1;aspect=fixed;" vertex="1" parent="D2F5_4zxf1cYFN1Xnbmk-1">
          <mxGeometry x="570" y="430" width="60" height="60" as="geometry" />
        </mxCell>
        <mxCell id="D2F5_4zxf1cYFN1Xnbmk-42" value="" style="ellipse;whiteSpace=wrap;html=1;aspect=fixed;" vertex="1" parent="D2F5_4zxf1cYFN1Xnbmk-1">
          <mxGeometry x="500" y="500" width="60" height="60" as="geometry" />
        </mxCell>
        <mxCell id="D2F5_4zxf1cYFN1Xnbmk-43" value="" style="ellipse;whiteSpace=wrap;html=1;aspect=fixed;" vertex="1" parent="D2F5_4zxf1cYFN1Xnbmk-1">
          <mxGeometry x="650" y="510" width="60" height="60" as="geometry" />
        </mxCell>
        <mxCell id="D2F5_4zxf1cYFN1Xnbmk-44" value="12 Elementos" style="text;html=1;align=center;verticalAlign=middle;resizable=0;points=[];autosize=1;strokeColor=none;fillColor=none;" vertex="1" parent="D2F5_4zxf1cYFN1Xnbmk-1">
          <mxGeometry x="190" y="50" width="100" height="30" as="geometry" />
        </mxCell>
      </root>
    </mxGraphModel>
  </diagram>
  <diagram name="10" id="xXp50eORNqIS7Plq0mTw">
    <mxGraphModel dx="1793" dy="579" grid="1" gridSize="10" guides="1" tooltips="1" connect="1" arrows="1" fold="1" page="1" pageScale="1" pageWidth="850" pageHeight="1100" math="0" shadow="0">
      <root>
        <mxCell id="6JAdSb1zd1rZpXfjjIDh-0" />
        <mxCell id="6JAdSb1zd1rZpXfjjIDh-1" parent="6JAdSb1zd1rZpXfjjIDh-0" />
        <mxCell id="6JAdSb1zd1rZpXfjjIDh-2" value="&lt;p style=&quot;box-sizing: border-box; margin: 0px 0px 0.5em;&quot; id=&quot;yui_3_17_2_1_1711911896410_1316&quot;&gt;&lt;span style=&quot;box-sizing: border-box; font-size: 0.9375rem;&quot; id=&quot;yui_3_17_2_1_1711911896410_1315&quot;&gt;36,&amp;nbsp;&lt;/span&gt;&lt;span style=&quot;box-sizing: border-box; font-size: 0.9375rem;&quot;&gt;25,&amp;nbsp;&lt;/span&gt;&lt;span style=&quot;box-sizing: border-box; font-size: 0.9375rem;&quot;&gt;2,&amp;nbsp;&lt;/span&gt;&lt;span style=&quot;box-sizing: border-box; font-size: 0.9375rem;&quot;&gt;7,&amp;nbsp;&lt;/span&gt;&lt;span style=&quot;box-sizing: border-box; font-size: 0.9375rem;&quot;&gt;17,&amp;nbsp;&lt;/span&gt;&lt;span style=&quot;box-sizing: border-box; font-size: 0.9375rem;&quot;&gt;19,&amp;nbsp;&lt;/span&gt;&lt;span style=&quot;box-sizing: border-box; font-size: 0.9375rem;&quot;&gt;3,&amp;nbsp;&lt;/span&gt;&lt;span style=&quot;box-sizing: border-box; font-size: 0.9375rem;&quot;&gt;100,&amp;nbsp;&lt;/span&gt;&lt;span style=&quot;box-sizing: border-box; font-size: 0.9375rem;&quot;&gt;29,&amp;nbsp;&lt;/span&gt;&lt;span style=&quot;box-sizing: border-box; font-size: 0.9375rem;&quot;&gt;14,&amp;nbsp;&lt;/span&gt;&lt;span style=&quot;box-sizing: border-box; font-size: 0.9375rem;&quot;&gt;11,&amp;nbsp;&lt;/span&gt;&lt;span style=&quot;box-sizing: border-box; font-size: 0.9375rem;&quot;&gt;31&lt;/span&gt;&lt;/p&gt;" style="rounded=1;whiteSpace=wrap;html=1;" vertex="1" parent="6JAdSb1zd1rZpXfjjIDh-1">
          <mxGeometry x="-45" y="80" width="330" height="40" as="geometry" />
        </mxCell>
        <mxCell id="6JAdSb1zd1rZpXfjjIDh-3" style="edgeStyle=orthogonalEdgeStyle;rounded=0;orthogonalLoop=1;jettySize=auto;html=1;exitX=0;exitY=1;exitDx=0;exitDy=0;entryX=0.5;entryY=0;entryDx=0;entryDy=0;" edge="1" parent="6JAdSb1zd1rZpXfjjIDh-1" source="6JAdSb1zd1rZpXfjjIDh-5" target="6JAdSb1zd1rZpXfjjIDh-8">
          <mxGeometry relative="1" as="geometry" />
        </mxCell>
        <mxCell id="6JAdSb1zd1rZpXfjjIDh-4" style="edgeStyle=orthogonalEdgeStyle;rounded=0;orthogonalLoop=1;jettySize=auto;html=1;exitX=1;exitY=1;exitDx=0;exitDy=0;entryX=0.5;entryY=0;entryDx=0;entryDy=0;" edge="1" parent="6JAdSb1zd1rZpXfjjIDh-1" source="6JAdSb1zd1rZpXfjjIDh-5" target="6JAdSb1zd1rZpXfjjIDh-33">
          <mxGeometry relative="1" as="geometry" />
        </mxCell>
        <mxCell id="6JAdSb1zd1rZpXfjjIDh-5" value="100" style="ellipse;whiteSpace=wrap;html=1;aspect=fixed;" vertex="1" parent="6JAdSb1zd1rZpXfjjIDh-1">
          <mxGeometry x="90" y="160" width="60" height="60" as="geometry" />
        </mxCell>
        <mxCell id="6JAdSb1zd1rZpXfjjIDh-6" style="edgeStyle=orthogonalEdgeStyle;rounded=0;orthogonalLoop=1;jettySize=auto;html=1;exitX=0;exitY=1;exitDx=0;exitDy=0;entryX=0.5;entryY=0;entryDx=0;entryDy=0;" edge="1" parent="6JAdSb1zd1rZpXfjjIDh-1" source="6JAdSb1zd1rZpXfjjIDh-8" target="6JAdSb1zd1rZpXfjjIDh-11">
          <mxGeometry relative="1" as="geometry" />
        </mxCell>
        <mxCell id="6JAdSb1zd1rZpXfjjIDh-7" style="edgeStyle=orthogonalEdgeStyle;rounded=0;orthogonalLoop=1;jettySize=auto;html=1;exitX=1;exitY=1;exitDx=0;exitDy=0;entryX=0.5;entryY=0;entryDx=0;entryDy=0;" edge="1" parent="6JAdSb1zd1rZpXfjjIDh-1" source="6JAdSb1zd1rZpXfjjIDh-8" target="6JAdSb1zd1rZpXfjjIDh-24">
          <mxGeometry relative="1" as="geometry" />
        </mxCell>
        <mxCell id="6JAdSb1zd1rZpXfjjIDh-8" value="36" style="ellipse;whiteSpace=wrap;html=1;aspect=fixed;" vertex="1" parent="6JAdSb1zd1rZpXfjjIDh-1">
          <mxGeometry x="-280" y="320" width="60" height="60" as="geometry" />
        </mxCell>
        <mxCell id="6JAdSb1zd1rZpXfjjIDh-9" style="edgeStyle=orthogonalEdgeStyle;rounded=0;orthogonalLoop=1;jettySize=auto;html=1;exitX=0;exitY=1;exitDx=0;exitDy=0;entryX=0.5;entryY=0;entryDx=0;entryDy=0;" edge="1" parent="6JAdSb1zd1rZpXfjjIDh-1" source="6JAdSb1zd1rZpXfjjIDh-11" target="6JAdSb1zd1rZpXfjjIDh-14">
          <mxGeometry relative="1" as="geometry" />
        </mxCell>
        <mxCell id="6JAdSb1zd1rZpXfjjIDh-10" style="edgeStyle=orthogonalEdgeStyle;rounded=0;orthogonalLoop=1;jettySize=auto;html=1;exitX=1;exitY=1;exitDx=0;exitDy=0;" edge="1" parent="6JAdSb1zd1rZpXfjjIDh-1" source="6JAdSb1zd1rZpXfjjIDh-11" target="6JAdSb1zd1rZpXfjjIDh-18">
          <mxGeometry relative="1" as="geometry" />
        </mxCell>
        <mxCell id="6JAdSb1zd1rZpXfjjIDh-11" value="29" style="ellipse;whiteSpace=wrap;html=1;aspect=fixed;" vertex="1" parent="6JAdSb1zd1rZpXfjjIDh-1">
          <mxGeometry x="-520" y="410" width="60" height="60" as="geometry" />
        </mxCell>
        <mxCell id="6JAdSb1zd1rZpXfjjIDh-12" style="edgeStyle=orthogonalEdgeStyle;rounded=0;orthogonalLoop=1;jettySize=auto;html=1;exitX=1;exitY=1;exitDx=0;exitDy=0;entryX=0.5;entryY=0;entryDx=0;entryDy=0;" edge="1" parent="6JAdSb1zd1rZpXfjjIDh-1" source="6JAdSb1zd1rZpXfjjIDh-14" target="6JAdSb1zd1rZpXfjjIDh-15">
          <mxGeometry relative="1" as="geometry" />
        </mxCell>
        <mxCell id="6JAdSb1zd1rZpXfjjIDh-13" style="edgeStyle=orthogonalEdgeStyle;rounded=0;orthogonalLoop=1;jettySize=auto;html=1;exitX=0;exitY=1;exitDx=0;exitDy=0;entryX=0.5;entryY=0;entryDx=0;entryDy=0;" edge="1" parent="6JAdSb1zd1rZpXfjjIDh-1" source="6JAdSb1zd1rZpXfjjIDh-14" target="6JAdSb1zd1rZpXfjjIDh-21">
          <mxGeometry relative="1" as="geometry" />
        </mxCell>
        <mxCell id="6JAdSb1zd1rZpXfjjIDh-14" value="7" style="ellipse;whiteSpace=wrap;html=1;aspect=fixed;" vertex="1" parent="6JAdSb1zd1rZpXfjjIDh-1">
          <mxGeometry x="-650" y="490" width="60" height="60" as="geometry" />
        </mxCell>
        <mxCell id="6JAdSb1zd1rZpXfjjIDh-15" value="" style="ellipse;whiteSpace=wrap;html=1;aspect=fixed;" vertex="1" parent="6JAdSb1zd1rZpXfjjIDh-1">
          <mxGeometry x="-560" y="570" width="60" height="60" as="geometry" />
        </mxCell>
        <mxCell id="6JAdSb1zd1rZpXfjjIDh-16" style="edgeStyle=orthogonalEdgeStyle;rounded=0;orthogonalLoop=1;jettySize=auto;html=1;exitX=1;exitY=1;exitDx=0;exitDy=0;entryX=0.5;entryY=0;entryDx=0;entryDy=0;" edge="1" parent="6JAdSb1zd1rZpXfjjIDh-1" source="6JAdSb1zd1rZpXfjjIDh-18" target="6JAdSb1zd1rZpXfjjIDh-19">
          <mxGeometry relative="1" as="geometry" />
        </mxCell>
        <mxCell id="6JAdSb1zd1rZpXfjjIDh-17" style="edgeStyle=orthogonalEdgeStyle;rounded=0;orthogonalLoop=1;jettySize=auto;html=1;exitX=0;exitY=1;exitDx=0;exitDy=0;entryX=0.5;entryY=0;entryDx=0;entryDy=0;" edge="1" parent="6JAdSb1zd1rZpXfjjIDh-1" source="6JAdSb1zd1rZpXfjjIDh-18" target="6JAdSb1zd1rZpXfjjIDh-20">
          <mxGeometry relative="1" as="geometry" />
        </mxCell>
        <mxCell id="6JAdSb1zd1rZpXfjjIDh-18" value="25" style="ellipse;whiteSpace=wrap;html=1;aspect=fixed;" vertex="1" parent="6JAdSb1zd1rZpXfjjIDh-1">
          <mxGeometry x="-385" y="490" width="60" height="60" as="geometry" />
        </mxCell>
        <mxCell id="6JAdSb1zd1rZpXfjjIDh-19" value="" style="ellipse;whiteSpace=wrap;html=1;aspect=fixed;" vertex="1" parent="6JAdSb1zd1rZpXfjjIDh-1">
          <mxGeometry x="-315" y="570" width="60" height="60" as="geometry" />
        </mxCell>
        <mxCell id="6JAdSb1zd1rZpXfjjIDh-20" value="" style="ellipse;whiteSpace=wrap;html=1;aspect=fixed;" vertex="1" parent="6JAdSb1zd1rZpXfjjIDh-1">
          <mxGeometry x="-455" y="570" width="60" height="60" as="geometry" />
        </mxCell>
        <mxCell id="6JAdSb1zd1rZpXfjjIDh-21" value="" style="ellipse;whiteSpace=wrap;html=1;aspect=fixed;" vertex="1" parent="6JAdSb1zd1rZpXfjjIDh-1">
          <mxGeometry x="-740" y="570" width="60" height="60" as="geometry" />
        </mxCell>
        <mxCell id="6JAdSb1zd1rZpXfjjIDh-22" style="edgeStyle=orthogonalEdgeStyle;rounded=0;orthogonalLoop=1;jettySize=auto;html=1;exitX=0;exitY=1;exitDx=0;exitDy=0;entryX=0.5;entryY=0;entryDx=0;entryDy=0;" edge="1" parent="6JAdSb1zd1rZpXfjjIDh-1" source="6JAdSb1zd1rZpXfjjIDh-24" target="6JAdSb1zd1rZpXfjjIDh-27">
          <mxGeometry relative="1" as="geometry" />
        </mxCell>
        <mxCell id="6JAdSb1zd1rZpXfjjIDh-23" style="edgeStyle=orthogonalEdgeStyle;rounded=0;orthogonalLoop=1;jettySize=auto;html=1;exitX=1;exitY=1;exitDx=0;exitDy=0;" edge="1" parent="6JAdSb1zd1rZpXfjjIDh-1" source="6JAdSb1zd1rZpXfjjIDh-24" target="6JAdSb1zd1rZpXfjjIDh-29">
          <mxGeometry relative="1" as="geometry" />
        </mxCell>
        <mxCell id="6JAdSb1zd1rZpXfjjIDh-24" value="17" style="ellipse;whiteSpace=wrap;html=1;aspect=fixed;" vertex="1" parent="6JAdSb1zd1rZpXfjjIDh-1">
          <mxGeometry x="-20" y="410" width="60" height="60" as="geometry" />
        </mxCell>
        <mxCell id="6JAdSb1zd1rZpXfjjIDh-25" style="edgeStyle=orthogonalEdgeStyle;rounded=0;orthogonalLoop=1;jettySize=auto;html=1;exitX=1;exitY=1;exitDx=0;exitDy=0;entryX=0.5;entryY=0;entryDx=0;entryDy=0;" edge="1" parent="6JAdSb1zd1rZpXfjjIDh-1" source="6JAdSb1zd1rZpXfjjIDh-27" target="6JAdSb1zd1rZpXfjjIDh-28">
          <mxGeometry relative="1" as="geometry" />
        </mxCell>
        <mxCell id="6JAdSb1zd1rZpXfjjIDh-26" style="edgeStyle=orthogonalEdgeStyle;rounded=0;orthogonalLoop=1;jettySize=auto;html=1;exitX=0;exitY=1;exitDx=0;exitDy=0;entryX=0.5;entryY=0;entryDx=0;entryDy=0;" edge="1" parent="6JAdSb1zd1rZpXfjjIDh-1" source="6JAdSb1zd1rZpXfjjIDh-27" target="6JAdSb1zd1rZpXfjjIDh-30">
          <mxGeometry relative="1" as="geometry" />
        </mxCell>
        <mxCell id="6JAdSb1zd1rZpXfjjIDh-27" value="14" style="ellipse;whiteSpace=wrap;html=1;aspect=fixed;fillColor=#dae8fc;strokeColor=#6c8ebf;" vertex="1" parent="6JAdSb1zd1rZpXfjjIDh-1">
          <mxGeometry x="-150" y="490" width="60" height="60" as="geometry" />
        </mxCell>
        <mxCell id="6JAdSb1zd1rZpXfjjIDh-28" value="" style="ellipse;whiteSpace=wrap;html=1;aspect=fixed;" vertex="1" parent="6JAdSb1zd1rZpXfjjIDh-1">
          <mxGeometry x="-60" y="570" width="60" height="60" as="geometry" />
        </mxCell>
        <mxCell id="6JAdSb1zd1rZpXfjjIDh-29" value="" style="ellipse;whiteSpace=wrap;html=1;aspect=fixed;" vertex="1" parent="6JAdSb1zd1rZpXfjjIDh-1">
          <mxGeometry x="115" y="490" width="60" height="60" as="geometry" />
        </mxCell>
        <mxCell id="6JAdSb1zd1rZpXfjjIDh-30" value="" style="ellipse;whiteSpace=wrap;html=1;aspect=fixed;" vertex="1" parent="6JAdSb1zd1rZpXfjjIDh-1">
          <mxGeometry x="-240" y="570" width="60" height="60" as="geometry" />
        </mxCell>
        <mxCell id="6JAdSb1zd1rZpXfjjIDh-31" style="edgeStyle=orthogonalEdgeStyle;rounded=0;orthogonalLoop=1;jettySize=auto;html=1;exitX=0;exitY=1;exitDx=0;exitDy=0;entryX=0.5;entryY=0;entryDx=0;entryDy=0;" edge="1" parent="6JAdSb1zd1rZpXfjjIDh-1" source="6JAdSb1zd1rZpXfjjIDh-33" target="6JAdSb1zd1rZpXfjjIDh-36">
          <mxGeometry relative="1" as="geometry" />
        </mxCell>
        <mxCell id="6JAdSb1zd1rZpXfjjIDh-32" style="edgeStyle=orthogonalEdgeStyle;rounded=0;orthogonalLoop=1;jettySize=auto;html=1;exitX=1;exitY=1;exitDx=0;exitDy=0;entryX=0.5;entryY=0;entryDx=0;entryDy=0;" edge="1" parent="6JAdSb1zd1rZpXfjjIDh-1" source="6JAdSb1zd1rZpXfjjIDh-33" target="6JAdSb1zd1rZpXfjjIDh-41">
          <mxGeometry relative="1" as="geometry" />
        </mxCell>
        <mxCell id="6JAdSb1zd1rZpXfjjIDh-33" value="19" style="ellipse;whiteSpace=wrap;html=1;aspect=fixed;" vertex="1" parent="6JAdSb1zd1rZpXfjjIDh-1">
          <mxGeometry x="430" y="320" width="60" height="60" as="geometry" />
        </mxCell>
        <mxCell id="6JAdSb1zd1rZpXfjjIDh-34" style="edgeStyle=orthogonalEdgeStyle;rounded=0;orthogonalLoop=1;jettySize=auto;html=1;exitX=0;exitY=1;exitDx=0;exitDy=0;entryX=0.5;entryY=0;entryDx=0;entryDy=0;" edge="1" parent="6JAdSb1zd1rZpXfjjIDh-1" source="6JAdSb1zd1rZpXfjjIDh-36" target="6JAdSb1zd1rZpXfjjIDh-37">
          <mxGeometry relative="1" as="geometry" />
        </mxCell>
        <mxCell id="6JAdSb1zd1rZpXfjjIDh-35" style="edgeStyle=orthogonalEdgeStyle;rounded=0;orthogonalLoop=1;jettySize=auto;html=1;exitX=1;exitY=1;exitDx=0;exitDy=0;" edge="1" parent="6JAdSb1zd1rZpXfjjIDh-1" source="6JAdSb1zd1rZpXfjjIDh-36" target="6JAdSb1zd1rZpXfjjIDh-38">
          <mxGeometry relative="1" as="geometry" />
        </mxCell>
        <mxCell id="6JAdSb1zd1rZpXfjjIDh-36" value="2" style="ellipse;whiteSpace=wrap;html=1;aspect=fixed;" vertex="1" parent="6JAdSb1zd1rZpXfjjIDh-1">
          <mxGeometry x="300" y="420" width="60" height="60" as="geometry" />
        </mxCell>
        <mxCell id="6JAdSb1zd1rZpXfjjIDh-37" value="" style="ellipse;whiteSpace=wrap;html=1;aspect=fixed;" vertex="1" parent="6JAdSb1zd1rZpXfjjIDh-1">
          <mxGeometry x="220" y="490" width="60" height="60" as="geometry" />
        </mxCell>
        <mxCell id="6JAdSb1zd1rZpXfjjIDh-38" value="" style="ellipse;whiteSpace=wrap;html=1;aspect=fixed;" vertex="1" parent="6JAdSb1zd1rZpXfjjIDh-1">
          <mxGeometry x="380" y="490" width="60" height="60" as="geometry" />
        </mxCell>
        <mxCell id="6JAdSb1zd1rZpXfjjIDh-39" style="edgeStyle=orthogonalEdgeStyle;rounded=0;orthogonalLoop=1;jettySize=auto;html=1;exitX=0;exitY=1;exitDx=0;exitDy=0;entryX=0.5;entryY=0;entryDx=0;entryDy=0;" edge="1" parent="6JAdSb1zd1rZpXfjjIDh-1" source="6JAdSb1zd1rZpXfjjIDh-41" target="6JAdSb1zd1rZpXfjjIDh-42">
          <mxGeometry relative="1" as="geometry" />
        </mxCell>
        <mxCell id="6JAdSb1zd1rZpXfjjIDh-40" style="edgeStyle=orthogonalEdgeStyle;rounded=0;orthogonalLoop=1;jettySize=auto;html=1;exitX=1;exitY=1;exitDx=0;exitDy=0;" edge="1" parent="6JAdSb1zd1rZpXfjjIDh-1" source="6JAdSb1zd1rZpXfjjIDh-41" target="6JAdSb1zd1rZpXfjjIDh-43">
          <mxGeometry relative="1" as="geometry" />
        </mxCell>
        <mxCell id="6JAdSb1zd1rZpXfjjIDh-41" value="3" style="ellipse;whiteSpace=wrap;html=1;aspect=fixed;" vertex="1" parent="6JAdSb1zd1rZpXfjjIDh-1">
          <mxGeometry x="570" y="430" width="60" height="60" as="geometry" />
        </mxCell>
        <mxCell id="6JAdSb1zd1rZpXfjjIDh-42" value="" style="ellipse;whiteSpace=wrap;html=1;aspect=fixed;" vertex="1" parent="6JAdSb1zd1rZpXfjjIDh-1">
          <mxGeometry x="500" y="500" width="60" height="60" as="geometry" />
        </mxCell>
        <mxCell id="6JAdSb1zd1rZpXfjjIDh-43" value="" style="ellipse;whiteSpace=wrap;html=1;aspect=fixed;" vertex="1" parent="6JAdSb1zd1rZpXfjjIDh-1">
          <mxGeometry x="650" y="510" width="60" height="60" as="geometry" />
        </mxCell>
        <mxCell id="6JAdSb1zd1rZpXfjjIDh-44" value="12 Elementos" style="text;html=1;align=center;verticalAlign=middle;resizable=0;points=[];autosize=1;strokeColor=none;fillColor=none;" vertex="1" parent="6JAdSb1zd1rZpXfjjIDh-1">
          <mxGeometry x="190" y="50" width="100" height="30" as="geometry" />
        </mxCell>
      </root>
    </mxGraphModel>
  </diagram>
  <diagram name="11" id="JkKUppG3tUy4QDWD22jx">
    <mxGraphModel dx="1793" dy="579" grid="1" gridSize="10" guides="1" tooltips="1" connect="1" arrows="1" fold="1" page="1" pageScale="1" pageWidth="850" pageHeight="1100" math="0" shadow="0">
      <root>
        <mxCell id="-fqxvx7wKo6qroHk8llR-0" />
        <mxCell id="-fqxvx7wKo6qroHk8llR-1" parent="-fqxvx7wKo6qroHk8llR-0" />
        <mxCell id="-fqxvx7wKo6qroHk8llR-2" value="&lt;p style=&quot;box-sizing: border-box; margin: 0px 0px 0.5em;&quot; id=&quot;yui_3_17_2_1_1711911896410_1316&quot;&gt;&lt;span style=&quot;box-sizing: border-box; font-size: 0.9375rem;&quot; id=&quot;yui_3_17_2_1_1711911896410_1315&quot;&gt;36,&amp;nbsp;&lt;/span&gt;&lt;span style=&quot;box-sizing: border-box; font-size: 0.9375rem;&quot;&gt;25,&amp;nbsp;&lt;/span&gt;&lt;span style=&quot;box-sizing: border-box; font-size: 0.9375rem;&quot;&gt;2,&amp;nbsp;&lt;/span&gt;&lt;span style=&quot;box-sizing: border-box; font-size: 0.9375rem;&quot;&gt;7,&amp;nbsp;&lt;/span&gt;&lt;span style=&quot;box-sizing: border-box; font-size: 0.9375rem;&quot;&gt;17,&amp;nbsp;&lt;/span&gt;&lt;span style=&quot;box-sizing: border-box; font-size: 0.9375rem;&quot;&gt;19,&amp;nbsp;&lt;/span&gt;&lt;span style=&quot;box-sizing: border-box; font-size: 0.9375rem;&quot;&gt;3,&amp;nbsp;&lt;/span&gt;&lt;span style=&quot;box-sizing: border-box; font-size: 0.9375rem;&quot;&gt;100,&amp;nbsp;&lt;/span&gt;&lt;span style=&quot;box-sizing: border-box; font-size: 0.9375rem;&quot;&gt;29,&amp;nbsp;&lt;/span&gt;&lt;span style=&quot;box-sizing: border-box; font-size: 0.9375rem;&quot;&gt;14,&amp;nbsp;&lt;/span&gt;&lt;span style=&quot;box-sizing: border-box; font-size: 0.9375rem;&quot;&gt;11,&amp;nbsp;&lt;/span&gt;&lt;span style=&quot;box-sizing: border-box; font-size: 0.9375rem;&quot;&gt;31&lt;/span&gt;&lt;/p&gt;" style="rounded=1;whiteSpace=wrap;html=1;" vertex="1" parent="-fqxvx7wKo6qroHk8llR-1">
          <mxGeometry x="-45" y="80" width="330" height="40" as="geometry" />
        </mxCell>
        <mxCell id="-fqxvx7wKo6qroHk8llR-3" style="edgeStyle=orthogonalEdgeStyle;rounded=0;orthogonalLoop=1;jettySize=auto;html=1;exitX=0;exitY=1;exitDx=0;exitDy=0;entryX=0.5;entryY=0;entryDx=0;entryDy=0;" edge="1" parent="-fqxvx7wKo6qroHk8llR-1" source="-fqxvx7wKo6qroHk8llR-5" target="-fqxvx7wKo6qroHk8llR-8">
          <mxGeometry relative="1" as="geometry" />
        </mxCell>
        <mxCell id="-fqxvx7wKo6qroHk8llR-4" style="edgeStyle=orthogonalEdgeStyle;rounded=0;orthogonalLoop=1;jettySize=auto;html=1;exitX=1;exitY=1;exitDx=0;exitDy=0;entryX=0.5;entryY=0;entryDx=0;entryDy=0;" edge="1" parent="-fqxvx7wKo6qroHk8llR-1" source="-fqxvx7wKo6qroHk8llR-5" target="-fqxvx7wKo6qroHk8llR-33">
          <mxGeometry relative="1" as="geometry" />
        </mxCell>
        <mxCell id="-fqxvx7wKo6qroHk8llR-5" value="100" style="ellipse;whiteSpace=wrap;html=1;aspect=fixed;" vertex="1" parent="-fqxvx7wKo6qroHk8llR-1">
          <mxGeometry x="90" y="160" width="60" height="60" as="geometry" />
        </mxCell>
        <mxCell id="-fqxvx7wKo6qroHk8llR-6" style="edgeStyle=orthogonalEdgeStyle;rounded=0;orthogonalLoop=1;jettySize=auto;html=1;exitX=0;exitY=1;exitDx=0;exitDy=0;entryX=0.5;entryY=0;entryDx=0;entryDy=0;" edge="1" parent="-fqxvx7wKo6qroHk8llR-1" source="-fqxvx7wKo6qroHk8llR-8" target="-fqxvx7wKo6qroHk8llR-11">
          <mxGeometry relative="1" as="geometry" />
        </mxCell>
        <mxCell id="-fqxvx7wKo6qroHk8llR-7" style="edgeStyle=orthogonalEdgeStyle;rounded=0;orthogonalLoop=1;jettySize=auto;html=1;exitX=1;exitY=1;exitDx=0;exitDy=0;entryX=0.5;entryY=0;entryDx=0;entryDy=0;" edge="1" parent="-fqxvx7wKo6qroHk8llR-1" source="-fqxvx7wKo6qroHk8llR-8" target="-fqxvx7wKo6qroHk8llR-24">
          <mxGeometry relative="1" as="geometry" />
        </mxCell>
        <mxCell id="-fqxvx7wKo6qroHk8llR-8" value="36" style="ellipse;whiteSpace=wrap;html=1;aspect=fixed;" vertex="1" parent="-fqxvx7wKo6qroHk8llR-1">
          <mxGeometry x="-280" y="320" width="60" height="60" as="geometry" />
        </mxCell>
        <mxCell id="-fqxvx7wKo6qroHk8llR-9" style="edgeStyle=orthogonalEdgeStyle;rounded=0;orthogonalLoop=1;jettySize=auto;html=1;exitX=0;exitY=1;exitDx=0;exitDy=0;entryX=0.5;entryY=0;entryDx=0;entryDy=0;" edge="1" parent="-fqxvx7wKo6qroHk8llR-1" source="-fqxvx7wKo6qroHk8llR-11" target="-fqxvx7wKo6qroHk8llR-14">
          <mxGeometry relative="1" as="geometry" />
        </mxCell>
        <mxCell id="-fqxvx7wKo6qroHk8llR-10" style="edgeStyle=orthogonalEdgeStyle;rounded=0;orthogonalLoop=1;jettySize=auto;html=1;exitX=1;exitY=1;exitDx=0;exitDy=0;" edge="1" parent="-fqxvx7wKo6qroHk8llR-1" source="-fqxvx7wKo6qroHk8llR-11" target="-fqxvx7wKo6qroHk8llR-18">
          <mxGeometry relative="1" as="geometry" />
        </mxCell>
        <mxCell id="-fqxvx7wKo6qroHk8llR-11" value="29" style="ellipse;whiteSpace=wrap;html=1;aspect=fixed;" vertex="1" parent="-fqxvx7wKo6qroHk8llR-1">
          <mxGeometry x="-520" y="410" width="60" height="60" as="geometry" />
        </mxCell>
        <mxCell id="-fqxvx7wKo6qroHk8llR-12" style="edgeStyle=orthogonalEdgeStyle;rounded=0;orthogonalLoop=1;jettySize=auto;html=1;exitX=1;exitY=1;exitDx=0;exitDy=0;entryX=0.5;entryY=0;entryDx=0;entryDy=0;" edge="1" parent="-fqxvx7wKo6qroHk8llR-1" source="-fqxvx7wKo6qroHk8llR-14" target="-fqxvx7wKo6qroHk8llR-15">
          <mxGeometry relative="1" as="geometry" />
        </mxCell>
        <mxCell id="-fqxvx7wKo6qroHk8llR-13" style="edgeStyle=orthogonalEdgeStyle;rounded=0;orthogonalLoop=1;jettySize=auto;html=1;exitX=0;exitY=1;exitDx=0;exitDy=0;entryX=0.5;entryY=0;entryDx=0;entryDy=0;" edge="1" parent="-fqxvx7wKo6qroHk8llR-1" source="-fqxvx7wKo6qroHk8llR-14" target="-fqxvx7wKo6qroHk8llR-21">
          <mxGeometry relative="1" as="geometry" />
        </mxCell>
        <mxCell id="-fqxvx7wKo6qroHk8llR-14" value="7" style="ellipse;whiteSpace=wrap;html=1;aspect=fixed;" vertex="1" parent="-fqxvx7wKo6qroHk8llR-1">
          <mxGeometry x="-650" y="490" width="60" height="60" as="geometry" />
        </mxCell>
        <mxCell id="-fqxvx7wKo6qroHk8llR-15" value="" style="ellipse;whiteSpace=wrap;html=1;aspect=fixed;" vertex="1" parent="-fqxvx7wKo6qroHk8llR-1">
          <mxGeometry x="-560" y="570" width="60" height="60" as="geometry" />
        </mxCell>
        <mxCell id="-fqxvx7wKo6qroHk8llR-16" style="edgeStyle=orthogonalEdgeStyle;rounded=0;orthogonalLoop=1;jettySize=auto;html=1;exitX=1;exitY=1;exitDx=0;exitDy=0;entryX=0.5;entryY=0;entryDx=0;entryDy=0;" edge="1" parent="-fqxvx7wKo6qroHk8llR-1" source="-fqxvx7wKo6qroHk8llR-18" target="-fqxvx7wKo6qroHk8llR-19">
          <mxGeometry relative="1" as="geometry" />
        </mxCell>
        <mxCell id="-fqxvx7wKo6qroHk8llR-17" style="edgeStyle=orthogonalEdgeStyle;rounded=0;orthogonalLoop=1;jettySize=auto;html=1;exitX=0;exitY=1;exitDx=0;exitDy=0;entryX=0.5;entryY=0;entryDx=0;entryDy=0;" edge="1" parent="-fqxvx7wKo6qroHk8llR-1" source="-fqxvx7wKo6qroHk8llR-18" target="-fqxvx7wKo6qroHk8llR-20">
          <mxGeometry relative="1" as="geometry" />
        </mxCell>
        <mxCell id="-fqxvx7wKo6qroHk8llR-18" value="25" style="ellipse;whiteSpace=wrap;html=1;aspect=fixed;" vertex="1" parent="-fqxvx7wKo6qroHk8llR-1">
          <mxGeometry x="-385" y="490" width="60" height="60" as="geometry" />
        </mxCell>
        <mxCell id="-fqxvx7wKo6qroHk8llR-19" value="" style="ellipse;whiteSpace=wrap;html=1;aspect=fixed;" vertex="1" parent="-fqxvx7wKo6qroHk8llR-1">
          <mxGeometry x="-315" y="570" width="60" height="60" as="geometry" />
        </mxCell>
        <mxCell id="-fqxvx7wKo6qroHk8llR-20" value="" style="ellipse;whiteSpace=wrap;html=1;aspect=fixed;" vertex="1" parent="-fqxvx7wKo6qroHk8llR-1">
          <mxGeometry x="-455" y="570" width="60" height="60" as="geometry" />
        </mxCell>
        <mxCell id="-fqxvx7wKo6qroHk8llR-21" value="" style="ellipse;whiteSpace=wrap;html=1;aspect=fixed;" vertex="1" parent="-fqxvx7wKo6qroHk8llR-1">
          <mxGeometry x="-740" y="570" width="60" height="60" as="geometry" />
        </mxCell>
        <mxCell id="-fqxvx7wKo6qroHk8llR-22" style="edgeStyle=orthogonalEdgeStyle;rounded=0;orthogonalLoop=1;jettySize=auto;html=1;exitX=0;exitY=1;exitDx=0;exitDy=0;entryX=0.5;entryY=0;entryDx=0;entryDy=0;" edge="1" parent="-fqxvx7wKo6qroHk8llR-1" source="-fqxvx7wKo6qroHk8llR-24" target="-fqxvx7wKo6qroHk8llR-27">
          <mxGeometry relative="1" as="geometry" />
        </mxCell>
        <mxCell id="-fqxvx7wKo6qroHk8llR-23" style="edgeStyle=orthogonalEdgeStyle;rounded=0;orthogonalLoop=1;jettySize=auto;html=1;exitX=1;exitY=1;exitDx=0;exitDy=0;" edge="1" parent="-fqxvx7wKo6qroHk8llR-1" source="-fqxvx7wKo6qroHk8llR-24" target="-fqxvx7wKo6qroHk8llR-29">
          <mxGeometry relative="1" as="geometry" />
        </mxCell>
        <mxCell id="-fqxvx7wKo6qroHk8llR-24" value="17" style="ellipse;whiteSpace=wrap;html=1;aspect=fixed;" vertex="1" parent="-fqxvx7wKo6qroHk8llR-1">
          <mxGeometry x="-20" y="410" width="60" height="60" as="geometry" />
        </mxCell>
        <mxCell id="-fqxvx7wKo6qroHk8llR-25" style="edgeStyle=orthogonalEdgeStyle;rounded=0;orthogonalLoop=1;jettySize=auto;html=1;exitX=1;exitY=1;exitDx=0;exitDy=0;entryX=0.5;entryY=0;entryDx=0;entryDy=0;" edge="1" parent="-fqxvx7wKo6qroHk8llR-1" source="-fqxvx7wKo6qroHk8llR-27" target="-fqxvx7wKo6qroHk8llR-28">
          <mxGeometry relative="1" as="geometry" />
        </mxCell>
        <mxCell id="-fqxvx7wKo6qroHk8llR-26" style="edgeStyle=orthogonalEdgeStyle;rounded=0;orthogonalLoop=1;jettySize=auto;html=1;exitX=0;exitY=1;exitDx=0;exitDy=0;entryX=0.5;entryY=0;entryDx=0;entryDy=0;" edge="1" parent="-fqxvx7wKo6qroHk8llR-1" source="-fqxvx7wKo6qroHk8llR-27" target="-fqxvx7wKo6qroHk8llR-30">
          <mxGeometry relative="1" as="geometry" />
        </mxCell>
        <mxCell id="-fqxvx7wKo6qroHk8llR-27" value="14" style="ellipse;whiteSpace=wrap;html=1;aspect=fixed;" vertex="1" parent="-fqxvx7wKo6qroHk8llR-1">
          <mxGeometry x="-150" y="490" width="60" height="60" as="geometry" />
        </mxCell>
        <mxCell id="-fqxvx7wKo6qroHk8llR-28" value="" style="ellipse;whiteSpace=wrap;html=1;aspect=fixed;" vertex="1" parent="-fqxvx7wKo6qroHk8llR-1">
          <mxGeometry x="-60" y="570" width="60" height="60" as="geometry" />
        </mxCell>
        <mxCell id="-fqxvx7wKo6qroHk8llR-29" value="11" style="ellipse;whiteSpace=wrap;html=1;aspect=fixed;fillColor=#dae8fc;strokeColor=#6c8ebf;" vertex="1" parent="-fqxvx7wKo6qroHk8llR-1">
          <mxGeometry x="115" y="490" width="60" height="60" as="geometry" />
        </mxCell>
        <mxCell id="-fqxvx7wKo6qroHk8llR-30" value="" style="ellipse;whiteSpace=wrap;html=1;aspect=fixed;" vertex="1" parent="-fqxvx7wKo6qroHk8llR-1">
          <mxGeometry x="-240" y="570" width="60" height="60" as="geometry" />
        </mxCell>
        <mxCell id="-fqxvx7wKo6qroHk8llR-31" style="edgeStyle=orthogonalEdgeStyle;rounded=0;orthogonalLoop=1;jettySize=auto;html=1;exitX=0;exitY=1;exitDx=0;exitDy=0;entryX=0.5;entryY=0;entryDx=0;entryDy=0;" edge="1" parent="-fqxvx7wKo6qroHk8llR-1" source="-fqxvx7wKo6qroHk8llR-33" target="-fqxvx7wKo6qroHk8llR-36">
          <mxGeometry relative="1" as="geometry" />
        </mxCell>
        <mxCell id="-fqxvx7wKo6qroHk8llR-32" style="edgeStyle=orthogonalEdgeStyle;rounded=0;orthogonalLoop=1;jettySize=auto;html=1;exitX=1;exitY=1;exitDx=0;exitDy=0;entryX=0.5;entryY=0;entryDx=0;entryDy=0;" edge="1" parent="-fqxvx7wKo6qroHk8llR-1" source="-fqxvx7wKo6qroHk8llR-33" target="-fqxvx7wKo6qroHk8llR-41">
          <mxGeometry relative="1" as="geometry" />
        </mxCell>
        <mxCell id="-fqxvx7wKo6qroHk8llR-33" value="19" style="ellipse;whiteSpace=wrap;html=1;aspect=fixed;" vertex="1" parent="-fqxvx7wKo6qroHk8llR-1">
          <mxGeometry x="430" y="320" width="60" height="60" as="geometry" />
        </mxCell>
        <mxCell id="-fqxvx7wKo6qroHk8llR-34" style="edgeStyle=orthogonalEdgeStyle;rounded=0;orthogonalLoop=1;jettySize=auto;html=1;exitX=0;exitY=1;exitDx=0;exitDy=0;entryX=0.5;entryY=0;entryDx=0;entryDy=0;" edge="1" parent="-fqxvx7wKo6qroHk8llR-1" source="-fqxvx7wKo6qroHk8llR-36" target="-fqxvx7wKo6qroHk8llR-37">
          <mxGeometry relative="1" as="geometry" />
        </mxCell>
        <mxCell id="-fqxvx7wKo6qroHk8llR-35" style="edgeStyle=orthogonalEdgeStyle;rounded=0;orthogonalLoop=1;jettySize=auto;html=1;exitX=1;exitY=1;exitDx=0;exitDy=0;" edge="1" parent="-fqxvx7wKo6qroHk8llR-1" source="-fqxvx7wKo6qroHk8llR-36" target="-fqxvx7wKo6qroHk8llR-38">
          <mxGeometry relative="1" as="geometry" />
        </mxCell>
        <mxCell id="-fqxvx7wKo6qroHk8llR-36" value="2" style="ellipse;whiteSpace=wrap;html=1;aspect=fixed;" vertex="1" parent="-fqxvx7wKo6qroHk8llR-1">
          <mxGeometry x="300" y="420" width="60" height="60" as="geometry" />
        </mxCell>
        <mxCell id="-fqxvx7wKo6qroHk8llR-37" value="" style="ellipse;whiteSpace=wrap;html=1;aspect=fixed;" vertex="1" parent="-fqxvx7wKo6qroHk8llR-1">
          <mxGeometry x="220" y="490" width="60" height="60" as="geometry" />
        </mxCell>
        <mxCell id="-fqxvx7wKo6qroHk8llR-38" value="" style="ellipse;whiteSpace=wrap;html=1;aspect=fixed;" vertex="1" parent="-fqxvx7wKo6qroHk8llR-1">
          <mxGeometry x="380" y="490" width="60" height="60" as="geometry" />
        </mxCell>
        <mxCell id="-fqxvx7wKo6qroHk8llR-39" style="edgeStyle=orthogonalEdgeStyle;rounded=0;orthogonalLoop=1;jettySize=auto;html=1;exitX=0;exitY=1;exitDx=0;exitDy=0;entryX=0.5;entryY=0;entryDx=0;entryDy=0;" edge="1" parent="-fqxvx7wKo6qroHk8llR-1" source="-fqxvx7wKo6qroHk8llR-41" target="-fqxvx7wKo6qroHk8llR-42">
          <mxGeometry relative="1" as="geometry" />
        </mxCell>
        <mxCell id="-fqxvx7wKo6qroHk8llR-40" style="edgeStyle=orthogonalEdgeStyle;rounded=0;orthogonalLoop=1;jettySize=auto;html=1;exitX=1;exitY=1;exitDx=0;exitDy=0;" edge="1" parent="-fqxvx7wKo6qroHk8llR-1" source="-fqxvx7wKo6qroHk8llR-41" target="-fqxvx7wKo6qroHk8llR-43">
          <mxGeometry relative="1" as="geometry" />
        </mxCell>
        <mxCell id="-fqxvx7wKo6qroHk8llR-41" value="3" style="ellipse;whiteSpace=wrap;html=1;aspect=fixed;" vertex="1" parent="-fqxvx7wKo6qroHk8llR-1">
          <mxGeometry x="570" y="430" width="60" height="60" as="geometry" />
        </mxCell>
        <mxCell id="-fqxvx7wKo6qroHk8llR-42" value="" style="ellipse;whiteSpace=wrap;html=1;aspect=fixed;" vertex="1" parent="-fqxvx7wKo6qroHk8llR-1">
          <mxGeometry x="500" y="500" width="60" height="60" as="geometry" />
        </mxCell>
        <mxCell id="-fqxvx7wKo6qroHk8llR-43" value="" style="ellipse;whiteSpace=wrap;html=1;aspect=fixed;" vertex="1" parent="-fqxvx7wKo6qroHk8llR-1">
          <mxGeometry x="650" y="510" width="60" height="60" as="geometry" />
        </mxCell>
        <mxCell id="-fqxvx7wKo6qroHk8llR-44" value="12 Elementos" style="text;html=1;align=center;verticalAlign=middle;resizable=0;points=[];autosize=1;strokeColor=none;fillColor=none;" vertex="1" parent="-fqxvx7wKo6qroHk8llR-1">
          <mxGeometry x="190" y="50" width="100" height="30" as="geometry" />
        </mxCell>
      </root>
    </mxGraphModel>
  </diagram>
  <diagram name="12" id="R0FuZtPqpJVVE8r_r2aY">
    <mxGraphModel dx="2422" dy="965" grid="1" gridSize="10" guides="1" tooltips="1" connect="1" arrows="1" fold="1" page="1" pageScale="1" pageWidth="850" pageHeight="1100" math="0" shadow="0">
      <root>
        <mxCell id="_e10L7fuh-nreqo3zunr-0" />
        <mxCell id="_e10L7fuh-nreqo3zunr-1" parent="_e10L7fuh-nreqo3zunr-0" />
        <mxCell id="_e10L7fuh-nreqo3zunr-2" value="&lt;p style=&quot;box-sizing: border-box; margin: 0px 0px 0.5em;&quot; id=&quot;yui_3_17_2_1_1711911896410_1316&quot;&gt;&lt;span style=&quot;box-sizing: border-box; font-size: 0.9375rem;&quot; id=&quot;yui_3_17_2_1_1711911896410_1315&quot;&gt;36,&amp;nbsp;&lt;/span&gt;&lt;span style=&quot;box-sizing: border-box; font-size: 0.9375rem;&quot;&gt;25,&amp;nbsp;&lt;/span&gt;&lt;span style=&quot;box-sizing: border-box; font-size: 0.9375rem;&quot;&gt;2,&amp;nbsp;&lt;/span&gt;&lt;span style=&quot;box-sizing: border-box; font-size: 0.9375rem;&quot;&gt;7,&amp;nbsp;&lt;/span&gt;&lt;span style=&quot;box-sizing: border-box; font-size: 0.9375rem;&quot;&gt;17,&amp;nbsp;&lt;/span&gt;&lt;span style=&quot;box-sizing: border-box; font-size: 0.9375rem;&quot;&gt;19,&amp;nbsp;&lt;/span&gt;&lt;span style=&quot;box-sizing: border-box; font-size: 0.9375rem;&quot;&gt;3,&amp;nbsp;&lt;/span&gt;&lt;span style=&quot;box-sizing: border-box; font-size: 0.9375rem;&quot;&gt;100,&amp;nbsp;&lt;/span&gt;&lt;span style=&quot;box-sizing: border-box; font-size: 0.9375rem;&quot;&gt;29,&amp;nbsp;&lt;/span&gt;&lt;span style=&quot;box-sizing: border-box; font-size: 0.9375rem;&quot;&gt;14,&amp;nbsp;&lt;/span&gt;&lt;span style=&quot;box-sizing: border-box; font-size: 0.9375rem;&quot;&gt;11,&amp;nbsp;&lt;/span&gt;&lt;span style=&quot;box-sizing: border-box; font-size: 0.9375rem;&quot;&gt;31&lt;/span&gt;&lt;/p&gt;" style="rounded=1;whiteSpace=wrap;html=1;" vertex="1" parent="_e10L7fuh-nreqo3zunr-1">
          <mxGeometry x="-45" y="80" width="330" height="40" as="geometry" />
        </mxCell>
        <mxCell id="_e10L7fuh-nreqo3zunr-3" style="edgeStyle=orthogonalEdgeStyle;rounded=0;orthogonalLoop=1;jettySize=auto;html=1;exitX=0;exitY=1;exitDx=0;exitDy=0;entryX=0.5;entryY=0;entryDx=0;entryDy=0;" edge="1" parent="_e10L7fuh-nreqo3zunr-1" source="_e10L7fuh-nreqo3zunr-5" target="_e10L7fuh-nreqo3zunr-8">
          <mxGeometry relative="1" as="geometry" />
        </mxCell>
        <mxCell id="_e10L7fuh-nreqo3zunr-4" style="edgeStyle=orthogonalEdgeStyle;rounded=0;orthogonalLoop=1;jettySize=auto;html=1;exitX=1;exitY=1;exitDx=0;exitDy=0;entryX=0.5;entryY=0;entryDx=0;entryDy=0;" edge="1" parent="_e10L7fuh-nreqo3zunr-1" source="_e10L7fuh-nreqo3zunr-5" target="_e10L7fuh-nreqo3zunr-33">
          <mxGeometry relative="1" as="geometry" />
        </mxCell>
        <mxCell id="_e10L7fuh-nreqo3zunr-5" value="100" style="ellipse;whiteSpace=wrap;html=1;aspect=fixed;" vertex="1" parent="_e10L7fuh-nreqo3zunr-1">
          <mxGeometry x="90" y="160" width="60" height="60" as="geometry" />
        </mxCell>
        <mxCell id="_e10L7fuh-nreqo3zunr-6" style="edgeStyle=orthogonalEdgeStyle;rounded=0;orthogonalLoop=1;jettySize=auto;html=1;exitX=0;exitY=1;exitDx=0;exitDy=0;entryX=0.5;entryY=0;entryDx=0;entryDy=0;" edge="1" parent="_e10L7fuh-nreqo3zunr-1" source="_e10L7fuh-nreqo3zunr-8" target="_e10L7fuh-nreqo3zunr-11">
          <mxGeometry relative="1" as="geometry" />
        </mxCell>
        <mxCell id="_e10L7fuh-nreqo3zunr-7" style="edgeStyle=orthogonalEdgeStyle;rounded=0;orthogonalLoop=1;jettySize=auto;html=1;exitX=1;exitY=1;exitDx=0;exitDy=0;entryX=0.5;entryY=0;entryDx=0;entryDy=0;" edge="1" parent="_e10L7fuh-nreqo3zunr-1" source="_e10L7fuh-nreqo3zunr-8" target="_e10L7fuh-nreqo3zunr-24">
          <mxGeometry relative="1" as="geometry" />
        </mxCell>
        <mxCell id="_e10L7fuh-nreqo3zunr-8" value="36" style="ellipse;whiteSpace=wrap;html=1;aspect=fixed;" vertex="1" parent="_e10L7fuh-nreqo3zunr-1">
          <mxGeometry x="-280" y="320" width="60" height="60" as="geometry" />
        </mxCell>
        <mxCell id="_e10L7fuh-nreqo3zunr-9" style="edgeStyle=orthogonalEdgeStyle;rounded=0;orthogonalLoop=1;jettySize=auto;html=1;exitX=0;exitY=1;exitDx=0;exitDy=0;entryX=0.5;entryY=0;entryDx=0;entryDy=0;" edge="1" parent="_e10L7fuh-nreqo3zunr-1" source="_e10L7fuh-nreqo3zunr-11" target="_e10L7fuh-nreqo3zunr-14">
          <mxGeometry relative="1" as="geometry" />
        </mxCell>
        <mxCell id="_e10L7fuh-nreqo3zunr-10" style="edgeStyle=orthogonalEdgeStyle;rounded=0;orthogonalLoop=1;jettySize=auto;html=1;exitX=1;exitY=1;exitDx=0;exitDy=0;" edge="1" parent="_e10L7fuh-nreqo3zunr-1" source="_e10L7fuh-nreqo3zunr-11" target="_e10L7fuh-nreqo3zunr-18">
          <mxGeometry relative="1" as="geometry" />
        </mxCell>
        <mxCell id="_e10L7fuh-nreqo3zunr-11" value="29" style="ellipse;whiteSpace=wrap;html=1;aspect=fixed;" vertex="1" parent="_e10L7fuh-nreqo3zunr-1">
          <mxGeometry x="-520" y="410" width="60" height="60" as="geometry" />
        </mxCell>
        <mxCell id="_e10L7fuh-nreqo3zunr-14" value="7" style="ellipse;whiteSpace=wrap;html=1;aspect=fixed;" vertex="1" parent="_e10L7fuh-nreqo3zunr-1">
          <mxGeometry x="-650" y="490" width="60" height="60" as="geometry" />
        </mxCell>
        <mxCell id="_e10L7fuh-nreqo3zunr-18" value="25" style="ellipse;whiteSpace=wrap;html=1;aspect=fixed;" vertex="1" parent="_e10L7fuh-nreqo3zunr-1">
          <mxGeometry x="-385" y="490" width="60" height="60" as="geometry" />
        </mxCell>
        <mxCell id="_e10L7fuh-nreqo3zunr-22" style="edgeStyle=orthogonalEdgeStyle;rounded=0;orthogonalLoop=1;jettySize=auto;html=1;exitX=0;exitY=1;exitDx=0;exitDy=0;entryX=0.5;entryY=0;entryDx=0;entryDy=0;" edge="1" parent="_e10L7fuh-nreqo3zunr-1" source="_e10L7fuh-nreqo3zunr-24" target="_e10L7fuh-nreqo3zunr-27">
          <mxGeometry relative="1" as="geometry" />
        </mxCell>
        <mxCell id="_e10L7fuh-nreqo3zunr-23" style="edgeStyle=orthogonalEdgeStyle;rounded=0;orthogonalLoop=1;jettySize=auto;html=1;exitX=1;exitY=1;exitDx=0;exitDy=0;" edge="1" parent="_e10L7fuh-nreqo3zunr-1" source="_e10L7fuh-nreqo3zunr-24" target="_e10L7fuh-nreqo3zunr-29">
          <mxGeometry relative="1" as="geometry" />
        </mxCell>
        <mxCell id="_e10L7fuh-nreqo3zunr-24" value="17" style="ellipse;whiteSpace=wrap;html=1;aspect=fixed;" vertex="1" parent="_e10L7fuh-nreqo3zunr-1">
          <mxGeometry x="-20" y="410" width="60" height="60" as="geometry" />
        </mxCell>
        <mxCell id="_e10L7fuh-nreqo3zunr-27" value="14" style="ellipse;whiteSpace=wrap;html=1;aspect=fixed;" vertex="1" parent="_e10L7fuh-nreqo3zunr-1">
          <mxGeometry x="-150" y="490" width="60" height="60" as="geometry" />
        </mxCell>
        <mxCell id="_e10L7fuh-nreqo3zunr-29" value="11" style="ellipse;whiteSpace=wrap;html=1;aspect=fixed;" vertex="1" parent="_e10L7fuh-nreqo3zunr-1">
          <mxGeometry x="115" y="490" width="60" height="60" as="geometry" />
        </mxCell>
        <mxCell id="_e10L7fuh-nreqo3zunr-31" style="edgeStyle=orthogonalEdgeStyle;rounded=0;orthogonalLoop=1;jettySize=auto;html=1;exitX=0;exitY=1;exitDx=0;exitDy=0;entryX=0.5;entryY=0;entryDx=0;entryDy=0;" edge="1" parent="_e10L7fuh-nreqo3zunr-1" source="_e10L7fuh-nreqo3zunr-33" target="_e10L7fuh-nreqo3zunr-36">
          <mxGeometry relative="1" as="geometry" />
        </mxCell>
        <mxCell id="_e10L7fuh-nreqo3zunr-32" style="edgeStyle=orthogonalEdgeStyle;rounded=0;orthogonalLoop=1;jettySize=auto;html=1;exitX=1;exitY=1;exitDx=0;exitDy=0;entryX=0.5;entryY=0;entryDx=0;entryDy=0;" edge="1" parent="_e10L7fuh-nreqo3zunr-1" source="_e10L7fuh-nreqo3zunr-33" target="_e10L7fuh-nreqo3zunr-41">
          <mxGeometry relative="1" as="geometry" />
        </mxCell>
        <mxCell id="_e10L7fuh-nreqo3zunr-33" value="31" style="ellipse;whiteSpace=wrap;html=1;aspect=fixed;fillColor=#dae8fc;strokeColor=#6c8ebf;" vertex="1" parent="_e10L7fuh-nreqo3zunr-1">
          <mxGeometry x="430" y="320" width="60" height="60" as="geometry" />
        </mxCell>
        <mxCell id="_e10L7fuh-nreqo3zunr-34" style="edgeStyle=orthogonalEdgeStyle;rounded=0;orthogonalLoop=1;jettySize=auto;html=1;exitX=0;exitY=1;exitDx=0;exitDy=0;entryX=0.5;entryY=0;entryDx=0;entryDy=0;" edge="1" parent="_e10L7fuh-nreqo3zunr-1" source="_e10L7fuh-nreqo3zunr-36" target="_e10L7fuh-nreqo3zunr-37">
          <mxGeometry relative="1" as="geometry" />
        </mxCell>
        <mxCell id="_e10L7fuh-nreqo3zunr-36" value="19" style="ellipse;whiteSpace=wrap;html=1;aspect=fixed;fillColor=#dae8fc;strokeColor=#6c8ebf;" vertex="1" parent="_e10L7fuh-nreqo3zunr-1">
          <mxGeometry x="300" y="420" width="60" height="60" as="geometry" />
        </mxCell>
        <mxCell id="_e10L7fuh-nreqo3zunr-37" value="2" style="ellipse;whiteSpace=wrap;html=1;aspect=fixed;fillColor=#dae8fc;strokeColor=#6c8ebf;" vertex="1" parent="_e10L7fuh-nreqo3zunr-1">
          <mxGeometry x="220" y="490" width="60" height="60" as="geometry" />
        </mxCell>
        <mxCell id="_e10L7fuh-nreqo3zunr-41" value="3" style="ellipse;whiteSpace=wrap;html=1;aspect=fixed;" vertex="1" parent="_e10L7fuh-nreqo3zunr-1">
          <mxGeometry x="570" y="430" width="60" height="60" as="geometry" />
        </mxCell>
        <mxCell id="_e10L7fuh-nreqo3zunr-44" value="12 Elementos" style="text;html=1;align=center;verticalAlign=middle;resizable=0;points=[];autosize=1;strokeColor=none;fillColor=none;" vertex="1" parent="_e10L7fuh-nreqo3zunr-1">
          <mxGeometry x="190" y="50" width="100" height="30" as="geometry" />
        </mxCell>
      </root>
    </mxGraphModel>
  </diagram>
</mxfile>
